<svg width="20" height="20" viewBox="0 0 20 20" fill="none" xmlns="http://www.w3.org/2000/svg">
  <path fill-rule="evenodd" clip-rule="evenodd"
    d="M10 18.3334C14.6024 18.3334 18.3334 14.6025 18.3334 10.0001C18.3334 5.39771 14.6024 1.66675 10 1.66675C5.39765 1.66675 1.66669 5.39771 1.66669 10.0001C1.66669 14.6025 5.39765 18.3334 10 18.3334ZM6.99792 12.9612C7.20346 12.6839 7.59489 12.6258 7.8722 12.8313C8.47915 13.2812 9.21177 13.5417 10 13.5417C10.7883 13.5417 11.5209 13.2812 12.1278 12.8313C12.4051 12.6258 12.7966 12.6839 13.0021 12.9612C13.2077 13.2385 13.1495 13.63 12.8722 13.8355C12.0619 14.4362 11.0708 14.7917 10 14.7917C8.92921 14.7917 7.93819 14.4362 7.12784 13.8355C6.85054 13.63 6.79237 13.2385 6.99792 12.9612ZM13.3334 8.75008C13.3334 9.44044 12.9603 10.0001 12.5 10.0001C12.0398 10.0001 11.6667 9.44044 11.6667 8.75008C11.6667 8.05973 12.0398 7.50008 12.5 7.50008C12.9603 7.50008 13.3334 8.05973 13.3334 8.75008ZM7.50002 10.0001C7.96026 10.0001 8.33335 9.44044 8.33335 8.75008C8.33335 8.05973 7.96026 7.50008 7.50002 7.50008C7.03978 7.50008 6.66669 8.05973 6.66669 8.75008C6.66669 9.44044 7.03978 10.0001 7.50002 10.0001Z"
    fill="#584D74" />
</svg>