<svg width="17" height="17" viewBox="0 0 17 17" fill="none" xmlns="http://www.w3.org/2000/svg">
<path d="M10.66 1.8335H8.06389C6.88773 1.83349 5.95612 1.83348 5.22703 1.9319C4.47668 2.03318 3.86935 2.24659 3.3904 2.72747C2.91144 3.20834 2.69889 3.81811 2.59801 4.57147C2.49998 5.3035 2.49999 6.23884 2.5 7.41973V11.3114C2.5 12.3168 3.1133 13.1784 3.98478 13.5396C3.93992 12.9333 3.93996 12.0826 3.94 11.3749L3.94 8.09856L3.94 8.0351C3.93995 7.18066 3.93991 6.44445 4.01886 5.8549C4.10346 5.22308 4.29426 4.61744 4.78353 4.1262C5.27281 3.63496 5.87603 3.4434 6.50532 3.35845C7.09251 3.27919 7.82578 3.27923 8.6768 3.27928L8.74 3.27928H10.66L10.7232 3.27928C11.5742 3.27923 12.3059 3.27919 12.8931 3.35845C12.5418 2.46536 11.6744 1.8335 10.66 1.8335Z" fill="white"/>
<path d="M4.90039 8.0981C4.90039 6.28063 4.90039 5.3719 5.46275 4.80729C6.0251 4.24268 6.9302 4.24268 8.74039 4.24268H10.6604C12.4706 4.24268 13.3757 4.24268 13.938 4.80729C14.5004 5.3719 14.5004 6.28063 14.5004 8.0981V11.3109C14.5004 13.1284 14.5004 14.0371 13.938 14.6018C13.3757 15.1664 12.4706 15.1664 10.6604 15.1664H8.74039C6.9302 15.1664 6.0251 15.1664 5.46275 14.6018C4.90039 14.0371 4.90039 13.1284 4.90039 11.3109V8.0981Z" fill="white"/>
</svg>
