<svg width="26" height="26" viewBox="0 0 26 26" fill="none" xmlns="http://www.w3.org/2000/svg">
<g clip-path="url(#clip0_721_3158)">
<path fill-rule="evenodd" clip-rule="evenodd" d="M13.0003 2.1665C18.9836 2.1665 23.8337 7.01659 23.8337 12.9998C23.8337 18.9831 18.9836 23.8332 13.0003 23.8332C11.1565 23.8359 9.34266 23.3659 7.73208 22.4682L7.40167 22.2753L4.117 23.2417C3.93825 23.2943 3.74902 23.3005 3.56723 23.2595C3.38544 23.2186 3.21712 23.1319 3.07823 23.0076C2.93935 22.8834 2.83449 22.7257 2.77361 22.5496C2.71272 22.3735 2.69783 22.1847 2.73033 22.0013L2.7585 21.8832L3.72483 18.5985C2.70321 16.9099 2.16438 14.9734 2.167 12.9998C2.167 7.01659 7.01708 2.1665 13.0003 2.1665ZM10.6094 10.6089L7.35942 13.8589C7.25595 13.9589 7.17342 14.0784 7.11664 14.2106C7.05986 14.3427 7.02998 14.4849 7.02873 14.6287C7.02748 14.7726 7.05489 14.9152 7.10936 15.0484C7.16383 15.1815 7.24427 15.3025 7.34599 15.4042C7.44771 15.5059 7.56866 15.5863 7.7018 15.6408C7.83494 15.6953 7.97759 15.7227 8.12144 15.7214C8.26528 15.7202 8.40743 15.6903 8.53961 15.6335C8.67178 15.5768 8.79132 15.4942 8.89125 15.3908L11.3753 12.9067L13.8594 15.3908C14.0626 15.5938 14.3381 15.7079 14.6253 15.7079C14.9126 15.7079 15.1881 15.5938 15.3913 15.3908L18.6413 12.1408C18.8386 11.9364 18.9478 11.6628 18.9453 11.3787C18.9428 11.0947 18.8289 10.823 18.6281 10.6221C18.4272 10.4213 18.1555 10.3073 17.8714 10.3049C17.5874 10.3024 17.3137 10.4116 17.1094 10.6089L14.6253 13.093L12.1413 10.6089C11.9381 10.4058 11.6626 10.2917 11.3753 10.2917C11.0881 10.2917 10.8126 10.4058 10.6094 10.6089Z" fill="white" fill-opacity="0.4"/>
</g>
<defs>
<clipPath id="clip0_721_3158">
<rect width="26" height="26" fill="white"/>
</clipPath>
</defs>
</svg>
