<svg width="26" height="26" viewBox="0 0 26 26" fill="none" xmlns="http://www.w3.org/2000/svg">
<g clip-path="url(#clip0_721_3154)">
<path fill-rule="evenodd" clip-rule="evenodd" d="M13.0003 2.1665C7.01708 2.1665 2.16699 7.01659 2.16699 12.9998C2.16699 15.0473 2.73574 16.9648 3.72483 18.5985L2.75849 21.8832C2.70301 22.0718 2.69936 22.2718 2.74792 22.4623C2.79649 22.6528 2.89548 22.8267 3.03448 22.9657C3.17349 23.1047 3.34737 23.2037 3.53786 23.2522C3.72835 23.3008 3.9284 23.2972 4.11699 23.2417L7.40166 22.2753C9.09022 23.297 11.0267 23.8358 13.0003 23.8332C18.9836 23.8332 23.8337 18.9831 23.8337 12.9998C23.8337 7.01659 18.9836 2.1665 13.0003 2.1665ZM10.5498 15.4514C12.7414 17.6419 14.8333 17.9312 15.5722 17.9583C16.6956 17.9994 17.7897 17.1414 18.2155 16.1458C18.2692 16.022 18.2887 15.886 18.272 15.752C18.2552 15.618 18.2028 15.491 18.1202 15.3843C17.5265 14.6259 16.7237 14.081 15.9394 13.5393C15.7756 13.4261 15.5744 13.3807 15.3779 13.4126C15.1814 13.4445 15.0048 13.5513 14.8853 13.7105L14.2353 14.7018C14.2012 14.755 14.1479 14.7933 14.0865 14.8086C14.025 14.8239 13.9601 14.8151 13.9049 14.7841C13.464 14.5317 12.8216 14.1027 12.3601 13.6412C11.8986 13.1797 11.4956 12.5665 11.2692 12.1538C11.2411 12.1013 11.233 12.0405 11.2463 11.9825C11.2597 11.9245 11.2936 11.8734 11.3417 11.8385L12.3427 11.0953C12.4856 10.9711 12.5778 10.7987 12.6018 10.6109C12.6257 10.4232 12.5798 10.2331 12.4727 10.077C11.9874 9.36634 11.4219 8.46284 10.6018 7.86375C10.496 7.78706 10.372 7.73923 10.2421 7.72499C10.1122 7.71074 9.98076 7.73056 9.86082 7.7825C8.86416 8.20934 8.00182 9.3035 8.04299 10.4291C8.07007 11.1679 8.35932 13.2598 10.5498 15.4514Z" fill="white" fill-opacity="0.4"/>
</g>
<defs>
<clipPath id="clip0_721_3154">
<rect width="26" height="26" fill="white"/>
</clipPath>
</defs>
</svg>
