<svg width="26" height="26" viewBox="0 0 26 26" fill="none" xmlns="http://www.w3.org/2000/svg">
<g clip-path="url(#clip0_721_3150)">
<path fill-rule="evenodd" clip-rule="evenodd" d="M19.5 3.25C20.362 3.25 21.1886 3.59241 21.7981 4.2019C22.4076 4.8114 22.75 5.63805 22.75 6.5V19.5C22.75 20.362 22.4076 21.1886 21.7981 21.7981C21.1886 22.4076 20.362 22.75 19.5 22.75H6.5C5.63805 22.75 4.8114 22.4076 4.2019 21.7981C3.59241 21.1886 3.25 20.362 3.25 19.5V6.5C3.25 5.63805 3.59241 4.8114 4.2019 4.2019C4.8114 3.59241 5.63805 3.25 6.5 3.25H19.5ZM8.66667 10.8333C8.37935 10.8333 8.1038 10.9475 7.90063 11.1506C7.69747 11.3538 7.58333 11.6293 7.58333 11.9167V17.3333C7.58333 17.6207 7.69747 17.8962 7.90063 18.0994C8.1038 18.3025 8.37935 18.4167 8.66667 18.4167C8.95398 18.4167 9.22953 18.3025 9.4327 18.0994C9.63586 17.8962 9.75 17.6207 9.75 17.3333V11.9167C9.75 11.6293 9.63586 11.3538 9.4327 11.1506C9.22953 10.9475 8.95398 10.8333 8.66667 10.8333ZM11.9167 9.75C11.6293 9.75 11.3538 9.86414 11.1506 10.0673C10.9475 10.2705 10.8333 10.546 10.8333 10.8333V17.3333C10.8333 17.6207 10.9475 17.8962 11.1506 18.0994C11.3538 18.3025 11.6293 18.4167 11.9167 18.4167C12.204 18.4167 12.4795 18.3025 12.6827 18.0994C12.8859 17.8962 13 17.6207 13 17.3333V13.3683C13.3304 12.9957 13.8883 12.558 14.5091 12.2926C14.8698 12.1388 15.4126 12.0759 15.7896 12.1951C15.9543 12.2471 16.0496 12.3208 16.107 12.3988C16.1633 12.4746 16.25 12.6436 16.25 13V17.3333C16.25 17.6207 16.3641 17.8962 16.5673 18.0994C16.7705 18.3025 17.046 18.4167 17.3333 18.4167C17.6207 18.4167 17.8962 18.3025 18.0994 18.0994C18.3025 17.8962 18.4167 17.6207 18.4167 17.3333V13C18.4167 12.2742 18.2325 11.6285 17.849 11.1107C17.4961 10.6411 17.0022 10.2968 16.4396 10.1281C15.4624 9.8215 14.3802 9.99158 13.6576 10.3014C13.4261 10.4005 13.2007 10.5134 12.9827 10.6394C12.9373 10.3898 12.8057 10.164 12.6109 10.0015C12.4161 9.83897 12.1704 9.74996 11.9167 9.75ZM8.66667 7.58333C8.37935 7.58333 8.1038 7.69747 7.90063 7.90063C7.69747 8.1038 7.58333 8.37935 7.58333 8.66667C7.58333 8.95398 7.69747 9.22953 7.90063 9.4327C8.1038 9.63586 8.37935 9.75 8.66667 9.75C8.95398 9.75 9.22953 9.63586 9.4327 9.4327C9.63586 9.22953 9.75 8.95398 9.75 8.66667C9.75 8.37935 9.63586 8.1038 9.4327 7.90063C9.22953 7.69747 8.95398 7.58333 8.66667 7.58333Z" fill="white" fill-opacity="0.4"/>
</g>
<defs>
<clipPath id="clip0_721_3150">
<rect width="26" height="26" fill="white"/>
</clipPath>
</defs>
</svg>
