<svg width="16" height="16" viewBox="0 0 16 16" fill="none" xmlns="http://www.w3.org/2000/svg">
    <path d="M12.6666 2H3.33331C2.3905 2 1.9191 2 1.62621 2.2748C1.33331 2.5496 1.33331 2.99188 1.33331 3.87644V4.33632C1.33331 5.02821 1.33331 5.37416 1.50638 5.66095C1.67945 5.94773 1.99563 6.12572 2.62799 6.4817L4.57001 7.57492C4.99429 7.81376 5.20643 7.93318 5.35832 8.06505C5.67464 8.33966 5.86937 8.66234 5.95761 9.05811C5.99998 9.24816 5.99998 9.47054 5.99998 9.91529L5.99998 11.6949C5.99998 12.3013 5.99998 12.6045 6.16793 12.8409C6.33588 13.0772 6.63417 13.1938 7.23075 13.427C8.48317 13.9166 9.10938 14.1614 9.55468 13.8829C9.99998 13.6044 9.99998 12.9679 9.99998 11.6949V9.91529C9.99998 9.47054 9.99998 9.24816 10.0424 9.05811C10.1306 8.66234 10.3253 8.33966 10.6416 8.06505C10.7935 7.93318 11.0057 7.81376 11.43 7.57492L13.372 6.4817C14.0043 6.12572 14.3205 5.94773 14.4936 5.66095C14.6666 5.37416 14.6666 5.02821 14.6666 4.33632V3.87644C14.6666 2.99188 14.6666 2.5496 14.3738 2.2748C14.0809 2 13.6095 2 12.6666 2Z" fill="#584D74"/>
    </svg>
    