<svg width="26" height="26" viewBox="0 0 26 26" fill="none" xmlns="http://www.w3.org/2000/svg">
<g clip-path="url(#clip0_721_3166)">
<path fill-rule="evenodd" clip-rule="evenodd" d="M16.25 5.95856C16.2499 5.07926 16.5554 4.22726 17.1143 3.54839C17.6731 2.86952 18.4505 2.40598 19.3134 2.2371C20.1764 2.06822 21.0712 2.20451 21.8447 2.62263C22.6182 3.04076 23.2224 3.71473 23.5537 4.52919C23.8851 5.34365 23.9231 6.24797 23.6613 7.08737C23.3994 7.92677 22.854 8.64907 22.1183 9.13063C21.3826 9.6122 20.5024 9.8231 19.6283 9.72724C18.7542 9.63138 17.9407 9.23472 17.3268 8.60514L12.6425 11.0611C12.8732 11.6623 13 12.3177 13 13.0002C13.0007 13.6631 12.8795 14.3204 12.6425 14.9394L17.3268 17.3953C17.963 16.7436 18.8125 16.3426 19.72 16.2658C20.6275 16.1889 21.5324 16.4413 22.2691 16.9767C23.0059 17.5121 23.5253 18.2948 23.7324 19.1817C23.9395 20.0686 23.8204 21.0004 23.397 21.8067C22.9736 22.6131 22.2741 23.2401 21.4264 23.5731C20.5787 23.9061 19.6395 23.9228 18.7804 23.6202C17.9214 23.3177 17.2 22.716 16.7481 21.9253C16.2962 21.1346 16.144 20.2076 16.3193 19.3139L11.4714 16.7724C10.7206 17.5464 9.75584 18.0786 8.70071 18.301C7.64557 18.5234 6.54808 18.4258 5.54874 18.0207C4.54941 17.6156 3.69372 16.9215 3.09125 16.0272C2.48877 15.1329 2.16693 14.0791 2.16693 13.0008C2.16693 11.9225 2.48877 10.8687 3.09125 9.97437C3.69372 9.08006 4.54941 8.38593 5.54874 7.98084C6.54808 7.57576 7.64557 7.47816 8.70071 7.70054C9.75584 7.92293 10.7206 8.45518 11.4714 9.22914L16.3193 6.68656C16.273 6.44667 16.2498 6.20288 16.25 5.95856Z" fill="white" fill-opacity="0.4"/>
</g>
<defs>
<clipPath id="clip0_721_3166">
<rect width="26" height="26" fill="white"/>
</clipPath>
</defs>
</svg>
