<svg width="20" height="20" viewBox="0 0 20 20" fill="none" xmlns="http://www.w3.org/2000/svg">
  <path
    d="M15.5297 13.0585L16.9601 8.76742C18.2097 5.01876 18.8344 3.14443 17.8451 2.15504C16.8557 1.16565 14.9813 1.79043 11.2327 3.03998L6.94158 4.47035C3.91605 5.47886 2.40329 5.98311 1.9734 6.72257C1.56445 7.42602 1.56445 8.29482 1.9734 8.99828C2.40329 9.73773 3.91605 10.242 6.94158 11.2505C7.31653 11.3755 7.73836 11.2862 8.01913 11.0081L12.6072 6.46254C12.8653 6.20682 13.2818 6.20876 13.5376 6.46687C13.7933 6.72499 13.7913 7.14154 13.5332 7.39727L9.01928 11.8694C8.70982 12.176 8.61185 12.6453 8.74961 13.0585C9.75811 16.084 10.2624 17.5968 11.0018 18.0267C11.7053 18.4357 12.5741 18.4357 13.2775 18.0267C14.017 17.5968 14.5212 16.084 15.5297 13.0585Z"
    fill="white" />
</svg>