<svg width="16" height="16" viewBox="0 0 16 16" fill="none" xmlns="http://www.w3.org/2000/svg">
    <path fill-rule="evenodd" clip-rule="evenodd" d="M8 15.5C12.1421 15.5 15.5 12.1421 15.5 8C15.5 3.85786 12.1421 0.5 8 0.5C3.85786 0.5 0.5 3.85786 0.5 8C0.5 12.1421 3.85786 15.5 8 15.5ZM8.35225 5.35225C8.57192 5.13258 8.92808 5.13258 9.14775 5.35225L11.3977 7.60225C11.6174 7.82192 11.6174 8.17808 11.3977 8.39775L9.14775 10.6477C8.92808 10.8674 8.57192 10.8674 8.35225 10.6477C8.13258 10.4281 8.13258 10.0719 8.35225 9.85225L9.642 8.5625H5C4.68934 8.5625 4.4375 8.31066 4.4375 8C4.4375 7.68934 4.68934 7.4375 5 7.4375H9.642L8.35225 6.14775C8.13258 5.92808 8.13258 5.57192 8.35225 5.35225Z" fill="white"/>
    </svg>
    