<svg width="28" height="34" viewBox="0 0 28 34" fill="none" xmlns="http://www.w3.org/2000/svg">
    <g filter="url(#filter0_d_721_1831)">
    <path fill-rule="evenodd" clip-rule="evenodd" d="M21.2 17.2002H12.6V17.2004H6.80005V23.1934C6.80005 23.8606 6.80005 24.1943 6.94061 24.3989C7.06342 24.5777 7.25356 24.699 7.46747 24.7349C7.71231 24.7761 8.01483 24.6354 8.61986 24.354L11.1 23.2004L12.6124 23.9038C12.6278 24.1318 12.6626 24.2852 12.7406 24.3987C12.8634 24.5775 13.0535 24.6988 13.2674 24.7347C13.4477 24.765 13.6593 24.6967 13.9998 24.5463C14.3406 24.6969 14.5523 24.7652 14.7326 24.7349C14.9465 24.699 15.1367 24.5777 15.2595 24.3989C15.3375 24.2853 15.3722 24.1319 15.3877 23.9036L16.9 23.2002L19.3802 24.3538C19.9852 24.6352 20.2877 24.7759 20.5326 24.7347C20.7465 24.6988 20.9366 24.5775 21.0594 24.3987C21.2 24.1941 21.2 23.8604 21.2 23.1932V17.2002Z" fill="#D53951"/>
    </g>
    <mask id="mask0_721_1831" style="mask-type:alpha" maskUnits="userSpaceOnUse" x="6" y="17" width="16" height="8">
    <path fill-rule="evenodd" clip-rule="evenodd" d="M21.2 17.2002H12.6V17.2004H6.80005V23.946C6.80005 24.5309 7.40713 24.918 7.93743 24.6714L11.1 23.2004L12.6 23.898V23.9458C12.6 24.5307 13.2071 24.9178 13.7374 24.6712L13.9998 24.5491L14.2627 24.6714C14.793 24.918 15.4 24.5309 15.4 23.946V23.8978L16.9 23.2002L20.0626 24.6712C20.5929 24.9178 21.2 24.5307 21.2 23.9458V17.2002Z" fill="black"/>
    </mask>
    <g mask="url(#mask0_721_1831)">
    <g filter="url(#filter1_d_721_1831)">
    <path fill-rule="evenodd" clip-rule="evenodd" d="M21.2 17.2002H12.6V17.2004H6.80005V23.1934C6.80005 23.8606 6.80005 24.1943 6.94061 24.3989C7.06342 24.5777 7.25356 24.699 7.46747 24.7349C7.71231 24.7761 8.01483 24.6354 8.61986 24.354L11.1 23.2004L12.6124 23.9038C12.6278 24.1318 12.6626 24.2852 12.7406 24.3987C12.8634 24.5775 13.0535 24.6988 13.2674 24.7347C13.4477 24.765 13.6593 24.6967 13.9998 24.5463C14.3406 24.6969 14.5523 24.7652 14.7326 24.7349C14.9465 24.699 15.1367 24.5777 15.2595 24.3989C15.3375 24.2853 15.3722 24.1319 15.3877 23.9036L16.9 23.2002L19.3802 24.3538C19.9852 24.6352 20.2877 24.7759 20.5326 24.7347C20.7465 24.6988 20.9366 24.5775 21.0594 24.3987C21.2 24.1941 21.2 23.8604 21.2 23.1932V17.2002Z" fill="#D53951"/>
    </g>
    <g filter="url(#filter2_d_721_1831)">
    <path fill-rule="evenodd" clip-rule="evenodd" d="M21.2 17.2002H12.6V17.2004H6.80005V23.1934C6.80005 23.8606 6.80005 24.1943 6.94061 24.3989C7.06342 24.5777 7.25356 24.699 7.46747 24.7349C7.71231 24.7761 8.01483 24.6354 8.61986 24.354L11.1 23.2004L12.6124 23.9038C12.6278 24.1318 12.6626 24.2852 12.7406 24.3987C12.8634 24.5775 13.0535 24.6988 13.2674 24.7347C13.4477 24.765 13.6593 24.6967 13.9998 24.5463C14.3406 24.6969 14.5523 24.7652 14.7326 24.7349C14.9465 24.699 15.1367 24.5777 15.2595 24.3989C15.3375 24.2853 15.3722 24.1319 15.3877 23.9036L16.9 23.2002L19.3802 24.3538C19.9852 24.6352 20.2877 24.7759 20.5326 24.7347C20.7465 24.6988 20.9366 24.5775 21.0594 24.3987C21.2 24.1941 21.2 23.8604 21.2 23.1932V17.2002Z" fill="#D53951"/>
    </g>
    <path fill-rule="evenodd" clip-rule="evenodd" d="M21.2 17.2002H12.6V17.2004H6.80005V23.1934C6.80005 23.8606 6.80005 24.1943 6.94061 24.3989C7.06342 24.5777 7.25356 24.699 7.46747 24.7349C7.71231 24.7761 8.01483 24.6354 8.61986 24.354L11.1 23.2004L12.6124 23.9038C12.6278 24.1318 12.6626 24.2852 12.7406 24.3987C12.8634 24.5775 13.0535 24.6988 13.2674 24.7347C13.4477 24.765 13.6593 24.6967 13.9998 24.5463C14.3406 24.6969 14.5523 24.7652 14.7326 24.7349C14.9465 24.699 15.1367 24.5777 15.2595 24.3989C15.3375 24.2853 15.3722 24.1319 15.3877 23.9036L16.9 23.2002L19.3802 24.3538C19.9852 24.6352 20.2877 24.7759 20.5326 24.7347C20.7465 24.6988 20.9366 24.5775 21.0594 24.3987C21.2 24.1941 21.2 23.8604 21.2 23.1932V17.2002Z" fill="url(#paint0_linear_721_1831)" fill-opacity="0.3" style="mix-blend-mode:overlay"/>
    <path fill-rule="evenodd" clip-rule="evenodd" d="M21.2 17.2002H12.6V17.2004H6.80005V23.1934C6.80005 23.8606 6.80005 24.1943 6.94061 24.3989C7.06342 24.5777 7.25356 24.699 7.46747 24.7349C7.71231 24.7761 8.01483 24.6354 8.61986 24.354L11.1 23.2004L12.6124 23.9038C12.6278 24.1318 12.6626 24.2852 12.7406 24.3987C12.8634 24.5775 13.0535 24.6988 13.2674 24.7347C13.4477 24.765 13.6593 24.6967 13.9998 24.5463C14.3406 24.6969 14.5523 24.7652 14.7326 24.7349C14.9465 24.699 15.1367 24.5777 15.2595 24.3989C15.3375 24.2853 15.3722 24.1319 15.3877 23.9036L16.9 23.2002L19.3802 24.3538C19.9852 24.6352 20.2877 24.7759 20.5326 24.7347C20.7465 24.6988 20.9366 24.5775 21.0594 24.3987C21.2 24.1941 21.2 23.8604 21.2 23.1932V17.2002Z" fill="url(#paint1_radial_721_1831)" fill-opacity="0.6" style="mix-blend-mode:overlay"/>
    <g style="mix-blend-mode:soft-light">
    <mask id="path-6-inside-1_721_1831" fill="white">
    <path fill-rule="evenodd" clip-rule="evenodd" d="M21.2 17.2002H12.6V17.2004H6.80005V23.1934C6.80005 23.8606 6.80005 24.1943 6.94061 24.3989C7.06342 24.5777 7.25356 24.699 7.46747 24.7349C7.71231 24.7761 8.01483 24.6354 8.61986 24.354L11.1 23.2004L12.6124 23.9038C12.6278 24.1318 12.6626 24.2852 12.7406 24.3987C12.8634 24.5775 13.0535 24.6988 13.2674 24.7347C13.4477 24.765 13.6593 24.6967 13.9998 24.5463C14.3406 24.6969 14.5523 24.7652 14.7326 24.7349C14.9465 24.699 15.1367 24.5777 15.2595 24.3989C15.3375 24.2853 15.3722 24.1319 15.3877 23.9036L16.9 23.2002L19.3802 24.3538C19.9852 24.6352 20.2877 24.7759 20.5326 24.7347C20.7465 24.6988 20.9366 24.5775 21.0594 24.3987C21.2 24.1941 21.2 23.8604 21.2 23.1932V17.2002Z"/>
    </mask>
    <path d="M12.6 17.2002V17.1502C12.5724 17.1502 12.55 17.1726 12.55 17.2002H12.6ZM21.2 17.2002H21.25C21.25 17.1726 21.2276 17.1502 21.2 17.1502V17.2002ZM12.6 17.2004V17.2504C12.6276 17.2504 12.65 17.228 12.65 17.2004H12.6ZM6.80005 17.2004V17.1504C6.77243 17.1504 6.75005 17.1728 6.75005 17.2004H6.80005ZM6.94061 24.3989L6.8994 24.4272H6.8994L6.94061 24.3989ZM7.46747 24.7349L7.47576 24.6856L7.46747 24.7349ZM8.61986 24.354L8.59878 24.3086L8.61986 24.354ZM11.1 23.2004L11.1211 23.1551C11.1078 23.1488 11.0923 23.1488 11.079 23.1551L11.1 23.2004ZM12.6124 23.9038L12.6623 23.9004C12.661 23.8822 12.65 23.8662 12.6335 23.8585L12.6124 23.9038ZM12.7406 24.3987L12.6994 24.427L12.7406 24.3987ZM13.2674 24.7347L13.2591 24.784L13.2674 24.7347ZM13.9998 24.5463L14.02 24.5005C14.0071 24.4949 13.9925 24.4949 13.9796 24.5005L13.9998 24.5463ZM14.7326 24.7349L14.7243 24.6856L14.7326 24.7349ZM15.2595 24.3989L15.2183 24.3706V24.3706L15.2595 24.3989ZM15.3877 23.9036L15.3666 23.8583C15.3501 23.866 15.339 23.882 15.3378 23.9002L15.3877 23.9036ZM16.9 23.2002L16.9211 23.1549C16.9077 23.1486 16.8923 23.1486 16.8789 23.1549L16.9 23.2002ZM19.3802 24.3538L19.4013 24.3084L19.3802 24.3538ZM20.5326 24.7347L20.5243 24.6854L20.5326 24.7347ZM21.0594 24.3987L21.0182 24.3704L21.0594 24.3987ZM12.6 17.2502H21.2V17.1502H12.6V17.2502ZM12.65 17.2004V17.2002H12.55V17.2004H12.65ZM6.80005 17.2504H12.6V17.1504H6.80005V17.2504ZM6.85005 23.1934V17.2004H6.75005V23.1934H6.85005ZM6.98183 24.3706C6.91884 24.2789 6.88473 24.1547 6.86741 23.9651C6.8501 23.7755 6.85005 23.528 6.85005 23.1934H6.75005C6.75005 23.526 6.75 23.779 6.76783 23.9742C6.78565 24.1694 6.82182 24.3143 6.8994 24.4272L6.98183 24.3706ZM7.47576 24.6856C7.27522 24.6519 7.09696 24.5382 6.98183 24.3706L6.8994 24.4272C7.02988 24.6172 7.23191 24.7461 7.45918 24.7842L7.47576 24.6856ZM8.59878 24.3086C8.29538 24.4497 8.07093 24.5541 7.89172 24.6183C7.71252 24.6826 7.58547 24.7041 7.47576 24.6856L7.45918 24.7842C7.59431 24.807 7.74095 24.7786 7.92547 24.7125C8.10999 24.6463 8.33931 24.5396 8.64095 24.3993L8.59878 24.3086ZM11.079 23.1551L8.59878 24.3086L8.64095 24.3993L11.1211 23.2457L11.079 23.1551ZM12.6335 23.8585L11.1211 23.1551L11.079 23.2457L12.5913 23.9491L12.6335 23.8585ZM12.7818 24.3704C12.7117 24.2684 12.6776 24.1266 12.6623 23.9004L12.5625 23.9072C12.5781 24.1371 12.6134 24.3019 12.6994 24.427L12.7818 24.3704ZM13.2757 24.6854C13.0752 24.6517 12.8969 24.538 12.7818 24.3704L12.6994 24.427C12.8298 24.617 13.0319 24.7459 13.2591 24.784L13.2757 24.6854ZM13.9796 24.5005C13.637 24.6519 13.439 24.7129 13.2757 24.6854L13.2591 24.784C13.4564 24.8172 13.6815 24.7416 14.02 24.592L13.9796 24.5005ZM14.7243 24.6856C14.561 24.7131 14.3629 24.6521 14.02 24.5005L13.9796 24.592C14.3183 24.7417 14.5435 24.8174 14.7409 24.7842L14.7243 24.6856ZM15.2183 24.3706C15.1031 24.5382 14.9249 24.6519 14.7243 24.6856L14.7409 24.7842C14.9682 24.7461 15.1702 24.6172 15.3007 24.4272L15.2183 24.3706ZM15.3378 23.9002C15.3225 24.1266 15.2883 24.2686 15.2183 24.3706L15.3007 24.4272C15.3867 24.302 15.422 24.1371 15.4376 23.907L15.3378 23.9002ZM16.8789 23.1549L15.3666 23.8583L15.4088 23.9489L16.9211 23.2455L16.8789 23.1549ZM19.4013 24.3084L16.9211 23.1549L16.8789 23.2455L19.3591 24.3991L19.4013 24.3084ZM20.5243 24.6854C20.4146 24.7039 20.2875 24.6824 20.1083 24.6181C19.9291 24.5539 19.7047 24.4495 19.4013 24.3084L19.3591 24.3991C19.6607 24.5394 19.89 24.6461 20.0746 24.7123C20.2591 24.7784 20.4057 24.8068 20.5409 24.784L20.5243 24.6854ZM21.0182 24.3704C20.9031 24.538 20.7248 24.6517 20.5243 24.6854L20.5409 24.784C20.7681 24.7459 20.9702 24.617 21.1006 24.427L21.0182 24.3704ZM21.15 23.1932C21.15 23.5278 21.1499 23.7753 21.1326 23.9649C21.1153 24.1545 21.0812 24.2787 21.0182 24.3704L21.1006 24.427C21.1782 24.3141 21.2144 24.1692 21.2322 23.974C21.25 23.7788 21.25 23.5258 21.25 23.1932H21.15ZM21.15 17.2002V23.1932H21.25V17.2002H21.15Z" fill="url(#paint2_linear_721_1831)" mask="url(#path-6-inside-1_721_1831)"/>
    </g>
    </g>
    <g filter="url(#filter3_d_721_1831)">
    <path fill-rule="evenodd" clip-rule="evenodd" d="M9.69995 19.6001H18.2999V25.5931C18.2999 26.2603 18.2999 26.594 18.1594 26.7986C18.0366 26.9774 17.8464 27.0987 17.6325 27.1346C17.3877 27.1758 17.0852 27.0351 16.4801 26.7537L13.9999 25.6001L11.5198 26.7537C10.9147 27.0351 10.6122 27.1758 10.3674 27.1346C10.1535 27.0987 9.96332 26.9774 9.84052 26.7986C9.69995 26.594 9.69995 26.2603 9.69995 25.5931V19.6001Z" fill="#6239D5"/>
    </g>
    <mask id="mask1_721_1831" style="mask-type:luminance" maskUnits="userSpaceOnUse" x="9" y="19" width="10" height="9">
    <path fill-rule="evenodd" clip-rule="evenodd" d="M9.69995 19.6001H18.2999V26.3457C18.2999 26.9306 17.6929 27.3177 17.1626 27.0711L13.9999 25.6001L10.8373 27.0711C10.307 27.3177 9.69995 26.9306 9.69995 26.3457V19.6001Z" fill="white"/>
    </mask>
    <g mask="url(#mask1_721_1831)">
    <g filter="url(#filter4_d_721_1831)">
    <path fill-rule="evenodd" clip-rule="evenodd" d="M9.69995 19.6001H18.2999V25.5931C18.2999 26.2603 18.2999 26.594 18.1594 26.7986C18.0366 26.9774 17.8464 27.0987 17.6325 27.1346C17.3877 27.1758 17.0852 27.0351 16.4801 26.7537L13.9999 25.6001L11.5198 26.7537C10.9147 27.0351 10.6122 27.1758 10.3674 27.1346C10.1535 27.0987 9.96332 26.9774 9.84052 26.7986C9.69995 26.594 9.69995 26.2603 9.69995 25.5931V19.6001Z" fill="#6239D5"/>
    </g>
    <path fill-rule="evenodd" clip-rule="evenodd" d="M9.69995 19.6001H18.2999V27.6001L13.9999 25.6001L9.69995 27.6001V19.6001Z" fill="url(#paint3_linear_721_1831)" fill-opacity="0.3" style="mix-blend-mode:overlay"/>
    <path fill-rule="evenodd" clip-rule="evenodd" d="M9.69995 19.6001H18.2999V27.6001L13.9999 25.6001L9.69995 27.6001V19.6001Z" fill="url(#paint4_radial_721_1831)" fill-opacity="0.6" style="mix-blend-mode:overlay"/>
    <path fill-rule="evenodd" clip-rule="evenodd" d="M12 15.6001H16V26.8001H14H12V15.6001Z" fill="white"/>
    <g style="mix-blend-mode:soft-light">
    <path d="M9.72495 15.7001C9.72495 15.6587 9.75853 15.6251 9.79995 15.6251H18.1999C18.2414 15.6251 18.2749 15.6587 18.2749 15.7001V26.3457C18.2749 26.9123 17.6868 27.2874 17.1731 27.0484L14.0527 25.597C14.0192 25.5815 13.9807 25.5815 13.9472 25.597L10.8268 27.0484C10.3131 27.2874 9.72495 26.9123 9.72495 26.3457V15.7001Z" stroke="url(#paint5_linear_721_1831)" stroke-width="0.05" stroke-linecap="round" stroke-linejoin="round"/>
    </g>
    </g>
    <g filter="url(#filter5_dddd_721_1831)">
    <circle cx="14" cy="11.9999" r="9.6" fill="white"/>
    </g>
    <mask id="mask2_721_1831" style="mask-type:alpha" maskUnits="userSpaceOnUse" x="4" y="2" width="20" height="20">
    <circle cx="14" cy="11.9999" r="9.6" fill="white"/>
    </mask>
    <g mask="url(#mask2_721_1831)">
    <mask id="mask3_721_1831" style="mask-type:alpha" maskUnits="userSpaceOnUse" x="4" y="2" width="20" height="20">
    <circle cx="14" cy="11.9999" r="9.6" fill="white"/>
    </mask>
    <g mask="url(#mask3_721_1831)">
    <rect y="-2" width="28" height="28" fill="url(#paint6_linear_721_1831)"/>
    <rect y="-2" width="28" height="28" fill="url(#paint7_linear_721_1831)" fill-opacity="0.6" style="mix-blend-mode:overlay"/>
    <rect y="-2" width="28" height="28" fill="url(#paint8_radial_721_1831)" fill-opacity="0.6" style="mix-blend-mode:overlay"/>
    <rect y="-2" width="28" height="28" fill="black" fill-opacity="0.16" style="mix-blend-mode:overlay"/>
    <rect y="-2" width="28" height="28" fill="black" fill-opacity="0.12" style="mix-blend-mode:darken"/>
    </g>
    <g filter="url(#filter6_d_721_1831)">
    <mask id="mask4_721_1831" style="mask-type:alpha" maskUnits="userSpaceOnUse" x="4" y="2" width="20" height="20">
    <path fill-rule="evenodd" clip-rule="evenodd" d="M22.8 11.9999C22.8 16.86 18.8601 20.7999 14 20.7999C9.13992 20.7999 5.20002 16.86 5.20002 11.9999C5.20002 7.1398 9.13992 3.1999 14 3.1999C18.8601 3.1999 22.8 7.1398 22.8 11.9999ZM23.6 11.9999C23.6 17.3018 19.302 21.5999 14 21.5999C8.69809 21.5999 4.40002 17.3018 4.40002 11.9999C4.40002 6.69797 8.69809 2.3999 14 2.3999C19.302 2.3999 23.6 6.69797 23.6 11.9999ZM13.1175 4.49158C12.9939 4.57326 12.8695 4.69369 12.6205 4.93455C12.4886 5.06209 12.4227 5.12586 12.3537 5.17943C12.0595 5.40758 11.695 5.52602 11.3229 5.51435C11.2355 5.5116 11.1447 5.49876 10.9631 5.47307C10.6201 5.42455 10.4486 5.4003 10.3007 5.40682C9.6597 5.43507 9.0976 5.84346 8.87267 6.44431C8.82076 6.58298 8.79083 6.75359 8.73098 7.09479L8.73097 7.09481C8.69928 7.27547 8.68344 7.36581 8.65905 7.44974C8.55517 7.80722 8.32989 8.1173 8.022 8.32656C7.94971 8.37569 7.86869 8.41868 7.70665 8.50465C7.40064 8.66702 7.24764 8.7482 7.1318 8.84042C6.62985 9.24002 6.41515 9.90081 6.58635 10.5191C6.62586 10.6618 6.70193 10.8174 6.85406 11.1287C6.93462 11.2935 6.9749 11.3759 7.0045 11.4581C7.13059 11.8084 7.13059 12.1916 7.0045 12.5419C6.9749 12.6241 6.93463 12.7065 6.85408 12.8713L6.85406 12.8713C6.70193 13.1826 6.62586 13.3382 6.58635 13.4809C6.41515 14.0992 6.62985 14.76 7.13179 15.1596C7.24763 15.2518 7.40063 15.333 7.70663 15.4953L7.70665 15.4953C7.86869 15.5813 7.94971 15.6243 8.022 15.6734C8.32989 15.8827 8.55517 16.1928 8.65905 16.5503C8.68344 16.6342 8.69928 16.7245 8.73097 16.9052L8.73098 16.9052C8.79083 17.2464 8.82076 17.417 8.87267 17.5557C9.0976 18.1565 9.6597 18.5649 10.3007 18.5932C10.4486 18.5997 10.6201 18.5754 10.9631 18.5269C11.1447 18.5012 11.2355 18.4884 11.3229 18.4857C11.695 18.474 12.0595 18.5924 12.3537 18.8206C12.4227 18.8741 12.4886 18.9379 12.6205 19.0654L12.6205 19.0655C12.8695 19.3063 12.9939 19.4267 13.1175 19.5084C13.6526 19.8623 14.3474 19.8623 14.8825 19.5084C15.006 19.4267 15.1305 19.3063 15.3795 19.0655L15.3795 19.0655L15.3795 19.0654C15.5114 18.9379 15.5773 18.8741 15.6463 18.8206C15.9405 18.5924 16.305 18.474 16.6771 18.4857C16.7645 18.4884 16.8553 18.5012 17.0369 18.5269C17.3799 18.5754 17.5514 18.5997 17.6993 18.5932C18.3403 18.5649 18.9024 18.1565 19.1273 17.5557C19.1792 17.417 19.2092 17.2464 19.269 16.9052L19.269 16.9052C19.3007 16.7245 19.3166 16.6342 19.341 16.5503C19.4448 16.1928 19.6701 15.8827 19.978 15.6734C20.0503 15.6243 20.1313 15.5813 20.2933 15.4953L20.2934 15.4953C20.5994 15.333 20.7524 15.2518 20.8682 15.1596C21.3701 14.76 21.5849 14.0992 21.4137 13.4809C21.3741 13.3382 21.2981 13.1826 21.146 12.8714L21.1459 12.8713C21.0654 12.7065 21.0251 12.6241 20.9955 12.5419C20.8694 12.1916 20.8694 11.8084 20.9955 11.4581C21.0251 11.3759 21.0654 11.2935 21.1459 11.1287L21.1459 11.1287L21.146 11.1286C21.2981 10.8174 21.3741 10.6618 21.4137 10.5191C21.5849 9.90081 21.3701 9.24002 20.8682 8.84042C20.7524 8.7482 20.5994 8.66702 20.2933 8.50465C20.1313 8.41868 20.0503 8.37569 19.978 8.32656C19.6701 8.1173 19.4448 7.80722 19.341 7.44974C19.3166 7.36581 19.3007 7.27548 19.269 7.09482L19.269 7.09479C19.2092 6.75359 19.1792 6.58298 19.1273 6.44431C18.9024 5.84346 18.3403 5.43507 17.6993 5.40682C17.5514 5.4003 17.3799 5.42455 17.0369 5.47307C16.8553 5.49876 16.7645 5.5116 16.6771 5.51435C16.305 5.52602 15.9405 5.40758 15.6463 5.17943C15.5773 5.12586 15.5114 5.06209 15.3795 4.93456L15.3795 4.93455L15.3795 4.93454C15.1305 4.69368 15.0061 4.57326 14.8825 4.49158C14.3474 4.13769 13.6526 4.13769 13.1175 4.49158Z" fill="white"/>
    </mask>
    <g mask="url(#mask4_721_1831)">
    <rect y="-2" width="28" height="28" fill="url(#paint9_linear_721_1831)"/>
    <rect y="-2" width="28" height="28" fill="url(#paint10_linear_721_1831)" fill-opacity="0.6" style="mix-blend-mode:overlay"/>
    <rect y="-2" width="28" height="28" fill="url(#paint11_radial_721_1831)" fill-opacity="0.6" style="mix-blend-mode:overlay"/>
    <g style="mix-blend-mode:soft-light">
    <path fill-rule="evenodd" clip-rule="evenodd" d="M0 -2H16.8L11.4383 26H0V-2Z" fill="url(#paint12_linear_721_1831)" style="mix-blend-mode:lighten"/>
    </g>
    <g style="mix-blend-mode:plus-lighter" opacity="0.04">
    <path fill-rule="evenodd" clip-rule="evenodd" d="M14.0001 11.9997L16.8 0.799805H11.2L14.0001 11.9998L8.06036 2.10031L4.10056 6.06011L14.0001 11.9998L2.80005 9.1998V14.7998L14 11.9998L14 11.9998L14 11.9999L4.10057 17.9395L8.06036 21.8993L14 11.9999L11.2 23.1998H16.8L14.0001 11.9998L19.9397 21.8993L23.8995 17.9395L14.0001 11.9998L25.2001 14.7998V9.1998L14.0001 11.9998L14.0001 11.9997ZM14.0001 11.9997L23.8995 6.06009L19.9397 2.10029L14.0001 11.9997Z" fill="url(#paint13_radial_721_1831)"/>
    </g>
    <g style="mix-blend-mode:soft-light">
    <mask id="path-25-inside-2_721_1831" fill="white">
    <path fill-rule="evenodd" clip-rule="evenodd" d="M22.8 11.9999C22.8 16.86 18.8601 20.7999 14 20.7999C9.13992 20.7999 5.20002 16.86 5.20002 11.9999C5.20002 7.1398 9.13992 3.1999 14 3.1999C18.8601 3.1999 22.8 7.1398 22.8 11.9999ZM23.6 11.9999C23.6 17.3018 19.302 21.5999 14 21.5999C8.69809 21.5999 4.40002 17.3018 4.40002 11.9999C4.40002 6.69797 8.69809 2.3999 14 2.3999C19.302 2.3999 23.6 6.69797 23.6 11.9999ZM13.1175 4.49158C12.9939 4.57326 12.8695 4.69369 12.6205 4.93455C12.4886 5.06209 12.4227 5.12586 12.3537 5.17943C12.0595 5.40758 11.695 5.52602 11.3229 5.51435C11.2355 5.5116 11.1447 5.49876 10.9631 5.47307C10.6201 5.42455 10.4486 5.4003 10.3007 5.40682C9.6597 5.43507 9.0976 5.84346 8.87267 6.44431C8.82076 6.58298 8.79083 6.75359 8.73098 7.09479L8.73097 7.09481C8.69928 7.27547 8.68344 7.36581 8.65905 7.44974C8.55517 7.80722 8.32989 8.1173 8.022 8.32656C7.94971 8.37569 7.86869 8.41868 7.70665 8.50465C7.40064 8.66702 7.24764 8.7482 7.1318 8.84042C6.62985 9.24002 6.41515 9.90081 6.58635 10.5191C6.62586 10.6618 6.70193 10.8174 6.85406 11.1287C6.93462 11.2935 6.9749 11.3759 7.0045 11.4581C7.13059 11.8084 7.13059 12.1916 7.0045 12.5419C6.9749 12.6241 6.93463 12.7065 6.85408 12.8713L6.85406 12.8713C6.70193 13.1826 6.62586 13.3382 6.58635 13.4809C6.41515 14.0992 6.62985 14.76 7.13179 15.1596C7.24763 15.2518 7.40063 15.333 7.70663 15.4953L7.70665 15.4953C7.86869 15.5813 7.94971 15.6243 8.022 15.6734C8.32989 15.8827 8.55517 16.1928 8.65905 16.5503C8.68344 16.6342 8.69928 16.7245 8.73097 16.9052L8.73098 16.9052C8.79083 17.2464 8.82076 17.417 8.87267 17.5557C9.0976 18.1565 9.6597 18.5649 10.3007 18.5932C10.4486 18.5997 10.6201 18.5754 10.9631 18.5269C11.1447 18.5012 11.2355 18.4884 11.3229 18.4857C11.695 18.474 12.0595 18.5924 12.3537 18.8206C12.4227 18.8741 12.4886 18.9379 12.6205 19.0654L12.6205 19.0655C12.8695 19.3063 12.9939 19.4267 13.1175 19.5084C13.6526 19.8623 14.3474 19.8623 14.8825 19.5084C15.006 19.4267 15.1305 19.3063 15.3795 19.0655L15.3795 19.0655L15.3795 19.0654C15.5114 18.9379 15.5773 18.8741 15.6463 18.8206C15.9405 18.5924 16.305 18.474 16.6771 18.4857C16.7645 18.4884 16.8553 18.5012 17.0369 18.5269C17.3799 18.5754 17.5514 18.5997 17.6993 18.5932C18.3403 18.5649 18.9024 18.1565 19.1273 17.5557C19.1792 17.417 19.2092 17.2464 19.269 16.9052L19.269 16.9052C19.3007 16.7245 19.3166 16.6342 19.341 16.5503C19.4448 16.1928 19.6701 15.8827 19.978 15.6734C20.0503 15.6243 20.1313 15.5813 20.2933 15.4953L20.2934 15.4953C20.5994 15.333 20.7524 15.2518 20.8682 15.1596C21.3701 14.76 21.5849 14.0992 21.4137 13.4809C21.3741 13.3382 21.2981 13.1826 21.146 12.8714L21.1459 12.8713C21.0654 12.7065 21.0251 12.6241 20.9955 12.5419C20.8694 12.1916 20.8694 11.8084 20.9955 11.4581C21.0251 11.3759 21.0654 11.2935 21.1459 11.1287L21.1459 11.1287L21.146 11.1286C21.2981 10.8174 21.3741 10.6618 21.4137 10.5191C21.5849 9.90081 21.3701 9.24002 20.8682 8.84042C20.7524 8.7482 20.5994 8.66702 20.2933 8.50465C20.1313 8.41868 20.0503 8.37569 19.978 8.32656C19.6701 8.1173 19.4448 7.80722 19.341 7.44974C19.3166 7.36581 19.3007 7.27548 19.269 7.09482L19.269 7.09479C19.2092 6.75359 19.1792 6.58298 19.1273 6.44431C18.9024 5.84346 18.3403 5.43507 17.6993 5.40682C17.5514 5.4003 17.3799 5.42455 17.0369 5.47307C16.8553 5.49876 16.7645 5.5116 16.6771 5.51435C16.305 5.52602 15.9405 5.40758 15.6463 5.17943C15.5773 5.12586 15.5114 5.06209 15.3795 4.93456L15.3795 4.93455L15.3795 4.93454C15.1305 4.69368 15.0061 4.57326 14.8825 4.49158C14.3474 4.13769 13.6526 4.13769 13.1175 4.49158Z"/>
    </mask>
    <path d="M12.6205 4.93455L12.5857 4.89861H12.5857L12.6205 4.93455ZM13.1175 4.49158L13.0899 4.44988L13.1175 4.49158ZM12.3537 5.17943L12.3843 5.21894V5.21894L12.3537 5.17943ZM11.3229 5.51435L11.3213 5.56432L11.3229 5.51435ZM10.9631 5.47307L10.9701 5.42356L10.9631 5.47307ZM10.3007 5.40682L10.3029 5.45677L10.3007 5.40682ZM8.87267 6.44431L8.82584 6.42678L8.87267 6.44431ZM8.73098 7.09479L8.77984 7.10565L8.78023 7.10343L8.73098 7.09479ZM8.73097 7.09481L8.68212 7.08395L8.68173 7.08617L8.73097 7.09481ZM8.65905 7.44974L8.61104 7.43578L8.65905 7.44974ZM8.022 8.32656L8.0501 8.36792L8.022 8.32656ZM7.70665 8.50465L7.68322 8.46049L7.70665 8.50465ZM7.1318 8.84042L7.10065 8.8013L7.1318 8.84042ZM6.58635 10.5191L6.63454 10.5058L6.58635 10.5191ZM6.85406 11.1287L6.89898 11.1067L6.85406 11.1287ZM7.0045 11.4581L7.05155 11.4412L7.0045 11.4581ZM7.0045 12.5419L6.95746 12.525L7.0045 12.5419ZM6.85408 12.8713L6.80915 12.8494L6.80891 12.8499L6.85408 12.8713ZM6.85406 12.8713L6.89899 12.8933L6.89923 12.8928L6.85406 12.8713ZM6.58635 13.4809L6.53816 13.4675L6.58635 13.4809ZM7.13179 15.1596L7.16294 15.1205H7.16294L7.13179 15.1596ZM7.70663 15.4953L7.7304 15.4513L7.73006 15.4512L7.70663 15.4953ZM7.70665 15.4953L7.68288 15.5393L7.68322 15.5395L7.70665 15.4953ZM8.022 15.6734L8.0501 15.6321L8.022 15.6734ZM8.65905 16.5503L8.61104 16.5642L8.65905 16.5503ZM8.73097 16.9052L8.68171 16.9138L8.68195 16.915L8.73097 16.9052ZM8.73098 16.9052L8.78024 16.8966L8.78001 16.8954L8.73098 16.9052ZM8.87267 17.5557L8.82584 17.5732L8.87267 17.5557ZM10.3007 18.5932L10.2985 18.6431L10.3007 18.5932ZM10.9631 18.5269L10.9701 18.5764L10.9631 18.5269ZM11.3229 18.4857L11.3245 18.5356H11.3245L11.3229 18.4857ZM12.3537 18.8206L12.3843 18.7811L12.3537 18.8206ZM12.6205 19.0654L12.5855 19.1015L12.5892 19.1045L12.6205 19.0654ZM12.6205 19.0655L12.6554 19.0294L12.6517 19.0264L12.6205 19.0655ZM13.1175 19.5084L13.145 19.4667L13.1175 19.5084ZM14.8825 19.5084L14.855 19.4667L14.8825 19.5084ZM15.3795 19.0655L15.4143 19.1014L15.4148 19.1008L15.3795 19.0655ZM15.3795 19.0655L15.3481 19.0262L15.3442 19.0301L15.3795 19.0655ZM15.3795 19.0654L15.4109 19.1047L15.4143 19.1014L15.3795 19.0654ZM15.6463 18.8206L15.677 18.8601L15.6463 18.8206ZM16.6771 18.4857L16.6755 18.5356L16.6771 18.4857ZM17.0369 18.5269L17.0299 18.5764L17.0369 18.5269ZM17.6993 18.5932L17.7015 18.6431H17.7015L17.6993 18.5932ZM19.1273 17.5557L19.1742 17.5732L19.1273 17.5557ZM19.269 16.9052L19.2202 16.8944L19.2198 16.8966L19.269 16.9052ZM19.269 16.9052L19.3179 16.916L19.3183 16.9138L19.269 16.9052ZM19.341 16.5503L19.2929 16.5363L19.341 16.5503ZM19.978 15.6734L20.0061 15.7148L19.978 15.6734ZM20.2933 15.4953L20.3168 15.5395L20.3174 15.5392L20.2933 15.4953ZM20.2934 15.4953L20.27 15.4511L20.2693 15.4515L20.2934 15.4953ZM20.8682 15.1596L20.8371 15.1205L20.8682 15.1596ZM21.4137 13.4809L21.3655 13.4942L21.4137 13.4809ZM21.146 12.8714L21.1002 12.8917L21.101 12.8934L21.146 12.8714ZM21.1459 12.8713L21.1917 12.851L21.1909 12.8494L21.1459 12.8713ZM20.9955 12.5419L21.0425 12.525L20.9955 12.5419ZM20.9955 11.4581L21.0425 11.475L20.9955 11.4581ZM21.1459 11.1287L21.1012 11.1063L21.101 11.1067L21.1459 11.1287ZM21.1459 11.1287L21.1016 11.1055L21.1012 11.1063L21.1459 11.1287ZM21.146 11.1286L21.1903 11.1517L21.1909 11.1506L21.146 11.1286ZM21.4137 10.5191L21.3655 10.5058L21.4137 10.5191ZM20.8682 8.84042L20.8993 8.8013V8.8013L20.8682 8.84042ZM20.2933 8.50465L20.3168 8.46049L20.2933 8.50465ZM19.978 8.32656L19.9499 8.36792L19.978 8.32656ZM19.341 7.44974L19.389 7.43578V7.43578L19.341 7.44974ZM19.269 7.09482L19.3183 7.08618L19.318 7.08452L19.269 7.09482ZM19.269 7.09479L19.2197 7.10344L19.2201 7.10509L19.269 7.09479ZM19.1273 6.44431L19.1742 6.42678V6.42678L19.1273 6.44431ZM17.6993 5.40682L17.7015 5.35686L17.6993 5.40682ZM17.0369 5.47307L17.0299 5.42356L17.0369 5.47307ZM16.6771 5.51435L16.6787 5.56432L16.6771 5.51435ZM15.6463 5.17943L15.677 5.13992L15.6463 5.17943ZM15.3795 4.93456L15.4143 4.89858L15.4125 4.89693L15.3795 4.93456ZM15.3795 4.93455L15.3441 4.96998L15.3466 4.97218L15.3795 4.93455ZM15.3795 4.93454L15.4149 4.89918L15.4143 4.8986L15.3795 4.93454ZM14.8825 4.49158L14.855 4.53329L14.8825 4.49158ZM14 20.8499C18.8877 20.8499 22.85 16.8876 22.85 11.9999H22.75C22.75 16.8324 18.8325 20.7499 14 20.7499V20.8499ZM5.15002 11.9999C5.15002 16.8876 9.1123 20.8499 14 20.8499V20.7499C9.16753 20.7499 5.25002 16.8324 5.25002 11.9999H5.15002ZM14 3.1499C9.1123 3.1499 5.15002 7.11218 5.15002 11.9999H5.25002C5.25002 7.16741 9.16753 3.2499 14 3.2499V3.1499ZM22.85 11.9999C22.85 7.11218 18.8877 3.1499 14 3.1499V3.2499C18.8325 3.2499 22.75 7.16741 22.75 11.9999H22.85ZM14 21.6499C19.3296 21.6499 23.65 17.3295 23.65 11.9999H23.55C23.55 17.2742 19.2743 21.5499 14 21.5499V21.6499ZM4.35002 11.9999C4.35002 17.3295 8.67048 21.6499 14 21.6499V21.5499C8.72571 21.5499 4.45002 17.2742 4.45002 11.9999H4.35002ZM14 2.3499C8.67048 2.3499 4.35002 6.67035 4.35002 11.9999H4.45002C4.45002 6.72558 8.72571 2.4499 14 2.4499V2.3499ZM23.65 11.9999C23.65 6.67035 19.3296 2.3499 14 2.3499V2.4499C19.2743 2.4499 23.55 6.72558 23.55 11.9999H23.65ZM12.6552 4.97049C12.9058 4.72808 13.0264 4.61177 13.145 4.53329L13.0899 4.44988C12.9615 4.53474 12.8331 4.6593 12.5857 4.89861L12.6552 4.97049ZM12.3843 5.21894C12.456 5.1633 12.5242 5.09725 12.6552 4.97049L12.5857 4.89861C12.4531 5.02693 12.3894 5.08842 12.323 5.13992L12.3843 5.21894ZM11.3213 5.56432C11.705 5.57636 12.0809 5.45422 12.3843 5.21894L12.323 5.13992C12.038 5.36094 11.6849 5.47568 11.3245 5.46437L11.3213 5.56432ZM10.9561 5.52258C11.1366 5.54811 11.2306 5.56147 11.3213 5.56432L11.3245 5.46437C11.2405 5.46173 11.1528 5.44941 10.9701 5.42356L10.9561 5.52258ZM10.3029 5.45677C10.445 5.4505 10.6109 5.47375 10.9561 5.52258L10.9701 5.42356C10.6293 5.37536 10.4522 5.35009 10.2985 5.35686L10.3029 5.45677ZM8.91949 6.46184C9.1374 5.87976 9.68193 5.48413 10.3029 5.45677L10.2985 5.35686C9.63747 5.386 9.0578 5.80715 8.82584 6.42678L8.91949 6.46184ZM8.78023 7.10343C8.84046 6.76003 8.86961 6.59509 8.91949 6.46184L8.82584 6.42678C8.7719 6.57087 8.7412 6.74714 8.68173 7.08615L8.78023 7.10343ZM8.77978 7.10565L8.77979 7.10564L8.68217 7.08395L8.68217 7.08396L8.77978 7.10565ZM8.70706 7.46369C8.73239 7.37652 8.74872 7.28302 8.78022 7.10344L8.68173 7.08617C8.64984 7.26793 8.63448 7.35509 8.61104 7.43578L8.70706 7.46369ZM8.0501 8.36792C8.36762 8.15211 8.59994 7.83235 8.70706 7.46369L8.61104 7.43578C8.5104 7.7821 8.29216 8.08249 7.99389 8.28521L8.0501 8.36792ZM7.73009 8.54882C7.89114 8.46337 7.97503 8.41894 8.0501 8.36792L7.99389 8.28521C7.92439 8.33245 7.84624 8.37399 7.68322 8.46049L7.73009 8.54882ZM7.16294 8.87954C7.27425 8.79092 7.42211 8.71223 7.73009 8.54882L7.68322 8.46049C7.37917 8.6218 7.22102 8.70547 7.10065 8.8013L7.16294 8.87954ZM6.63454 10.5058C6.46869 9.90679 6.67668 9.26665 7.16294 8.87954L7.10065 8.8013C6.58303 9.21339 6.36161 9.89483 6.53816 10.5325L6.63454 10.5058ZM6.89898 11.1067C6.74587 10.7935 6.6725 10.6429 6.63454 10.5058L6.53816 10.5325C6.57922 10.6807 6.65798 10.8414 6.80914 11.1506L6.89898 11.1067ZM7.05155 11.4412C7.0208 11.3557 6.97905 11.2705 6.89898 11.1067L6.80914 11.1506C6.89019 11.3164 6.929 11.396 6.95746 11.475L7.05155 11.4412ZM7.05155 12.5588C7.18157 12.1976 7.18157 11.8024 7.05155 11.4412L6.95746 11.475C7.0796 11.8144 7.0796 12.1856 6.95746 12.525L7.05155 12.5588ZM6.899 12.8933C6.97906 12.7295 7.0208 12.6442 7.05155 12.5588L6.95746 12.525C6.929 12.604 6.89019 12.6836 6.80916 12.8494L6.899 12.8933ZM6.89923 12.8928L6.89924 12.8928L6.80891 12.8499L6.8089 12.8499L6.89923 12.8928ZM6.63454 13.4942C6.6725 13.3571 6.74587 13.2065 6.89898 12.8933L6.80914 12.8494C6.65798 13.1586 6.57922 13.3193 6.53816 13.4675L6.63454 13.4942ZM7.16294 15.1205C6.67668 14.7334 6.46869 14.0932 6.63454 13.4942L6.53816 13.4675C6.36161 14.1052 6.58303 14.7866 7.10065 15.1987L7.16294 15.1205ZM7.73006 15.4512C7.4221 15.2878 7.27425 15.2091 7.16294 15.1205L7.10065 15.1987C7.22102 15.2945 7.37916 15.3782 7.68319 15.5395L7.73006 15.4512ZM7.73043 15.4514L7.7304 15.4513L7.68285 15.5393L7.68288 15.5393L7.73043 15.4514ZM8.0501 15.6321C7.97503 15.5811 7.89114 15.5366 7.73009 15.4512L7.68322 15.5395C7.84624 15.626 7.9244 15.6676 7.99389 15.7148L8.0501 15.6321ZM8.70706 16.5363C8.59994 16.1677 8.36762 15.8479 8.0501 15.6321L7.99389 15.7148C8.29216 15.9175 8.5104 16.2179 8.61104 16.5642L8.70706 16.5363ZM8.78022 16.8966C8.74872 16.717 8.73239 16.6235 8.70706 16.5363L8.61104 16.5642C8.63448 16.6449 8.64984 16.7321 8.68173 16.9138L8.78022 16.8966ZM8.78001 16.8954L8.78 16.8954L8.68195 16.915L8.68195 16.915L8.78001 16.8954ZM8.91949 17.5382C8.86961 17.4049 8.84046 17.24 8.78023 16.8966L8.68173 16.9138C8.7412 17.2529 8.7719 17.4291 8.82584 17.5732L8.91949 17.5382ZM10.3029 18.5432C9.68193 18.5159 9.1374 18.1202 8.91949 17.5382L8.82584 17.5732C9.0578 18.1929 9.63747 18.614 10.2985 18.6431L10.3029 18.5432ZM10.9561 18.4774C10.6109 18.5263 10.445 18.5495 10.3029 18.5432L10.2985 18.6431C10.4522 18.6499 10.6293 18.6246 10.9701 18.5764L10.9561 18.4774ZM11.3213 18.4357C11.2306 18.4385 11.1366 18.4519 10.9561 18.4774L10.9701 18.5764C11.1528 18.5506 11.2405 18.5383 11.3245 18.5356L11.3213 18.4357ZM12.3843 18.7811C12.0809 18.5458 11.705 18.4236 11.3213 18.4357L11.3245 18.5356C11.6849 18.5243 12.038 18.6391 12.323 18.8601L12.3843 18.7811ZM12.6552 19.0295C12.5242 18.9027 12.456 18.8367 12.3843 18.7811L12.323 18.8601C12.3894 18.9116 12.4531 18.9731 12.5857 19.1014L12.6552 19.0295ZM12.6517 19.0264L12.6517 19.0264L12.5892 19.1045L12.5892 19.1045L12.6517 19.0264ZM13.145 19.4667C13.0264 19.3882 12.9058 19.2719 12.6552 19.0295L12.5857 19.1014C12.8331 19.3407 12.9615 19.4653 13.0899 19.5501L13.145 19.4667ZM14.855 19.4667C14.3365 19.8095 13.6635 19.8095 13.145 19.4667L13.0899 19.5501C13.6417 19.9151 14.3583 19.9151 14.9101 19.5501L14.855 19.4667ZM15.3447 19.0295C15.0942 19.2719 14.9736 19.3882 14.855 19.4667L14.9101 19.5501C15.0385 19.4653 15.1669 19.3407 15.4143 19.1014L15.3447 19.0295ZM15.3442 19.0301L15.3441 19.0301L15.4148 19.1008L15.4149 19.1008L15.3442 19.0301ZM15.3483 19.0264L15.3483 19.0264L15.4108 19.1045L15.4108 19.1045L15.3483 19.0264ZM15.6157 18.7811C15.544 18.8367 15.4758 18.9027 15.3448 19.0295L15.4143 19.1014C15.5469 18.9731 15.6106 18.9116 15.677 18.8601L15.6157 18.7811ZM16.6787 18.4357C16.295 18.4236 15.9191 18.5458 15.6157 18.7811L15.677 18.8601C15.962 18.6391 16.3151 18.5243 16.6755 18.5356L16.6787 18.4357ZM17.0439 18.4774C16.8634 18.4519 16.7694 18.4385 16.6787 18.4357L16.6755 18.5356C16.7595 18.5383 16.8472 18.5506 17.0299 18.5764L17.0439 18.4774ZM17.6971 18.5432C17.555 18.5495 17.3891 18.5263 17.0439 18.4774L17.0299 18.5764C17.3707 18.6246 17.5478 18.6499 17.7015 18.6431L17.6971 18.5432ZM19.0805 17.5382C18.8626 18.1202 18.3181 18.5159 17.6971 18.5432L17.7015 18.6431C18.3625 18.614 18.9422 18.1929 19.1742 17.5732L19.0805 17.5382ZM19.2198 16.8966C19.1595 17.24 19.1304 17.4049 19.0805 17.5382L19.1742 17.5732C19.2281 17.4291 19.2588 17.2529 19.3183 16.9138L19.2198 16.8966ZM19.2202 16.8943L19.2202 16.8944L19.3178 16.9161L19.3178 16.916L19.2202 16.8943ZM19.2929 16.5363C19.2676 16.6235 19.2513 16.717 19.2198 16.8965L19.3183 16.9138C19.3502 16.7321 19.3655 16.6449 19.389 16.5642L19.2929 16.5363ZM19.9499 15.6321C19.6324 15.8479 19.4001 16.1677 19.2929 16.5363L19.389 16.5642C19.4896 16.2179 19.7078 15.9175 20.0061 15.7148L19.9499 15.6321ZM20.2699 15.4512C20.1089 15.5366 20.025 15.5811 19.9499 15.6321L20.0061 15.7148C20.0756 15.6676 20.1538 15.626 20.3168 15.5395L20.2699 15.4512ZM20.2693 15.4515L20.2693 15.4515L20.3174 15.5392L20.3175 15.5391L20.2693 15.4515ZM20.8371 15.1205C20.7258 15.2091 20.5779 15.2878 20.27 15.4511L20.3168 15.5395C20.6208 15.3782 20.779 15.2945 20.8993 15.1987L20.8371 15.1205ZM21.3655 13.4942C21.5313 14.0932 21.3233 14.7334 20.8371 15.1205L20.8993 15.1987C21.417 14.7866 21.6384 14.1052 21.4618 13.4675L21.3655 13.4942ZM21.101 12.8934C21.2541 13.2065 21.3275 13.3571 21.3655 13.4942L21.4618 13.4675C21.4208 13.3193 21.342 13.1586 21.1909 12.8494L21.101 12.8934ZM21.1002 12.8916L21.1003 12.8917L21.1917 12.8511L21.1916 12.851L21.1002 12.8916ZM20.9485 12.5588C20.9792 12.6443 21.0209 12.7295 21.101 12.8933L21.1909 12.8494C21.1098 12.6836 21.071 12.604 21.0425 12.525L20.9485 12.5588ZM20.9485 11.4412C20.8184 11.8024 20.8184 12.1976 20.9485 12.5588L21.0425 12.525C20.9204 12.1856 20.9204 11.8144 21.0425 11.475L20.9485 11.4412ZM21.101 11.1067C21.0209 11.2705 20.9792 11.3558 20.9485 11.4412L21.0425 11.475C21.071 11.396 21.1098 11.3164 21.1908 11.1506L21.101 11.1067ZM21.1012 11.1063L21.1012 11.1063L21.1906 11.151L21.1907 11.151L21.1012 11.1063ZM21.1016 11.1055L21.1016 11.1055L21.1903 11.1518L21.1903 11.1517L21.1016 11.1055ZM21.3655 10.5058C21.3275 10.6429 21.2541 10.7935 21.1011 11.1066L21.1909 11.1506C21.342 10.8414 21.4208 10.6807 21.4618 10.5325L21.3655 10.5058ZM20.8371 8.87954C21.3233 9.26665 21.5313 9.90679 21.3655 10.5058L21.4618 10.5325C21.6384 9.89483 21.417 9.21339 20.8993 8.8013L20.8371 8.87954ZM20.2699 8.54882C20.5779 8.71223 20.7258 8.79092 20.8371 8.87954L20.8993 8.8013C20.779 8.70547 20.6208 8.62181 20.3168 8.46049L20.2699 8.54882ZM19.9499 8.36792C20.025 8.41894 20.1089 8.46337 20.2699 8.54882L20.3168 8.46049C20.1538 8.37399 20.0756 8.33245 20.0061 8.28521L19.9499 8.36792ZM19.2929 7.46369C19.4001 7.83235 19.6324 8.15211 19.9499 8.36792L20.0061 8.28521C19.7078 8.08249 19.4896 7.7821 19.389 7.43578L19.2929 7.46369ZM19.2198 7.10346C19.2513 7.28302 19.2676 7.37652 19.2929 7.46369L19.389 7.43578C19.3655 7.3551 19.3502 7.26793 19.3183 7.08618L19.2198 7.10346ZM19.2201 7.10509L19.2201 7.10512L19.318 7.08452L19.318 7.08449L19.2201 7.10509ZM19.0805 6.46184C19.1304 6.59509 19.1595 6.76003 19.2198 7.10343L19.3183 7.08615C19.2588 6.74714 19.2281 6.57087 19.1742 6.42678L19.0805 6.46184ZM17.6971 5.45677C18.3181 5.48413 18.8626 5.87976 19.0805 6.46184L19.1742 6.42678C18.9422 5.80715 18.3625 5.386 17.7015 5.35686L17.6971 5.45677ZM17.0439 5.52258C17.3891 5.47375 17.555 5.4505 17.6971 5.45677L17.7015 5.35686C17.5478 5.35009 17.3707 5.37536 17.0299 5.42356L17.0439 5.52258ZM16.6787 5.56432C16.7694 5.56147 16.8634 5.54811 17.0439 5.52258L17.0299 5.42356C16.8472 5.44941 16.7595 5.46173 16.6755 5.46437L16.6787 5.56432ZM15.6157 5.21894C15.9191 5.45422 16.295 5.57636 16.6787 5.56432L16.6755 5.46437C16.3151 5.47568 15.962 5.36094 15.677 5.13992L15.6157 5.21894ZM15.3448 4.9705C15.4758 5.09726 15.544 5.16331 15.6157 5.21894L15.677 5.13992C15.6106 5.08842 15.5469 5.02693 15.4143 4.89862L15.3448 4.9705ZM15.3466 4.97218L15.3466 4.97219L15.4125 4.89693L15.4124 4.89692L15.3466 4.97218ZM15.3442 4.96989L15.3442 4.96991L15.4149 4.89919L15.4149 4.89918L15.3442 4.96989ZM14.855 4.53329C14.9736 4.61177 15.0942 4.72807 15.3447 4.97048L15.4143 4.8986C15.1669 4.6593 15.0385 4.53474 14.9101 4.44988L14.855 4.53329ZM13.145 4.53329C13.6635 4.19046 14.3365 4.19046 14.855 4.53329L14.9101 4.44988C14.3583 4.08493 13.6417 4.08493 13.0899 4.44988L13.145 4.53329Z" fill="url(#paint14_linear_721_1831)" mask="url(#path-25-inside-2_721_1831)"/>
    </g>
    </g>
    </g>
    </g>
    <g filter="url(#filter7_bi_721_1831)">
    <path d="M15.3004 13.4866H13.6316V9.981L12.4444 10.4066C12.3324 10.3394 12.2241 10.2461 12.1196 10.1266C12.0225 10.0071 11.974 9.84286 11.974 9.6338C11.974 9.23806 12.2129 8.9618 12.6908 8.80499L14.0236 8.3122H14.3932C14.6694 8.3122 14.8897 8.39433 15.054 8.55859C15.2182 8.72286 15.3004 8.94313 15.3004 9.21939V13.4866ZM13.6316 12.2434H15.3004V15.189C15.2257 15.2114 15.1212 15.2338 14.9868 15.2562C14.8524 15.2786 14.7068 15.2898 14.55 15.2898C14.2364 15.2898 14.0049 15.2338 13.8556 15.1218C13.7062 15.0098 13.6316 14.8045 13.6316 14.5058V12.2434Z" fill="black" fill-opacity="0.24" style="mix-blend-mode:color-burn"/>
    <path d="M15.3004 13.4866H13.6316V9.981L12.4444 10.4066C12.3324 10.3394 12.2241 10.2461 12.1196 10.1266C12.0225 10.0071 11.974 9.84286 11.974 9.6338C11.974 9.23806 12.2129 8.9618 12.6908 8.80499L14.0236 8.3122H14.3932C14.6694 8.3122 14.8897 8.39433 15.054 8.55859C15.2182 8.72286 15.3004 8.94313 15.3004 9.21939V13.4866ZM13.6316 12.2434H15.3004V15.189C15.2257 15.2114 15.1212 15.2338 14.9868 15.2562C14.8524 15.2786 14.7068 15.2898 14.55 15.2898C14.2364 15.2898 14.0049 15.2338 13.8556 15.1218C13.7062 15.0098 13.6316 14.8045 13.6316 14.5058V12.2434Z" fill="black" fill-opacity="0.32" style="mix-blend-mode:darken"/>
    </g>
    <g filter="url(#filter8_bi_721_1831)">
    <path d="M12.6062 16.1321L12.6042 15.8881H13.2222C13.2302 15.9001 13.2375 15.9168 13.2442 15.9381C13.2509 15.9594 13.2542 15.9821 13.2542 16.0061C13.2542 16.0488 13.2442 16.0808 13.2242 16.1021C13.2055 16.1221 13.1795 16.1321 13.1462 16.1321H12.6062ZM12.8882 15.8881L12.8902 16.1321H12.2722C12.2629 16.1201 12.2549 16.1034 12.2482 16.0821C12.2429 16.0608 12.2402 16.0381 12.2402 16.0141C12.2402 15.9701 12.2495 15.9381 12.2682 15.9181C12.2882 15.8981 12.3142 15.8881 12.3462 15.8881H12.8882ZM12.5902 16.0781H12.8962V17.0981C12.8829 17.1021 12.8629 17.1054 12.8362 17.1081C12.8095 17.1121 12.7822 17.1141 12.7542 17.1141C12.6942 17.1141 12.6515 17.1034 12.6262 17.0821C12.6022 17.0608 12.5902 17.0234 12.5902 16.9701V16.0781ZM14.5632 16.4921C14.5632 16.6308 14.5358 16.7481 14.4812 16.8441C14.4278 16.9388 14.3538 17.0108 14.2592 17.0601C14.1658 17.1094 14.0598 17.1341 13.9412 17.1341C13.8225 17.1341 13.7165 17.1094 13.6232 17.0601C13.5298 17.0108 13.4565 16.9388 13.4032 16.8441C13.3498 16.7481 13.3232 16.6308 13.3232 16.4921C13.3232 16.3534 13.3505 16.2368 13.4052 16.1421C13.4598 16.0461 13.5338 15.9741 13.6272 15.9261C13.7205 15.8768 13.8252 15.8521 13.9412 15.8521C14.0585 15.8521 14.1638 15.8768 14.2572 15.9261C14.3518 15.9741 14.4265 16.0461 14.4812 16.1421C14.5358 16.2368 14.5632 16.3534 14.5632 16.4921ZM14.2492 16.4921C14.2492 16.3641 14.2212 16.2668 14.1652 16.2001C14.1105 16.1334 14.0358 16.1001 13.9412 16.1001C13.8505 16.1001 13.7772 16.1334 13.7212 16.2001C13.6652 16.2654 13.6372 16.3628 13.6372 16.4921C13.6372 16.6228 13.6645 16.7214 13.7192 16.7881C13.7752 16.8534 13.8498 16.8861 13.9432 16.8861C14.0365 16.8861 14.1105 16.8534 14.1652 16.7881C14.2212 16.7214 14.2492 16.6228 14.2492 16.4921ZM15.0876 16.4701H15.2076C15.2756 16.4701 15.3289 16.4541 15.3676 16.4221C15.4076 16.3901 15.4276 16.3441 15.4276 16.2841C15.4276 16.2241 15.4089 16.1788 15.3716 16.1481C15.3342 16.1174 15.2802 16.1021 15.2096 16.1021C15.1856 16.1021 15.1636 16.1028 15.1436 16.1041C15.1249 16.1054 15.1062 16.1074 15.0876 16.1101V16.4701ZM15.2276 16.7101H14.7856V15.9941C14.7856 15.9688 14.7929 15.9488 14.8076 15.9341C14.8222 15.9194 14.8416 15.9081 14.8656 15.9001C14.9096 15.8841 14.9622 15.8728 15.0236 15.8661C15.0849 15.8594 15.1402 15.8561 15.1896 15.8561C15.3696 15.8561 15.5056 15.8948 15.5976 15.9721C15.6909 16.0481 15.7376 16.1521 15.7376 16.2841C15.7376 16.3694 15.7169 16.4441 15.6756 16.5081C15.6356 16.5721 15.5776 16.6221 15.5016 16.6581C15.4256 16.6928 15.3342 16.7101 15.2276 16.7101ZM14.7856 16.5761H15.0896V17.0981C15.0776 17.1021 15.0582 17.1054 15.0316 17.1081C15.0049 17.1121 14.9776 17.1141 14.9496 17.1141C14.8896 17.1141 14.8469 17.1034 14.8216 17.0821C14.7976 17.0608 14.7856 17.0234 14.7856 16.9701V16.5761Z" fill="black" fill-opacity="0.24" style="mix-blend-mode:color-burn"/>
    <path d="M12.6062 16.1321L12.6042 15.8881H13.2222C13.2302 15.9001 13.2375 15.9168 13.2442 15.9381C13.2509 15.9594 13.2542 15.9821 13.2542 16.0061C13.2542 16.0488 13.2442 16.0808 13.2242 16.1021C13.2055 16.1221 13.1795 16.1321 13.1462 16.1321H12.6062ZM12.8882 15.8881L12.8902 16.1321H12.2722C12.2629 16.1201 12.2549 16.1034 12.2482 16.0821C12.2429 16.0608 12.2402 16.0381 12.2402 16.0141C12.2402 15.9701 12.2495 15.9381 12.2682 15.9181C12.2882 15.8981 12.3142 15.8881 12.3462 15.8881H12.8882ZM12.5902 16.0781H12.8962V17.0981C12.8829 17.1021 12.8629 17.1054 12.8362 17.1081C12.8095 17.1121 12.7822 17.1141 12.7542 17.1141C12.6942 17.1141 12.6515 17.1034 12.6262 17.0821C12.6022 17.0608 12.5902 17.0234 12.5902 16.9701V16.0781ZM14.5632 16.4921C14.5632 16.6308 14.5358 16.7481 14.4812 16.8441C14.4278 16.9388 14.3538 17.0108 14.2592 17.0601C14.1658 17.1094 14.0598 17.1341 13.9412 17.1341C13.8225 17.1341 13.7165 17.1094 13.6232 17.0601C13.5298 17.0108 13.4565 16.9388 13.4032 16.8441C13.3498 16.7481 13.3232 16.6308 13.3232 16.4921C13.3232 16.3534 13.3505 16.2368 13.4052 16.1421C13.4598 16.0461 13.5338 15.9741 13.6272 15.9261C13.7205 15.8768 13.8252 15.8521 13.9412 15.8521C14.0585 15.8521 14.1638 15.8768 14.2572 15.9261C14.3518 15.9741 14.4265 16.0461 14.4812 16.1421C14.5358 16.2368 14.5632 16.3534 14.5632 16.4921ZM14.2492 16.4921C14.2492 16.3641 14.2212 16.2668 14.1652 16.2001C14.1105 16.1334 14.0358 16.1001 13.9412 16.1001C13.8505 16.1001 13.7772 16.1334 13.7212 16.2001C13.6652 16.2654 13.6372 16.3628 13.6372 16.4921C13.6372 16.6228 13.6645 16.7214 13.7192 16.7881C13.7752 16.8534 13.8498 16.8861 13.9432 16.8861C14.0365 16.8861 14.1105 16.8534 14.1652 16.7881C14.2212 16.7214 14.2492 16.6228 14.2492 16.4921ZM15.0876 16.4701H15.2076C15.2756 16.4701 15.3289 16.4541 15.3676 16.4221C15.4076 16.3901 15.4276 16.3441 15.4276 16.2841C15.4276 16.2241 15.4089 16.1788 15.3716 16.1481C15.3342 16.1174 15.2802 16.1021 15.2096 16.1021C15.1856 16.1021 15.1636 16.1028 15.1436 16.1041C15.1249 16.1054 15.1062 16.1074 15.0876 16.1101V16.4701ZM15.2276 16.7101H14.7856V15.9941C14.7856 15.9688 14.7929 15.9488 14.8076 15.9341C14.8222 15.9194 14.8416 15.9081 14.8656 15.9001C14.9096 15.8841 14.9622 15.8728 15.0236 15.8661C15.0849 15.8594 15.1402 15.8561 15.1896 15.8561C15.3696 15.8561 15.5056 15.8948 15.5976 15.9721C15.6909 16.0481 15.7376 16.1521 15.7376 16.2841C15.7376 16.3694 15.7169 16.4441 15.6756 16.5081C15.6356 16.5721 15.5776 16.6221 15.5016 16.6581C15.4256 16.6928 15.3342 16.7101 15.2276 16.7101ZM14.7856 16.5761H15.0896V17.0981C15.0776 17.1021 15.0582 17.1054 15.0316 17.1081C15.0049 17.1121 14.9776 17.1141 14.9496 17.1141C14.8896 17.1141 14.8469 17.1034 14.8216 17.0821C14.7976 17.0608 14.7856 17.0234 14.7856 16.9701V16.5761Z" fill="black" fill-opacity="0.32" style="mix-blend-mode:darken"/>
    </g>
    <defs>
    <filter id="filter0_d_721_1831" x="5.80005" y="17.2002" width="16.3999" height="9.54199" filterUnits="userSpaceOnUse" color-interpolation-filters="sRGB">
    <feFlood flood-opacity="0" result="BackgroundImageFix"/>
    <feColorMatrix in="SourceAlpha" type="matrix" values="0 0 0 0 0 0 0 0 0 0 0 0 0 0 0 0 0 0 127 0" result="hardAlpha"/>
    <feOffset dy="1"/>
    <feGaussianBlur stdDeviation="0.5"/>
    <feColorMatrix type="matrix" values="0 0 0 0 0 0 0 0 0 0 0 0 0 0 0 0 0 0 0.2 0"/>
    <feBlend mode="normal" in2="BackgroundImageFix" result="effect1_dropShadow_721_1831"/>
    <feBlend mode="normal" in="SourceGraphic" in2="effect1_dropShadow_721_1831" result="shape"/>
    </filter>
    <filter id="filter1_d_721_1831" x="5.80005" y="17.2002" width="16.3999" height="9.54199" filterUnits="userSpaceOnUse" color-interpolation-filters="sRGB">
    <feFlood flood-opacity="0" result="BackgroundImageFix"/>
    <feColorMatrix in="SourceAlpha" type="matrix" values="0 0 0 0 0 0 0 0 0 0 0 0 0 0 0 0 0 0 127 0" result="hardAlpha"/>
    <feOffset dy="1"/>
    <feGaussianBlur stdDeviation="0.5"/>
    <feColorMatrix type="matrix" values="0 0 0 0 0 0 0 0 0 0 0 0 0 0 0 0 0 0 0.2 0"/>
    <feBlend mode="normal" in2="BackgroundImageFix" result="effect1_dropShadow_721_1831"/>
    <feBlend mode="normal" in="SourceGraphic" in2="effect1_dropShadow_721_1831" result="shape"/>
    </filter>
    <filter id="filter2_d_721_1831" x="5.80005" y="17.2002" width="16.3999" height="9.54199" filterUnits="userSpaceOnUse" color-interpolation-filters="sRGB">
    <feFlood flood-opacity="0" result="BackgroundImageFix"/>
    <feColorMatrix in="SourceAlpha" type="matrix" values="0 0 0 0 0 0 0 0 0 0 0 0 0 0 0 0 0 0 127 0" result="hardAlpha"/>
    <feOffset dy="1"/>
    <feGaussianBlur stdDeviation="0.5"/>
    <feColorMatrix type="matrix" values="0 0 0 0 0 0 0 0 0 0 0 0 0 0 0 0 0 0 0.2 0"/>
    <feBlend mode="normal" in2="BackgroundImageFix" result="effect1_dropShadow_721_1831"/>
    <feBlend mode="normal" in="SourceGraphic" in2="effect1_dropShadow_721_1831" result="shape"/>
    </filter>
    <filter id="filter3_d_721_1831" x="8.69995" y="19.6001" width="10.6" height="9.5415" filterUnits="userSpaceOnUse" color-interpolation-filters="sRGB">
    <feFlood flood-opacity="0" result="BackgroundImageFix"/>
    <feColorMatrix in="SourceAlpha" type="matrix" values="0 0 0 0 0 0 0 0 0 0 0 0 0 0 0 0 0 0 127 0" result="hardAlpha"/>
    <feOffset dy="1"/>
    <feGaussianBlur stdDeviation="0.5"/>
    <feColorMatrix type="matrix" values="0 0 0 0 0 0 0 0 0 0 0 0 0 0 0 0 0 0 0.2 0"/>
    <feBlend mode="normal" in2="BackgroundImageFix" result="effect1_dropShadow_721_1831"/>
    <feBlend mode="normal" in="SourceGraphic" in2="effect1_dropShadow_721_1831" result="shape"/>
    </filter>
    <filter id="filter4_d_721_1831" x="8.69995" y="19.6001" width="10.6" height="9.5415" filterUnits="userSpaceOnUse" color-interpolation-filters="sRGB">
    <feFlood flood-opacity="0" result="BackgroundImageFix"/>
    <feColorMatrix in="SourceAlpha" type="matrix" values="0 0 0 0 0 0 0 0 0 0 0 0 0 0 0 0 0 0 127 0" result="hardAlpha"/>
    <feOffset dy="1"/>
    <feGaussianBlur stdDeviation="0.5"/>
    <feColorMatrix type="matrix" values="0 0 0 0 0 0 0 0 0 0 0 0 0 0 0 0 0 0 0.2 0"/>
    <feBlend mode="normal" in2="BackgroundImageFix" result="effect1_dropShadow_721_1831"/>
    <feBlend mode="normal" in="SourceGraphic" in2="effect1_dropShadow_721_1831" result="shape"/>
    </filter>
    <filter id="filter5_dddd_721_1831" x="1.10002" y="1.7999" width="25.8" height="31.3002" filterUnits="userSpaceOnUse" color-interpolation-filters="sRGB">
    <feFlood flood-opacity="0" result="BackgroundImageFix"/>
    <feColorMatrix in="SourceAlpha" type="matrix" values="0 0 0 0 0 0 0 0 0 0 0 0 0 0 0 0 0 0 127 0" result="hardAlpha"/>
    <feOffset dy="0.5"/>
    <feGaussianBlur stdDeviation="0.55"/>
    <feColorMatrix type="matrix" values="0 0 0 0 0 0 0 0 0 0 0 0 0 0 0 0 0 0 0.24 0"/>
    <feBlend mode="normal" in2="BackgroundImageFix" result="effect1_dropShadow_721_1831"/>
    <feColorMatrix in="SourceAlpha" type="matrix" values="0 0 0 0 0 0 0 0 0 0 0 0 0 0 0 0 0 0 127 0" result="hardAlpha"/>
    <feOffset dy="2.1"/>
    <feGaussianBlur stdDeviation="1.05"/>
    <feColorMatrix type="matrix" values="0 0 0 0 0 0 0 0 0 0 0 0 0 0 0 0 0 0 0.21 0"/>
    <feBlend mode="normal" in2="effect1_dropShadow_721_1831" result="effect2_dropShadow_721_1831"/>
    <feColorMatrix in="SourceAlpha" type="matrix" values="0 0 0 0 0 0 0 0 0 0 0 0 0 0 0 0 0 0 127 0" result="hardAlpha"/>
    <feOffset dy="4.6"/>
    <feGaussianBlur stdDeviation="1.4"/>
    <feColorMatrix type="matrix" values="0 0 0 0 0 0 0 0 0 0 0 0 0 0 0 0 0 0 0.12 0"/>
    <feBlend mode="normal" in2="effect2_dropShadow_721_1831" result="effect3_dropShadow_721_1831"/>
    <feColorMatrix in="SourceAlpha" type="matrix" values="0 0 0 0 0 0 0 0 0 0 0 0 0 0 0 0 0 0 127 0" result="hardAlpha"/>
    <feOffset dy="8.2"/>
    <feGaussianBlur stdDeviation="1.65"/>
    <feColorMatrix type="matrix" values="0 0 0 0 0 0 0 0 0 0 0 0 0 0 0 0 0 0 0.04 0"/>
    <feBlend mode="normal" in2="effect3_dropShadow_721_1831" result="effect4_dropShadow_721_1831"/>
    <feBlend mode="normal" in="SourceGraphic" in2="effect4_dropShadow_721_1831" result="shape"/>
    </filter>
    <filter id="filter6_d_721_1831" x="3.60002" y="1.7999" width="20.8" height="20.8002" filterUnits="userSpaceOnUse" color-interpolation-filters="sRGB">
    <feFlood flood-opacity="0" result="BackgroundImageFix"/>
    <feColorMatrix in="SourceAlpha" type="matrix" values="0 0 0 0 0 0 0 0 0 0 0 0 0 0 0 0 0 0 127 0" result="hardAlpha"/>
    <feOffset dy="0.2"/>
    <feGaussianBlur stdDeviation="0.4"/>
    <feColorMatrix type="matrix" values="0 0 0 0 0 0 0 0 0 0 0 0 0 0 0 0 0 0 0.16 0"/>
    <feBlend mode="color-burn" in2="BackgroundImageFix" result="effect1_dropShadow_721_1831"/>
    <feBlend mode="normal" in="SourceGraphic" in2="effect1_dropShadow_721_1831" result="shape"/>
    </filter>
    <filter id="filter7_bi_721_1831" x="7.174" y="3.51201" width="12.9264" height="16.578" filterUnits="userSpaceOnUse" color-interpolation-filters="sRGB">
    <feFlood flood-opacity="0" result="BackgroundImageFix"/>
    <feGaussianBlur in="BackgroundImageFix" stdDeviation="2.4"/>
    <feComposite in2="SourceAlpha" operator="in" result="effect1_backgroundBlur_721_1831"/>
    <feBlend mode="normal" in="SourceGraphic" in2="effect1_backgroundBlur_721_1831" result="shape"/>
    <feColorMatrix in="SourceAlpha" type="matrix" values="0 0 0 0 0 0 0 0 0 0 0 0 0 0 0 0 0 0 127 0" result="hardAlpha"/>
    <feOffset dy="0.1"/>
    <feGaussianBlur stdDeviation="0.1"/>
    <feComposite in2="hardAlpha" operator="arithmetic" k2="-1" k3="1"/>
    <feColorMatrix type="matrix" values="0 0 0 0 0 0 0 0 0 0 0 0 0 0 0 0 0 0 0.24 0"/>
    <feBlend mode="darken" in2="shape" result="effect2_innerShadow_721_1831"/>
    </filter>
    <filter id="filter8_bi_721_1831" x="7.44023" y="11.0521" width="13.0973" height="10.8822" filterUnits="userSpaceOnUse" color-interpolation-filters="sRGB">
    <feFlood flood-opacity="0" result="BackgroundImageFix"/>
    <feGaussianBlur in="BackgroundImageFix" stdDeviation="2.4"/>
    <feComposite in2="SourceAlpha" operator="in" result="effect1_backgroundBlur_721_1831"/>
    <feBlend mode="normal" in="SourceGraphic" in2="effect1_backgroundBlur_721_1831" result="shape"/>
    <feColorMatrix in="SourceAlpha" type="matrix" values="0 0 0 0 0 0 0 0 0 0 0 0 0 0 0 0 0 0 127 0" result="hardAlpha"/>
    <feOffset dy="0.1"/>
    <feGaussianBlur stdDeviation="0.1"/>
    <feComposite in2="hardAlpha" operator="arithmetic" k2="-1" k3="1"/>
    <feColorMatrix type="matrix" values="0 0 0 0 0 0 0 0 0 0 0 0 0 0 0 0 0 0 0.24 0"/>
    <feBlend mode="darken" in2="shape" result="effect2_innerShadow_721_1831"/>
    </filter>
    <linearGradient id="paint0_linear_721_1831" x1="14.0001" y1="13.4294" x2="14.0001" y2="24.7418" gradientUnits="userSpaceOnUse">
    <stop stop-color="white"/>
    <stop offset="1" stop-color="white" stop-opacity="0"/>
    </linearGradient>
    <radialGradient id="paint1_radial_721_1831" cx="0" cy="0" r="1" gradientUnits="userSpaceOnUse" gradientTransform="translate(14.0001 17.2002) rotate(90) scale(7.54159 13.3954)">
    <stop stop-color="white"/>
    <stop offset="1" stop-color="white" stop-opacity="0"/>
    </radialGradient>
    <linearGradient id="paint2_linear_721_1831" x1="14" y1="17.2002" x2="14" y2="24.7418" gradientUnits="userSpaceOnUse">
    <stop stop-color="white"/>
    <stop offset="1" stop-color="#999999"/>
    </linearGradient>
    <linearGradient id="paint3_linear_721_1831" x1="14" y1="15.6001" x2="13.9999" y2="27.6001" gradientUnits="userSpaceOnUse">
    <stop stop-color="white"/>
    <stop offset="1" stop-color="white" stop-opacity="0"/>
    </linearGradient>
    <radialGradient id="paint4_radial_721_1831" cx="0" cy="0" r="1" gradientUnits="userSpaceOnUse" gradientTransform="translate(14 19.6001) rotate(90) scale(8)">
    <stop stop-color="white"/>
    <stop offset="1" stop-color="white" stop-opacity="0"/>
    </radialGradient>
    <linearGradient id="paint5_linear_721_1831" x1="14" y1="15.6001" x2="14" y2="27.6001" gradientUnits="userSpaceOnUse">
    <stop stop-color="white"/>
    <stop offset="1" stop-color="#999999"/>
    </linearGradient>
    <linearGradient id="paint6_linear_721_1831" x1="14" y1="-2" x2="14" y2="26" gradientUnits="userSpaceOnUse">
    <stop stop-color="#FFC759"/>
    <stop offset="1" stop-color="#EFA006"/>
    </linearGradient>
    <linearGradient id="paint7_linear_721_1831" x1="14" y1="1.17284" x2="14" y2="22.682" gradientUnits="userSpaceOnUse">
    <stop stop-color="white"/>
    <stop offset="1" stop-color="white" stop-opacity="0"/>
    </linearGradient>
    <radialGradient id="paint8_radial_721_1831" cx="0" cy="0" r="1" gradientUnits="userSpaceOnUse" gradientTransform="translate(14 7.351) rotate(90) scale(14.1869 10.7639)">
    <stop stop-color="white"/>
    <stop offset="1" stop-color="white" stop-opacity="0"/>
    </radialGradient>
    <linearGradient id="paint9_linear_721_1831" x1="14" y1="-2" x2="14" y2="26" gradientUnits="userSpaceOnUse">
    <stop stop-color="#FFC759"/>
    <stop offset="1" stop-color="#EFA006"/>
    </linearGradient>
    <linearGradient id="paint10_linear_721_1831" x1="14" y1="1.17284" x2="14" y2="22.682" gradientUnits="userSpaceOnUse">
    <stop stop-color="white"/>
    <stop offset="1" stop-color="white" stop-opacity="0"/>
    </linearGradient>
    <radialGradient id="paint11_radial_721_1831" cx="0" cy="0" r="1" gradientUnits="userSpaceOnUse" gradientTransform="translate(14 7.351) rotate(90) scale(14.1869 10.7639)">
    <stop stop-color="white"/>
    <stop offset="1" stop-color="white" stop-opacity="0"/>
    </radialGradient>
    <linearGradient id="paint12_linear_721_1831" x1="0" y1="-2" x2="0" y2="26" gradientUnits="userSpaceOnUse">
    <stop offset="0.135095" stop-color="white"/>
    <stop offset="0.877908" stop-color="white" stop-opacity="0.01"/>
    </linearGradient>
    <radialGradient id="paint13_radial_721_1831" cx="0" cy="0" r="1" gradientUnits="userSpaceOnUse" gradientTransform="translate(14 11.9998) rotate(90) scale(11.2)">
    <stop offset="0.075" stop-color="white" stop-opacity="0"/>
    <stop offset="0.34" stop-color="white"/>
    <stop offset="0.705" stop-color="white" stop-opacity="0.01"/>
    </radialGradient>
    <linearGradient id="paint14_linear_721_1831" x1="14" y1="2.3999" x2="14" y2="21.5999" gradientUnits="userSpaceOnUse">
    <stop stop-color="white"/>
    <stop offset="1" stop-color="#999999"/>
    </linearGradient>
    </defs>
    </svg>
    