<svg width="28" height="34" viewBox="0 0 28 34" fill="none" xmlns="http://www.w3.org/2000/svg">
    <g filter="url(#filter0_d_721_1855)">
    <path fill-rule="evenodd" clip-rule="evenodd" d="M9.69995 19.2002H18.2999V25.1932C18.2999 25.8604 18.2999 26.1941 18.1594 26.3987C18.0366 26.5775 17.8464 26.6988 17.6325 26.7347C17.3877 26.7759 17.0852 26.6352 16.4801 26.3538L13.9999 25.2002L11.5198 26.3538C10.9147 26.6352 10.6122 26.7759 10.3674 26.7347C10.1535 26.6988 9.96332 26.5775 9.84052 26.3987C9.69995 26.1941 9.69995 25.8604 9.69995 25.1932V19.2002Z" fill="#D53951"/>
    </g>
    <mask id="mask0_721_1855" style="mask-type:luminance" maskUnits="userSpaceOnUse" x="9" y="19" width="10" height="8">
    <path fill-rule="evenodd" clip-rule="evenodd" d="M9.69995 19.2002H18.2999V25.9458C18.2999 26.5307 17.6929 26.9178 17.1626 26.6712L13.9999 25.2002L10.8373 26.6712C10.307 26.9178 9.69995 26.5307 9.69995 25.9458V19.2002Z" fill="white"/>
    </mask>
    <g mask="url(#mask0_721_1855)">
    <g filter="url(#filter1_d_721_1855)">
    <path fill-rule="evenodd" clip-rule="evenodd" d="M9.69995 19.2002H18.2999V25.1932C18.2999 25.8604 18.2999 26.1941 18.1594 26.3987C18.0366 26.5775 17.8464 26.6988 17.6325 26.7347C17.3877 26.7759 17.0852 26.6352 16.4801 26.3538L13.9999 25.2002L11.5198 26.3538C10.9147 26.6352 10.6122 26.7759 10.3674 26.7347C10.1535 26.6988 9.96332 26.5775 9.84052 26.3987C9.69995 26.1941 9.69995 25.8604 9.69995 25.1932V19.2002Z" fill="#D53951"/>
    </g>
    <path fill-rule="evenodd" clip-rule="evenodd" d="M9.69995 19.2002H18.2999V27.2002L13.9999 25.2002L9.69995 27.2002V19.2002Z" fill="url(#paint0_linear_721_1855)" fill-opacity="0.3" style="mix-blend-mode:overlay"/>
    <path fill-rule="evenodd" clip-rule="evenodd" d="M9.69995 19.2002H18.2999V27.2002L13.9999 25.2002L9.69995 27.2002V19.2002Z" fill="url(#paint1_radial_721_1855)" fill-opacity="0.6" style="mix-blend-mode:overlay"/>
    <path fill-rule="evenodd" clip-rule="evenodd" d="M12 15.2002H16V26.4002H14H12V15.2002Z" fill="white"/>
    <g style="mix-blend-mode:soft-light">
    <path d="M9.79995 15.2252H18.1999C18.2414 15.2252 18.2749 15.2588 18.2749 15.3002V25.9458C18.2749 26.5124 17.6868 26.8875 17.1731 26.6485L14.0527 25.1971C14.0192 25.1816 13.9807 25.1816 13.9472 25.1971L10.8268 26.6485C10.3131 26.8875 9.72495 26.5124 9.72495 25.9458V15.3002C9.72495 15.2588 9.75853 15.2252 9.79995 15.2252Z" stroke="url(#paint2_linear_721_1855)" stroke-width="0.05" stroke-linecap="round" stroke-linejoin="round"/>
    </g>
    </g>
    <g filter="url(#filter2_dddd_721_1855)">
    <circle cx="14" cy="11.9999" r="9.6" fill="white"/>
    </g>
    <mask id="mask1_721_1855" style="mask-type:alpha" maskUnits="userSpaceOnUse" x="4" y="2" width="20" height="20">
    <circle cx="14" cy="11.9999" r="9.6" fill="white"/>
    </mask>
    <g mask="url(#mask1_721_1855)">
    <mask id="mask2_721_1855" style="mask-type:alpha" maskUnits="userSpaceOnUse" x="4" y="2" width="20" height="20">
    <circle cx="14" cy="11.9999" r="9.6" fill="white"/>
    </mask>
    <g mask="url(#mask2_721_1855)">
    <rect y="-2" width="28" height="28" fill="#D67D56"/>
    <rect y="-2" width="28" height="28" fill="url(#paint3_linear_721_1855)" fill-opacity="0.6" style="mix-blend-mode:overlay"/>
    <rect y="-2" width="28" height="28" fill="url(#paint4_radial_721_1855)" fill-opacity="0.6" style="mix-blend-mode:overlay"/>
    <rect y="-2" width="28" height="28" fill="black" fill-opacity="0.16" style="mix-blend-mode:overlay"/>
    <rect y="-2" width="28" height="28" fill="black" fill-opacity="0.12" style="mix-blend-mode:darken"/>
    </g>
    <g filter="url(#filter3_d_721_1855)">
    <mask id="mask3_721_1855" style="mask-type:alpha" maskUnits="userSpaceOnUse" x="4" y="2" width="20" height="20">
    <path fill-rule="evenodd" clip-rule="evenodd" d="M22.8 11.9999C22.8 16.86 18.8601 20.7999 14 20.7999C9.13992 20.7999 5.20002 16.86 5.20002 11.9999C5.20002 7.1398 9.13992 3.1999 14 3.1999C18.8601 3.1999 22.8 7.1398 22.8 11.9999ZM23.6 11.9999C23.6 17.3018 19.302 21.5999 14 21.5999C8.69809 21.5999 4.40002 17.3018 4.40002 11.9999C4.40002 6.69797 8.69809 2.3999 14 2.3999C19.302 2.3999 23.6 6.69797 23.6 11.9999ZM12.6205 4.93454L12.6205 4.93455L12.6205 4.93457C12.4886 5.0621 12.4227 5.12586 12.3537 5.17943C12.0595 5.40758 11.695 5.52602 11.3229 5.51435C11.2355 5.5116 11.1447 5.49876 10.9631 5.47307L10.9631 5.47307C10.6201 5.42455 10.4486 5.4003 10.3007 5.40682C9.6597 5.43507 9.0976 5.84346 8.87267 6.44431C8.82076 6.58298 8.79083 6.75359 8.73098 7.09479C8.69929 7.27547 8.68344 7.36581 8.65905 7.44974C8.55517 7.80722 8.32989 8.1173 8.022 8.32656C7.94972 8.37569 7.8687 8.41868 7.70668 8.50464L7.70665 8.50465C7.40064 8.66702 7.24764 8.7482 7.1318 8.84042C6.62985 9.24002 6.41515 9.90081 6.58635 10.5191C6.62586 10.6618 6.70193 10.8174 6.85406 11.1287C6.93462 11.2935 6.9749 11.3759 7.0045 11.4581C7.13059 11.8084 7.13059 12.1916 7.0045 12.5419C6.9749 12.6241 6.93462 12.7065 6.85406 12.8713L6.85405 12.8714C6.70192 13.1826 6.62586 13.3382 6.58635 13.4809C6.41515 14.0992 6.62985 14.76 7.1318 15.1596C7.24764 15.2518 7.40064 15.333 7.70665 15.4953C7.86869 15.5813 7.94971 15.6243 8.022 15.6734C8.32989 15.8827 8.55517 16.1928 8.65905 16.5503C8.68344 16.6342 8.69929 16.7245 8.73098 16.9052C8.79083 17.2464 8.82076 17.417 8.87267 17.5557C9.0976 18.1565 9.6597 18.5649 10.3007 18.5932C10.4486 18.5997 10.6201 18.5754 10.9631 18.5269L10.9632 18.5269C11.1448 18.5012 11.2355 18.4884 11.3229 18.4857C11.695 18.474 12.0595 18.5924 12.3537 18.8206C12.4227 18.8741 12.4886 18.9379 12.6205 19.0655C12.8695 19.3063 12.9939 19.4267 13.1175 19.5084C13.6526 19.8623 14.3474 19.8623 14.8825 19.5084C15.0061 19.4267 15.1305 19.3063 15.3795 19.0655C15.5114 18.9379 15.5773 18.8741 15.6463 18.8206C15.9405 18.5924 16.305 18.474 16.6771 18.4857C16.7645 18.4884 16.8553 18.5012 17.0368 18.5269L17.0369 18.5269C17.3799 18.5754 17.5514 18.5997 17.6993 18.5932C18.3403 18.5649 18.9024 18.1565 19.1273 17.5557C19.1792 17.417 19.2092 17.2464 19.269 16.9052L19.269 16.9052C19.3007 16.7245 19.3166 16.6342 19.341 16.5503C19.4448 16.1928 19.6701 15.8827 19.978 15.6734C20.0503 15.6243 20.1313 15.5813 20.2933 15.4953L20.2934 15.4953C20.5994 15.333 20.7524 15.2518 20.8682 15.1596C21.3701 14.76 21.5849 14.0992 21.4137 13.4809C21.3741 13.3382 21.2981 13.1826 21.1459 12.8713C21.0654 12.7065 21.0251 12.6241 20.9955 12.5419C20.8694 12.1916 20.8694 11.8084 20.9955 11.4581C21.0251 11.3759 21.0654 11.2935 21.1459 11.1287L21.146 11.1286C21.2981 10.8174 21.3741 10.6618 21.4137 10.5191C21.5849 9.90081 21.3701 9.24002 20.8682 8.84042C20.7524 8.7482 20.5994 8.66702 20.2934 8.50468L20.2933 8.50465C20.1313 8.41868 20.0503 8.37569 19.978 8.32656C19.6701 8.1173 19.4448 7.80722 19.341 7.44974C19.3166 7.36581 19.3007 7.27547 19.269 7.09479L19.269 7.09478C19.2092 6.75358 19.1792 6.58298 19.1273 6.44431C18.9024 5.84346 18.3403 5.43507 17.6993 5.40682C17.5514 5.4003 17.3799 5.42455 17.0369 5.47307L17.0369 5.47307C16.8553 5.49876 16.7645 5.5116 16.6771 5.51435C16.305 5.52602 15.9405 5.40758 15.6463 5.17943C15.5773 5.12586 15.5114 5.06209 15.3795 4.93455C15.1305 4.69369 15.0061 4.57326 14.8826 4.49159C14.3474 4.13769 13.6526 4.13769 13.1175 4.49159C12.9939 4.57326 12.8695 4.69368 12.6205 4.93454Z" fill="white"/>
    </mask>
    <g mask="url(#mask3_721_1855)">
    <rect y="-2" width="28" height="28" fill="#D67D56"/>
    <rect y="-2" width="28" height="28" fill="url(#paint5_linear_721_1855)" fill-opacity="0.6" style="mix-blend-mode:overlay"/>
    <rect y="-2" width="28" height="28" fill="url(#paint6_radial_721_1855)" fill-opacity="0.6" style="mix-blend-mode:overlay"/>
    <g style="mix-blend-mode:soft-light">
    <path fill-rule="evenodd" clip-rule="evenodd" d="M0 -2H16.8L11.4383 26H0V-2Z" fill="url(#paint7_linear_721_1855)" style="mix-blend-mode:lighten"/>
    </g>
    <g style="mix-blend-mode:plus-lighter" opacity="0.04">
    <path fill-rule="evenodd" clip-rule="evenodd" d="M14.0001 11.9997L16.8 0.799805H11.2L14 11.9998L8.06036 2.10031L4.10056 6.06011L14 11.9998L2.80005 9.19981V14.7998L14 11.9998L14 11.9998L14 11.9999L4.10057 17.9395L8.06036 21.8993L14 11.9999L11.2 23.1998H16.8L14.0001 11.9998L19.9397 21.8993L23.8995 17.9395L14.0001 11.9998L25.2001 14.7998V9.19981L14.0001 11.9997ZM14.0001 11.9997L23.8995 6.06009L19.9397 2.10029L14.0001 11.9997Z" fill="url(#paint8_radial_721_1855)"/>
    </g>
    <g style="mix-blend-mode:soft-light">
    <mask id="path-18-inside-1_721_1855" fill="white">
    <path fill-rule="evenodd" clip-rule="evenodd" d="M22.8 11.9999C22.8 16.86 18.8601 20.7999 14 20.7999C9.13992 20.7999 5.20002 16.86 5.20002 11.9999C5.20002 7.1398 9.13992 3.1999 14 3.1999C18.8601 3.1999 22.8 7.1398 22.8 11.9999ZM23.6 11.9999C23.6 17.3018 19.302 21.5999 14 21.5999C8.69809 21.5999 4.40002 17.3018 4.40002 11.9999C4.40002 6.69797 8.69809 2.3999 14 2.3999C19.302 2.3999 23.6 6.69797 23.6 11.9999ZM12.6205 4.93454L12.6205 4.93455L12.6205 4.93457C12.4886 5.0621 12.4227 5.12586 12.3537 5.17943C12.0595 5.40758 11.695 5.52602 11.3229 5.51435C11.2355 5.5116 11.1447 5.49876 10.9631 5.47307L10.9631 5.47307C10.6201 5.42455 10.4486 5.4003 10.3007 5.40682C9.6597 5.43507 9.0976 5.84346 8.87267 6.44431C8.82076 6.58298 8.79083 6.75359 8.73098 7.09479C8.69929 7.27547 8.68344 7.36581 8.65905 7.44974C8.55517 7.80722 8.32989 8.1173 8.022 8.32656C7.94972 8.37569 7.8687 8.41868 7.70668 8.50464L7.70665 8.50465C7.40064 8.66702 7.24764 8.7482 7.1318 8.84042C6.62985 9.24002 6.41515 9.90081 6.58635 10.5191C6.62586 10.6618 6.70193 10.8174 6.85406 11.1287C6.93462 11.2935 6.9749 11.3759 7.0045 11.4581C7.13059 11.8084 7.13059 12.1916 7.0045 12.5419C6.9749 12.6241 6.93462 12.7065 6.85406 12.8713L6.85405 12.8714C6.70192 13.1826 6.62586 13.3382 6.58635 13.4809C6.41515 14.0992 6.62985 14.76 7.1318 15.1596C7.24764 15.2518 7.40064 15.333 7.70665 15.4953C7.86869 15.5813 7.94971 15.6243 8.022 15.6734C8.32989 15.8827 8.55517 16.1928 8.65905 16.5503C8.68344 16.6342 8.69929 16.7245 8.73098 16.9052C8.79083 17.2464 8.82076 17.417 8.87267 17.5557C9.0976 18.1565 9.6597 18.5649 10.3007 18.5932C10.4486 18.5997 10.6201 18.5754 10.9631 18.5269L10.9632 18.5269C11.1448 18.5012 11.2355 18.4884 11.3229 18.4857C11.695 18.474 12.0595 18.5924 12.3537 18.8206C12.4227 18.8741 12.4886 18.9379 12.6205 19.0655C12.8695 19.3063 12.9939 19.4267 13.1175 19.5084C13.6526 19.8623 14.3474 19.8623 14.8825 19.5084C15.0061 19.4267 15.1305 19.3063 15.3795 19.0655C15.5114 18.9379 15.5773 18.8741 15.6463 18.8206C15.9405 18.5924 16.305 18.474 16.6771 18.4857C16.7645 18.4884 16.8553 18.5012 17.0368 18.5269L17.0369 18.5269C17.3799 18.5754 17.5514 18.5997 17.6993 18.5932C18.3403 18.5649 18.9024 18.1565 19.1273 17.5557C19.1792 17.417 19.2092 17.2464 19.269 16.9052L19.269 16.9052C19.3007 16.7245 19.3166 16.6342 19.341 16.5503C19.4448 16.1928 19.6701 15.8827 19.978 15.6734C20.0503 15.6243 20.1313 15.5813 20.2933 15.4953L20.2934 15.4953C20.5994 15.333 20.7524 15.2518 20.8682 15.1596C21.3701 14.76 21.5849 14.0992 21.4137 13.4809C21.3741 13.3382 21.2981 13.1826 21.1459 12.8713C21.0654 12.7065 21.0251 12.6241 20.9955 12.5419C20.8694 12.1916 20.8694 11.8084 20.9955 11.4581C21.0251 11.3759 21.0654 11.2935 21.1459 11.1287L21.146 11.1286C21.2981 10.8174 21.3741 10.6618 21.4137 10.5191C21.5849 9.90081 21.3701 9.24002 20.8682 8.84042C20.7524 8.7482 20.5994 8.66702 20.2934 8.50468L20.2933 8.50465C20.1313 8.41868 20.0503 8.37569 19.978 8.32656C19.6701 8.1173 19.4448 7.80722 19.341 7.44974C19.3166 7.36581 19.3007 7.27547 19.269 7.09479L19.269 7.09478C19.2092 6.75358 19.1792 6.58298 19.1273 6.44431C18.9024 5.84346 18.3403 5.43507 17.6993 5.40682C17.5514 5.4003 17.3799 5.42455 17.0369 5.47307L17.0369 5.47307C16.8553 5.49876 16.7645 5.5116 16.6771 5.51435C16.305 5.52602 15.9405 5.40758 15.6463 5.17943C15.5773 5.12586 15.5114 5.06209 15.3795 4.93455C15.1305 4.69369 15.0061 4.57326 14.8826 4.49159C14.3474 4.13769 13.6526 4.13769 13.1175 4.49159C12.9939 4.57326 12.8695 4.69368 12.6205 4.93454Z"/>
    </mask>
    <path d="M12.6205 4.93454L12.5857 4.8986L12.5851 4.89918L12.6205 4.93454ZM12.6205 4.93457L12.6552 4.97051L12.6558 4.96993L12.6205 4.93457ZM12.3537 5.17943L12.323 5.13992L12.323 5.13992L12.3537 5.17943ZM11.3229 5.51435L11.3245 5.46437L11.3245 5.46437L11.3229 5.51435ZM10.9631 5.47307L10.9701 5.42352L10.9681 5.42332L10.9631 5.47307ZM10.9631 5.47307L10.9561 5.52262L10.9581 5.52282L10.9631 5.47307ZM10.3007 5.40682L10.2985 5.35686L10.2985 5.35686L10.3007 5.40682ZM8.87267 6.44431L8.82584 6.42678L8.82584 6.42678L8.87267 6.44431ZM8.73098 7.09479L8.68173 7.08615L8.68173 7.08615L8.73098 7.09479ZM8.65905 7.44974L8.61104 7.43578L8.61104 7.43578L8.65905 7.44974ZM8.022 8.32656L8.0501 8.36792L8.0501 8.36792L8.022 8.32656ZM7.70668 8.50464L7.73007 8.54883L7.73011 8.54881L7.70668 8.50464ZM7.70665 8.50465L7.68326 8.46046L7.68322 8.46049L7.70665 8.50465ZM7.1318 8.84042L7.16294 8.87954L7.16294 8.87954L7.1318 8.84042ZM6.58635 10.5191L6.63454 10.5058L6.63454 10.5058L6.58635 10.5191ZM6.85406 11.1287L6.80914 11.1506L6.80914 11.1506L6.85406 11.1287ZM7.0045 11.4581L7.05155 11.4412L7.05155 11.4412L7.0045 11.4581ZM7.0045 12.5419L7.05155 12.5588L7.05155 12.5588L7.0045 12.5419ZM6.85406 12.8713L6.80914 12.8494L6.80879 12.8501L6.85406 12.8713ZM6.85405 12.8714L6.89898 12.8933L6.89933 12.8926L6.85405 12.8714ZM6.58635 13.4809L6.63454 13.4942L6.63454 13.4942L6.58635 13.4809ZM7.1318 15.1596L7.10065 15.1987L7.10065 15.1987L7.1318 15.1596ZM7.70665 15.4953L7.73009 15.4512L7.73009 15.4512L7.70665 15.4953ZM8.022 15.6734L8.0501 15.6321L8.0501 15.6321L8.022 15.6734ZM8.65905 16.5503L8.70706 16.5363L8.70706 16.5363L8.65905 16.5503ZM8.73098 16.9052L8.68173 16.9138L8.68173 16.9138L8.73098 16.9052ZM8.87267 17.5557L8.82584 17.5732L8.82584 17.5732L8.87267 17.5557ZM10.3007 18.5932L10.3029 18.5432L10.3029 18.5432L10.3007 18.5932ZM10.9631 18.5269L10.9701 18.5764L10.9709 18.5763L10.9631 18.5269ZM10.9632 18.5269L10.9562 18.4774L10.9554 18.4775L10.9632 18.5269ZM11.3229 18.4857L11.3213 18.4357L11.3213 18.4357L11.3229 18.4857ZM12.3537 18.8206L12.3843 18.7811L12.3843 18.7811L12.3537 18.8206ZM12.6205 19.0655L12.6552 19.0295L12.6552 19.0295L12.6205 19.0655ZM13.1175 19.5084L13.145 19.4667L13.145 19.4667L13.1175 19.5084ZM14.8825 19.5084L14.855 19.4667L14.855 19.4667L14.8825 19.5084ZM15.3795 19.0655L15.3448 19.0295L15.3448 19.0295L15.3795 19.0655ZM15.6463 18.8206L15.6157 18.7811L15.6157 18.7811L15.6463 18.8206ZM16.6771 18.4857L16.6787 18.4357L16.6787 18.4357L16.6771 18.4857ZM17.0368 18.5269L17.045 18.4776L17.0438 18.4774L17.0368 18.5269ZM17.0369 18.5269L17.0287 18.5763L17.0299 18.5764L17.0369 18.5269ZM17.6993 18.5932L17.6971 18.5432L17.6971 18.5432L17.6993 18.5932ZM19.1273 17.5557L19.0805 17.5382L19.0805 17.5382L19.1273 17.5557ZM19.269 16.9052L19.3183 16.9139L19.3183 16.9134L19.269 16.9052ZM19.269 16.9052L19.2198 16.8966L19.2197 16.897L19.269 16.9052ZM19.341 16.5503L19.2929 16.5363L19.2929 16.5363L19.341 16.5503ZM19.978 15.6734L20.0061 15.7148L20.0061 15.7148L19.978 15.6734ZM20.2933 15.4953L20.271 15.4506L20.2699 15.4512L20.2933 15.4953ZM20.2934 15.4953L20.3157 15.5401L20.3168 15.5395L20.2934 15.4953ZM20.8682 15.1596L20.8371 15.1205L20.8371 15.1205L20.8682 15.1596ZM21.4137 13.4809L21.4618 13.4675L21.4618 13.4675L21.4137 13.4809ZM21.1459 12.8713L21.1909 12.8494L21.1909 12.8494L21.1459 12.8713ZM20.9955 12.5419L20.9485 12.5588L20.9485 12.5588L20.9955 12.5419ZM20.9955 11.4581L20.9485 11.4412L20.9485 11.4412L20.9955 11.4581ZM21.1459 11.1287L21.1012 11.1063L21.101 11.1067L21.1459 11.1287ZM21.146 11.1286L21.1907 11.151L21.1909 11.1506L21.146 11.1286ZM21.4137 10.5191L21.3655 10.5058L21.3655 10.5058L21.4137 10.5191ZM20.8682 8.84042L20.8371 8.87954L20.8371 8.87954L20.8682 8.84042ZM20.2934 8.50468L20.3168 8.4605L20.3158 8.45996L20.2934 8.50468ZM20.2933 8.50465L20.2699 8.54884L20.271 8.54938L20.2933 8.50465ZM19.978 8.32656L20.0061 8.28521L20.0061 8.28521L19.978 8.32656ZM19.341 7.44974L19.2929 7.46369L19.2929 7.46369L19.341 7.44974ZM19.269 7.09479L19.3183 7.08615L19.3182 7.08585L19.269 7.09479ZM19.269 7.09478L19.2198 7.10342L19.2198 7.10372L19.269 7.09478ZM19.1273 6.44431L19.0805 6.46184L19.0805 6.46184L19.1273 6.44431ZM17.6993 5.40682L17.7015 5.35686L17.7015 5.35686L17.6993 5.40682ZM17.0369 5.47307L17.0431 5.52269L17.0439 5.52258L17.0369 5.47307ZM17.0369 5.47307L17.0307 5.42345L17.0299 5.42356L17.0369 5.47307ZM16.6771 5.51435L16.6755 5.46437L16.6755 5.46437L16.6771 5.51435ZM15.6463 5.17943L15.6157 5.21894L15.6157 5.21894L15.6463 5.17943ZM15.3795 4.93455L15.4143 4.89861L15.4143 4.89861L15.3795 4.93455ZM14.8826 4.49159L14.9101 4.44988L14.9101 4.44988L14.8826 4.49159ZM13.1175 4.49159L13.0899 4.44988L13.0899 4.44988L13.1175 4.49159ZM14 20.8499C18.8877 20.8499 22.85 16.8876 22.85 11.9999H22.75C22.75 16.8324 18.8325 20.7499 14 20.7499V20.8499ZM5.15002 11.9999C5.15002 16.8876 9.1123 20.8499 14 20.8499V20.7499C9.16753 20.7499 5.25002 16.8324 5.25002 11.9999H5.15002ZM14 3.1499C9.1123 3.1499 5.15002 7.11218 5.15002 11.9999H5.25002C5.25002 7.16741 9.16753 3.2499 14 3.2499V3.1499ZM22.85 11.9999C22.85 7.11218 18.8877 3.1499 14 3.1499V3.2499C18.8325 3.2499 22.75 7.16741 22.75 11.9999H22.85ZM14 21.6499C19.3296 21.6499 23.65 17.3295 23.65 11.9999H23.55C23.55 17.2742 19.2743 21.5499 14 21.5499V21.6499ZM4.35002 11.9999C4.35002 17.3295 8.67048 21.6499 14 21.6499V21.5499C8.72571 21.5499 4.45002 17.2742 4.45002 11.9999H4.35002ZM14 2.3499C8.67048 2.3499 4.35002 6.67035 4.35002 11.9999H4.45002C4.45002 6.72558 8.72571 2.4499 14 2.4499V2.3499ZM23.65 11.9999C23.65 6.67035 19.3296 2.3499 14 2.3499V2.4499C19.2743 2.4499 23.55 6.72558 23.55 11.9999H23.65ZM12.6558 4.96991L12.6558 4.96989L12.5851 4.89918L12.5851 4.8992L12.6558 4.96991ZM12.6558 4.96993L12.6558 4.96991L12.5851 4.8992L12.5851 4.89922L12.6558 4.96993ZM12.3843 5.21894C12.456 5.16331 12.5242 5.09726 12.6552 4.97051L12.5857 4.89863C12.4531 5.02694 12.3894 5.08842 12.323 5.13992L12.3843 5.21894ZM11.3213 5.56432C11.705 5.57636 12.0809 5.45422 12.3843 5.21894L12.323 5.13992C12.038 5.36094 11.6849 5.47568 11.3245 5.46437L11.3213 5.56432ZM10.9561 5.52258C11.1366 5.54811 11.2306 5.56147 11.3213 5.56432L11.3245 5.46437C11.2405 5.46173 11.1528 5.44941 10.9701 5.42356L10.9561 5.52258ZM10.9581 5.52282L10.9581 5.52282L10.9681 5.42332L10.9681 5.42332L10.9581 5.52282ZM10.3029 5.45677C10.445 5.4505 10.6109 5.47375 10.9561 5.52258L10.9701 5.42356C10.6293 5.37536 10.4522 5.35009 10.2985 5.35686L10.3029 5.45677ZM8.91949 6.46184C9.1374 5.87976 9.68194 5.48413 10.3029 5.45677L10.2985 5.35686C9.63747 5.386 9.0578 5.80715 8.82584 6.42678L8.91949 6.46184ZM8.78023 7.10343C8.84046 6.76003 8.86961 6.59509 8.91949 6.46184L8.82584 6.42678C8.7719 6.57087 8.7412 6.74714 8.68173 7.08615L8.78023 7.10343ZM8.70706 7.46369C8.73239 7.37652 8.74873 7.28301 8.78023 7.10343L8.68173 7.08615C8.64984 7.26793 8.63448 7.35509 8.61104 7.43578L8.70706 7.46369ZM8.0501 8.36792C8.36762 8.15211 8.59994 7.83235 8.70706 7.46369L8.61104 7.43578C8.5104 7.7821 8.29216 8.08249 7.99389 8.28521L8.0501 8.36792ZM7.73011 8.54881C7.89115 8.46337 7.97503 8.41894 8.0501 8.36792L7.99389 8.28521C7.9244 8.33244 7.84625 8.37399 7.68324 8.46047L7.73011 8.54881ZM7.73005 8.54884L7.73007 8.54883L7.68328 8.46045L7.68326 8.46047L7.73005 8.54884ZM7.16294 8.87954C7.27425 8.79092 7.42211 8.71223 7.73009 8.54882L7.68322 8.46049C7.37917 8.62181 7.22102 8.70547 7.10065 8.8013L7.16294 8.87954ZM6.63454 10.5058C6.46869 9.90679 6.67668 9.26665 7.16294 8.87954L7.10065 8.8013C6.58303 9.21339 6.36161 9.89483 6.53816 10.5325L6.63454 10.5058ZM6.89898 11.1067C6.74587 10.7935 6.6725 10.6429 6.63454 10.5058L6.53816 10.5325C6.57922 10.6807 6.65799 10.8414 6.80914 11.1506L6.89898 11.1067ZM7.05155 11.4412C7.0208 11.3557 6.97905 11.2705 6.89898 11.1067L6.80914 11.1506C6.89019 11.3164 6.929 11.396 6.95746 11.475L7.05155 11.4412ZM7.05155 12.5588C7.18157 12.1976 7.18157 11.8024 7.05155 11.4412L6.95746 11.475C7.0796 11.8144 7.0796 12.1856 6.95746 12.525L7.05155 12.5588ZM6.89898 12.8933C6.97905 12.7295 7.0208 12.6443 7.05155 12.5588L6.95746 12.525C6.929 12.604 6.89019 12.6836 6.80914 12.8494L6.89898 12.8933ZM6.89933 12.8926L6.89934 12.8926L6.80879 12.8501L6.80878 12.8501L6.89933 12.8926ZM6.63454 13.4942C6.6725 13.3571 6.74587 13.2065 6.89897 12.8933L6.80913 12.8494C6.65798 13.1586 6.57922 13.3193 6.53816 13.4675L6.63454 13.4942ZM7.16294 15.1205C6.67668 14.7334 6.46869 14.0932 6.63454 13.4942L6.53816 13.4675C6.36161 14.1052 6.58303 14.7866 7.10065 15.1987L7.16294 15.1205ZM7.73009 15.4512C7.42211 15.2878 7.27425 15.2091 7.16294 15.1205L7.10065 15.1987C7.22102 15.2945 7.37917 15.3782 7.68322 15.5395L7.73009 15.4512ZM8.0501 15.6321C7.97503 15.5811 7.89114 15.5366 7.73009 15.4512L7.68322 15.5395C7.84624 15.626 7.9244 15.6676 7.99389 15.7148L8.0501 15.6321ZM8.70706 16.5363C8.59994 16.1677 8.36762 15.8479 8.0501 15.6321L7.99389 15.7148C8.29216 15.9175 8.5104 16.2179 8.61104 16.5642L8.70706 16.5363ZM8.78023 16.8966C8.74873 16.717 8.73239 16.6235 8.70706 16.5363L8.61104 16.5642C8.63448 16.6449 8.64984 16.7321 8.68173 16.9138L8.78023 16.8966ZM8.91949 17.5382C8.86961 17.4049 8.84046 17.24 8.78023 16.8966L8.68173 16.9138C8.7412 17.2529 8.7719 17.4291 8.82584 17.5732L8.91949 17.5382ZM10.3029 18.5432C9.68193 18.5159 9.1374 18.1202 8.91949 17.5382L8.82584 17.5732C9.0578 18.1929 9.63747 18.614 10.2985 18.6431L10.3029 18.5432ZM10.9561 18.4774C10.6109 18.5263 10.445 18.5495 10.3029 18.5432L10.2985 18.6431C10.4522 18.6499 10.6293 18.6246 10.9701 18.5764L10.9561 18.4774ZM10.9554 18.4775L10.9553 18.4775L10.9709 18.5763L10.971 18.5763L10.9554 18.4775ZM11.3213 18.4357C11.2306 18.4385 11.1366 18.4519 10.9562 18.4774L10.9702 18.5764C11.1529 18.5506 11.2405 18.5383 11.3245 18.5356L11.3213 18.4357ZM12.3843 18.7811C12.0809 18.5458 11.705 18.4236 11.3213 18.4357L11.3245 18.5356C11.6849 18.5243 12.038 18.6391 12.323 18.8601L12.3843 18.7811ZM12.6552 19.0295C12.5242 18.9027 12.456 18.8367 12.3843 18.7811L12.323 18.8601C12.3894 18.9116 12.4531 18.9731 12.5857 19.1014L12.6552 19.0295ZM13.145 19.4667C13.0264 19.3882 12.9058 19.2719 12.6552 19.0295L12.5857 19.1014C12.8331 19.3407 12.9615 19.4653 13.0899 19.5501L13.145 19.4667ZM14.855 19.4667C14.3365 19.8095 13.6635 19.8095 13.145 19.4667L13.0899 19.5501C13.6417 19.9151 14.3583 19.9151 14.9101 19.5501L14.855 19.4667ZM15.3448 19.0295C15.0942 19.2719 14.9736 19.3882 14.855 19.4667L14.9101 19.5501C15.0385 19.4653 15.1669 19.3407 15.4143 19.1014L15.3448 19.0295ZM15.6157 18.7811C15.544 18.8367 15.4758 18.9027 15.3448 19.0295L15.4143 19.1014C15.5469 18.9731 15.6106 18.9116 15.677 18.8601L15.6157 18.7811ZM16.6787 18.4357C16.295 18.4236 15.9191 18.5458 15.6157 18.7811L15.677 18.8601C15.962 18.6391 16.3151 18.5243 16.6755 18.5356L16.6787 18.4357ZM17.0438 18.4774C16.8634 18.4519 16.7694 18.4385 16.6787 18.4357L16.6755 18.5356C16.7595 18.5383 16.8471 18.5506 17.0298 18.5764L17.0438 18.4774ZM17.0451 18.4776L17.045 18.4776L17.0286 18.5762L17.0287 18.5763L17.0451 18.4776ZM17.6971 18.5432C17.555 18.5495 17.3891 18.5263 17.0439 18.4774L17.0299 18.5764C17.3707 18.6246 17.5478 18.6499 17.7015 18.6431L17.6971 18.5432ZM19.0805 17.5382C18.8626 18.1202 18.3181 18.5159 17.6971 18.5432L17.7015 18.6431C18.3625 18.614 18.9422 18.1929 19.1742 17.5732L19.0805 17.5382ZM19.2198 16.8966C19.1595 17.24 19.1304 17.4049 19.0805 17.5382L19.1742 17.5732C19.2281 17.4291 19.2588 17.2529 19.3183 16.9139L19.2198 16.8966ZM19.2197 16.897L19.2197 16.897L19.3183 16.9134L19.3183 16.9134L19.2197 16.897ZM19.2929 16.5363C19.2676 16.6235 19.2513 16.717 19.2198 16.8966L19.3183 16.9138C19.3502 16.7321 19.3655 16.6449 19.389 16.5642L19.2929 16.5363ZM19.9499 15.6321C19.6324 15.8479 19.4001 16.1677 19.2929 16.5363L19.389 16.5642C19.4896 16.2179 19.7078 15.9175 20.0061 15.7148L19.9499 15.6321ZM20.2699 15.4512C20.1089 15.5366 20.025 15.5811 19.9499 15.6321L20.0061 15.7148C20.0756 15.6676 20.1538 15.626 20.3168 15.5395L20.2699 15.4512ZM20.271 15.4506L20.271 15.4506L20.3157 15.5401L20.3157 15.5401L20.271 15.4506ZM20.8371 15.1205C20.7258 15.2091 20.5779 15.2878 20.2699 15.4512L20.3168 15.5395C20.6208 15.3782 20.779 15.2945 20.8993 15.1987L20.8371 15.1205ZM21.3655 13.4942C21.5313 14.0932 21.3233 14.7334 20.8371 15.1205L20.8993 15.1987C21.417 14.7866 21.6384 14.1052 21.4618 13.4675L21.3655 13.4942ZM21.101 12.8933C21.2541 13.2065 21.3275 13.3571 21.3655 13.4942L21.4618 13.4675C21.4208 13.3193 21.342 13.1586 21.1909 12.8494L21.101 12.8933ZM20.9485 12.5588C20.9792 12.6443 21.0209 12.7295 21.101 12.8933L21.1909 12.8494C21.1098 12.6836 21.071 12.604 21.0425 12.525L20.9485 12.5588ZM20.9485 11.4412C20.8184 11.8024 20.8184 12.1976 20.9485 12.5588L21.0425 12.525C20.9204 12.1857 20.9204 11.8144 21.0425 11.475L20.9485 11.4412ZM21.101 11.1067C21.0209 11.2705 20.9792 11.3557 20.9485 11.4412L21.0425 11.475C21.071 11.396 21.1098 11.3164 21.1909 11.1506L21.101 11.1067ZM21.1012 11.1063L21.1012 11.1063L21.1907 11.151L21.1907 11.151L21.1012 11.1063ZM21.3655 10.5058C21.3275 10.6429 21.2541 10.7935 21.101 11.1067L21.1909 11.1506C21.342 10.8414 21.4208 10.6807 21.4618 10.5325L21.3655 10.5058ZM20.8371 8.87954C21.3233 9.26665 21.5313 9.90679 21.3655 10.5058L21.4618 10.5325C21.6384 9.89483 21.417 9.21339 20.8993 8.8013L20.8371 8.87954ZM20.27 8.54885C20.5779 8.71224 20.7258 8.79092 20.8371 8.87954L20.8993 8.8013C20.779 8.70548 20.6208 8.62181 20.3168 8.46051L20.27 8.54885ZM20.271 8.54938L20.271 8.5494L20.3158 8.45996L20.3157 8.45993L20.271 8.54938ZM19.9499 8.36792C20.025 8.41894 20.1089 8.46337 20.2699 8.54882L20.3168 8.46049C20.1538 8.37399 20.0756 8.33245 20.0061 8.28521L19.9499 8.36792ZM19.2929 7.46369C19.4001 7.83235 19.6324 8.15211 19.9499 8.36792L20.0061 8.28521C19.7078 8.08249 19.4896 7.7821 19.389 7.43578L19.2929 7.46369ZM19.2198 7.10343C19.2513 7.28301 19.2676 7.37652 19.2929 7.46369L19.389 7.43578C19.3655 7.35509 19.3502 7.26793 19.3183 7.08616L19.2198 7.10343ZM19.2198 7.10372L19.2198 7.10374L19.3182 7.08585L19.3182 7.08583L19.2198 7.10372ZM19.0805 6.46184C19.1304 6.59509 19.1595 6.76003 19.2198 7.10342L19.3183 7.08614C19.2588 6.74713 19.2281 6.57087 19.1742 6.42678L19.0805 6.46184ZM17.6971 5.45677C18.3181 5.48413 18.8626 5.87976 19.0805 6.46184L19.1742 6.42678C18.9422 5.80715 18.3625 5.386 17.7015 5.35686L17.6971 5.45677ZM17.0439 5.52258C17.3891 5.47375 17.555 5.4505 17.6971 5.45677L17.7015 5.35686C17.5478 5.35009 17.3707 5.37536 17.0299 5.42356L17.0439 5.52258ZM17.0431 5.52268L17.0431 5.52268L17.0307 5.42346L17.0307 5.42346L17.0431 5.52268ZM16.6787 5.56432C16.7694 5.56147 16.8634 5.54811 17.0439 5.52258L17.0299 5.42356C16.8472 5.44941 16.7595 5.46173 16.6755 5.46437L16.6787 5.56432ZM15.6157 5.21894C15.9191 5.45422 16.295 5.57636 16.6787 5.56432L16.6755 5.46437C16.3151 5.47568 15.962 5.36094 15.677 5.13992L15.6157 5.21894ZM15.3448 4.97049C15.4758 5.09725 15.544 5.1633 15.6157 5.21894L15.677 5.13992C15.6106 5.08842 15.5469 5.02693 15.4143 4.89861L15.3448 4.97049ZM14.855 4.53329C14.9736 4.61177 15.0942 4.72808 15.3448 4.97049L15.4143 4.89861C15.1669 4.6593 15.0385 4.53474 14.9101 4.44988L14.855 4.53329ZM13.145 4.53329C13.6635 4.19046 14.3365 4.19046 14.855 4.53329L14.9101 4.44988C14.3583 4.08493 13.6417 4.08493 13.0899 4.44988L13.145 4.53329ZM12.6553 4.97048C12.9058 4.72807 13.0264 4.61177 13.145 4.53329L13.0899 4.44988C12.9615 4.53474 12.8331 4.6593 12.5857 4.8986L12.6553 4.97048Z" fill="url(#paint9_linear_721_1855)" mask="url(#path-18-inside-1_721_1855)"/>
    </g>
    </g>
    </g>
    </g>
    <g filter="url(#filter4_bi_721_1855)">
    <path d="M13.6828 8.22259C14.5041 8.22259 15.1388 8.39806 15.5868 8.74899C16.0348 9.09246 16.2588 9.56286 16.2588 10.1602C16.2588 10.4141 16.2102 10.6418 16.1132 10.8434C16.0161 11.0375 15.8929 11.2018 15.7436 11.3362C15.5942 11.4706 15.4337 11.5751 15.262 11.6498C15.471 11.717 15.6614 11.8215 15.8332 11.9634C16.0124 12.1053 16.1542 12.2882 16.2588 12.5122C16.3708 12.7287 16.4268 12.9975 16.4268 13.3186C16.4268 13.7442 16.311 14.1138 16.0796 14.4274C15.8481 14.7335 15.527 14.9687 15.1164 15.133C14.7132 15.2898 14.2428 15.3682 13.7052 15.3682C13.2198 15.3682 12.8054 15.3197 12.462 15.2226C12.126 15.133 11.8684 15.0061 11.6892 14.8418C11.51 14.6701 11.4204 14.4834 11.4204 14.2818C11.4204 14.1026 11.4614 13.9458 11.5436 13.8114C11.6332 13.677 11.7414 13.5762 11.8684 13.509C12.0326 13.621 12.2417 13.7367 12.4956 13.8562C12.7569 13.9757 13.0929 14.0354 13.5036 14.0354C13.9068 14.0354 14.2166 13.957 14.4332 13.8002C14.6497 13.6434 14.758 13.4343 14.758 13.173C14.758 12.9191 14.6684 12.7213 14.4892 12.5794C14.31 12.4375 14.0188 12.3666 13.6156 12.3666H12.5964C12.5441 12.2919 12.4993 12.2023 12.462 12.0978C12.4321 11.9858 12.4172 11.8589 12.4172 11.717C12.4172 11.5677 12.4321 11.437 12.462 11.325C12.4993 11.213 12.5441 11.1234 12.5964 11.0562H13.5932C13.9366 11.0562 14.1868 10.9927 14.3436 10.8658C14.5004 10.7389 14.5788 10.5559 14.5788 10.317C14.5788 10.0855 14.4817 9.90259 14.2876 9.76819C14.0934 9.62633 13.8097 9.55539 13.4364 9.55539C13.1228 9.55539 12.8428 9.59646 12.5964 9.67859C12.3574 9.76073 12.1596 9.85779 12.0028 9.96979C11.8908 9.88766 11.7937 9.78686 11.7116 9.66739C11.6369 9.54793 11.5996 9.40979 11.5996 9.25299C11.5996 9.02899 11.6854 8.84233 11.8572 8.69299C12.0289 8.54366 12.2716 8.42793 12.5852 8.34579C12.9062 8.26366 13.2721 8.22259 13.6828 8.22259Z" fill="black" fill-opacity="0.24" style="mix-blend-mode:color-burn"/>
    <path d="M13.6828 8.22259C14.5041 8.22259 15.1388 8.39806 15.5868 8.74899C16.0348 9.09246 16.2588 9.56286 16.2588 10.1602C16.2588 10.4141 16.2102 10.6418 16.1132 10.8434C16.0161 11.0375 15.8929 11.2018 15.7436 11.3362C15.5942 11.4706 15.4337 11.5751 15.262 11.6498C15.471 11.717 15.6614 11.8215 15.8332 11.9634C16.0124 12.1053 16.1542 12.2882 16.2588 12.5122C16.3708 12.7287 16.4268 12.9975 16.4268 13.3186C16.4268 13.7442 16.311 14.1138 16.0796 14.4274C15.8481 14.7335 15.527 14.9687 15.1164 15.133C14.7132 15.2898 14.2428 15.3682 13.7052 15.3682C13.2198 15.3682 12.8054 15.3197 12.462 15.2226C12.126 15.133 11.8684 15.0061 11.6892 14.8418C11.51 14.6701 11.4204 14.4834 11.4204 14.2818C11.4204 14.1026 11.4614 13.9458 11.5436 13.8114C11.6332 13.677 11.7414 13.5762 11.8684 13.509C12.0326 13.621 12.2417 13.7367 12.4956 13.8562C12.7569 13.9757 13.0929 14.0354 13.5036 14.0354C13.9068 14.0354 14.2166 13.957 14.4332 13.8002C14.6497 13.6434 14.758 13.4343 14.758 13.173C14.758 12.9191 14.6684 12.7213 14.4892 12.5794C14.31 12.4375 14.0188 12.3666 13.6156 12.3666H12.5964C12.5441 12.2919 12.4993 12.2023 12.462 12.0978C12.4321 11.9858 12.4172 11.8589 12.4172 11.717C12.4172 11.5677 12.4321 11.437 12.462 11.325C12.4993 11.213 12.5441 11.1234 12.5964 11.0562H13.5932C13.9366 11.0562 14.1868 10.9927 14.3436 10.8658C14.5004 10.7389 14.5788 10.5559 14.5788 10.317C14.5788 10.0855 14.4817 9.90259 14.2876 9.76819C14.0934 9.62633 13.8097 9.55539 13.4364 9.55539C13.1228 9.55539 12.8428 9.59646 12.5964 9.67859C12.3574 9.76073 12.1596 9.85779 12.0028 9.96979C11.8908 9.88766 11.7937 9.78686 11.7116 9.66739C11.6369 9.54793 11.5996 9.40979 11.5996 9.25299C11.5996 9.02899 11.6854 8.84233 11.8572 8.69299C12.0289 8.54366 12.2716 8.42793 12.5852 8.34579C12.9062 8.26366 13.2721 8.22259 13.6828 8.22259Z" fill="black" fill-opacity="0.32" style="mix-blend-mode:darken"/>
    </g>
    <g filter="url(#filter5_bi_721_1855)">
    <path d="M12.6062 16.1321L12.6042 15.8881H13.2222C13.2302 15.9001 13.2375 15.9168 13.2442 15.9381C13.2509 15.9594 13.2542 15.9821 13.2542 16.0061C13.2542 16.0488 13.2442 16.0808 13.2242 16.1021C13.2055 16.1221 13.1795 16.1321 13.1462 16.1321H12.6062ZM12.8882 15.8881L12.8902 16.1321H12.2722C12.2629 16.1201 12.2549 16.1034 12.2482 16.0821C12.2429 16.0608 12.2402 16.0381 12.2402 16.0141C12.2402 15.9701 12.2495 15.9381 12.2682 15.9181C12.2882 15.8981 12.3142 15.8881 12.3462 15.8881H12.8882ZM12.5902 16.0781H12.8962V17.0981C12.8829 17.1021 12.8629 17.1054 12.8362 17.1081C12.8095 17.1121 12.7822 17.1141 12.7542 17.1141C12.6942 17.1141 12.6515 17.1034 12.6262 17.0821C12.6022 17.0608 12.5902 17.0234 12.5902 16.9701V16.0781ZM14.5632 16.4921C14.5632 16.6308 14.5358 16.7481 14.4812 16.8441C14.4278 16.9388 14.3538 17.0108 14.2592 17.0601C14.1658 17.1094 14.0598 17.1341 13.9412 17.1341C13.8225 17.1341 13.7165 17.1094 13.6232 17.0601C13.5298 17.0108 13.4565 16.9388 13.4032 16.8441C13.3498 16.7481 13.3232 16.6308 13.3232 16.4921C13.3232 16.3534 13.3505 16.2368 13.4052 16.1421C13.4598 16.0461 13.5338 15.9741 13.6272 15.9261C13.7205 15.8768 13.8252 15.8521 13.9412 15.8521C14.0585 15.8521 14.1638 15.8768 14.2572 15.9261C14.3518 15.9741 14.4265 16.0461 14.4812 16.1421C14.5358 16.2368 14.5632 16.3534 14.5632 16.4921ZM14.2492 16.4921C14.2492 16.3641 14.2212 16.2668 14.1652 16.2001C14.1105 16.1334 14.0358 16.1001 13.9412 16.1001C13.8505 16.1001 13.7772 16.1334 13.7212 16.2001C13.6652 16.2654 13.6372 16.3628 13.6372 16.4921C13.6372 16.6228 13.6645 16.7214 13.7192 16.7881C13.7752 16.8534 13.8498 16.8861 13.9432 16.8861C14.0365 16.8861 14.1105 16.8534 14.1652 16.7881C14.2212 16.7214 14.2492 16.6228 14.2492 16.4921ZM15.0876 16.4701H15.2076C15.2756 16.4701 15.3289 16.4541 15.3676 16.4221C15.4076 16.3901 15.4276 16.3441 15.4276 16.2841C15.4276 16.2241 15.4089 16.1788 15.3716 16.1481C15.3342 16.1174 15.2802 16.1021 15.2096 16.1021C15.1856 16.1021 15.1636 16.1028 15.1436 16.1041C15.1249 16.1054 15.1062 16.1074 15.0876 16.1101V16.4701ZM15.2276 16.7101H14.7856V15.9941C14.7856 15.9688 14.7929 15.9488 14.8076 15.9341C14.8222 15.9194 14.8416 15.9081 14.8656 15.9001C14.9096 15.8841 14.9622 15.8728 15.0236 15.8661C15.0849 15.8594 15.1402 15.8561 15.1896 15.8561C15.3696 15.8561 15.5056 15.8948 15.5976 15.9721C15.6909 16.0481 15.7376 16.1521 15.7376 16.2841C15.7376 16.3694 15.7169 16.4441 15.6756 16.5081C15.6356 16.5721 15.5776 16.6221 15.5016 16.6581C15.4256 16.6928 15.3342 16.7101 15.2276 16.7101ZM14.7856 16.5761H15.0896V17.0981C15.0776 17.1021 15.0582 17.1054 15.0316 17.1081C15.0049 17.1121 14.9776 17.1141 14.9496 17.1141C14.8896 17.1141 14.8469 17.1034 14.8216 17.0821C14.7976 17.0608 14.7856 17.0234 14.7856 16.9701V16.5761Z" fill="black" fill-opacity="0.24" style="mix-blend-mode:color-burn"/>
    <path d="M12.6062 16.1321L12.6042 15.8881H13.2222C13.2302 15.9001 13.2375 15.9168 13.2442 15.9381C13.2509 15.9594 13.2542 15.9821 13.2542 16.0061C13.2542 16.0488 13.2442 16.0808 13.2242 16.1021C13.2055 16.1221 13.1795 16.1321 13.1462 16.1321H12.6062ZM12.8882 15.8881L12.8902 16.1321H12.2722C12.2629 16.1201 12.2549 16.1034 12.2482 16.0821C12.2429 16.0608 12.2402 16.0381 12.2402 16.0141C12.2402 15.9701 12.2495 15.9381 12.2682 15.9181C12.2882 15.8981 12.3142 15.8881 12.3462 15.8881H12.8882ZM12.5902 16.0781H12.8962V17.0981C12.8829 17.1021 12.8629 17.1054 12.8362 17.1081C12.8095 17.1121 12.7822 17.1141 12.7542 17.1141C12.6942 17.1141 12.6515 17.1034 12.6262 17.0821C12.6022 17.0608 12.5902 17.0234 12.5902 16.9701V16.0781ZM14.5632 16.4921C14.5632 16.6308 14.5358 16.7481 14.4812 16.8441C14.4278 16.9388 14.3538 17.0108 14.2592 17.0601C14.1658 17.1094 14.0598 17.1341 13.9412 17.1341C13.8225 17.1341 13.7165 17.1094 13.6232 17.0601C13.5298 17.0108 13.4565 16.9388 13.4032 16.8441C13.3498 16.7481 13.3232 16.6308 13.3232 16.4921C13.3232 16.3534 13.3505 16.2368 13.4052 16.1421C13.4598 16.0461 13.5338 15.9741 13.6272 15.9261C13.7205 15.8768 13.8252 15.8521 13.9412 15.8521C14.0585 15.8521 14.1638 15.8768 14.2572 15.9261C14.3518 15.9741 14.4265 16.0461 14.4812 16.1421C14.5358 16.2368 14.5632 16.3534 14.5632 16.4921ZM14.2492 16.4921C14.2492 16.3641 14.2212 16.2668 14.1652 16.2001C14.1105 16.1334 14.0358 16.1001 13.9412 16.1001C13.8505 16.1001 13.7772 16.1334 13.7212 16.2001C13.6652 16.2654 13.6372 16.3628 13.6372 16.4921C13.6372 16.6228 13.6645 16.7214 13.7192 16.7881C13.7752 16.8534 13.8498 16.8861 13.9432 16.8861C14.0365 16.8861 14.1105 16.8534 14.1652 16.7881C14.2212 16.7214 14.2492 16.6228 14.2492 16.4921ZM15.0876 16.4701H15.2076C15.2756 16.4701 15.3289 16.4541 15.3676 16.4221C15.4076 16.3901 15.4276 16.3441 15.4276 16.2841C15.4276 16.2241 15.4089 16.1788 15.3716 16.1481C15.3342 16.1174 15.2802 16.1021 15.2096 16.1021C15.1856 16.1021 15.1636 16.1028 15.1436 16.1041C15.1249 16.1054 15.1062 16.1074 15.0876 16.1101V16.4701ZM15.2276 16.7101H14.7856V15.9941C14.7856 15.9688 14.7929 15.9488 14.8076 15.9341C14.8222 15.9194 14.8416 15.9081 14.8656 15.9001C14.9096 15.8841 14.9622 15.8728 15.0236 15.8661C15.0849 15.8594 15.1402 15.8561 15.1896 15.8561C15.3696 15.8561 15.5056 15.8948 15.5976 15.9721C15.6909 16.0481 15.7376 16.1521 15.7376 16.2841C15.7376 16.3694 15.7169 16.4441 15.6756 16.5081C15.6356 16.5721 15.5776 16.6221 15.5016 16.6581C15.4256 16.6928 15.3342 16.7101 15.2276 16.7101ZM14.7856 16.5761H15.0896V17.0981C15.0776 17.1021 15.0582 17.1054 15.0316 17.1081C15.0049 17.1121 14.9776 17.1141 14.9496 17.1141C14.8896 17.1141 14.8469 17.1034 14.8216 17.0821C14.7976 17.0608 14.7856 17.0234 14.7856 16.9701V16.5761Z" fill="black" fill-opacity="0.32" style="mix-blend-mode:darken"/>
    </g>
    <defs>
    <filter id="filter0_d_721_1855" x="8.69995" y="19.2002" width="10.6" height="9.5415" filterUnits="userSpaceOnUse" color-interpolation-filters="sRGB">
    <feFlood flood-opacity="0" result="BackgroundImageFix"/>
    <feColorMatrix in="SourceAlpha" type="matrix" values="0 0 0 0 0 0 0 0 0 0 0 0 0 0 0 0 0 0 127 0" result="hardAlpha"/>
    <feOffset dy="1"/>
    <feGaussianBlur stdDeviation="0.5"/>
    <feColorMatrix type="matrix" values="0 0 0 0 0 0 0 0 0 0 0 0 0 0 0 0 0 0 0.2 0"/>
    <feBlend mode="normal" in2="BackgroundImageFix" result="effect1_dropShadow_721_1855"/>
    <feBlend mode="normal" in="SourceGraphic" in2="effect1_dropShadow_721_1855" result="shape"/>
    </filter>
    <filter id="filter1_d_721_1855" x="8.69995" y="19.2002" width="10.6" height="9.5415" filterUnits="userSpaceOnUse" color-interpolation-filters="sRGB">
    <feFlood flood-opacity="0" result="BackgroundImageFix"/>
    <feColorMatrix in="SourceAlpha" type="matrix" values="0 0 0 0 0 0 0 0 0 0 0 0 0 0 0 0 0 0 127 0" result="hardAlpha"/>
    <feOffset dy="1"/>
    <feGaussianBlur stdDeviation="0.5"/>
    <feColorMatrix type="matrix" values="0 0 0 0 0 0 0 0 0 0 0 0 0 0 0 0 0 0 0.2 0"/>
    <feBlend mode="normal" in2="BackgroundImageFix" result="effect1_dropShadow_721_1855"/>
    <feBlend mode="normal" in="SourceGraphic" in2="effect1_dropShadow_721_1855" result="shape"/>
    </filter>
    <filter id="filter2_dddd_721_1855" x="1.10002" y="1.7999" width="25.8" height="31.3002" filterUnits="userSpaceOnUse" color-interpolation-filters="sRGB">
    <feFlood flood-opacity="0" result="BackgroundImageFix"/>
    <feColorMatrix in="SourceAlpha" type="matrix" values="0 0 0 0 0 0 0 0 0 0 0 0 0 0 0 0 0 0 127 0" result="hardAlpha"/>
    <feOffset dy="0.5"/>
    <feGaussianBlur stdDeviation="0.55"/>
    <feColorMatrix type="matrix" values="0 0 0 0 0 0 0 0 0 0 0 0 0 0 0 0 0 0 0.24 0"/>
    <feBlend mode="normal" in2="BackgroundImageFix" result="effect1_dropShadow_721_1855"/>
    <feColorMatrix in="SourceAlpha" type="matrix" values="0 0 0 0 0 0 0 0 0 0 0 0 0 0 0 0 0 0 127 0" result="hardAlpha"/>
    <feOffset dy="2.1"/>
    <feGaussianBlur stdDeviation="1.05"/>
    <feColorMatrix type="matrix" values="0 0 0 0 0 0 0 0 0 0 0 0 0 0 0 0 0 0 0.21 0"/>
    <feBlend mode="normal" in2="effect1_dropShadow_721_1855" result="effect2_dropShadow_721_1855"/>
    <feColorMatrix in="SourceAlpha" type="matrix" values="0 0 0 0 0 0 0 0 0 0 0 0 0 0 0 0 0 0 127 0" result="hardAlpha"/>
    <feOffset dy="4.6"/>
    <feGaussianBlur stdDeviation="1.4"/>
    <feColorMatrix type="matrix" values="0 0 0 0 0 0 0 0 0 0 0 0 0 0 0 0 0 0 0.12 0"/>
    <feBlend mode="normal" in2="effect2_dropShadow_721_1855" result="effect3_dropShadow_721_1855"/>
    <feColorMatrix in="SourceAlpha" type="matrix" values="0 0 0 0 0 0 0 0 0 0 0 0 0 0 0 0 0 0 127 0" result="hardAlpha"/>
    <feOffset dy="8.2"/>
    <feGaussianBlur stdDeviation="1.65"/>
    <feColorMatrix type="matrix" values="0 0 0 0 0 0 0 0 0 0 0 0 0 0 0 0 0 0 0.04 0"/>
    <feBlend mode="normal" in2="effect3_dropShadow_721_1855" result="effect4_dropShadow_721_1855"/>
    <feBlend mode="normal" in="SourceGraphic" in2="effect4_dropShadow_721_1855" result="shape"/>
    </filter>
    <filter id="filter3_d_721_1855" x="3.60002" y="1.7999" width="20.8" height="20.8002" filterUnits="userSpaceOnUse" color-interpolation-filters="sRGB">
    <feFlood flood-opacity="0" result="BackgroundImageFix"/>
    <feColorMatrix in="SourceAlpha" type="matrix" values="0 0 0 0 0 0 0 0 0 0 0 0 0 0 0 0 0 0 127 0" result="hardAlpha"/>
    <feOffset dy="0.2"/>
    <feGaussianBlur stdDeviation="0.4"/>
    <feColorMatrix type="matrix" values="0 0 0 0 0 0 0 0 0 0 0 0 0 0 0 0 0 0 0.16 0"/>
    <feBlend mode="color-burn" in2="BackgroundImageFix" result="effect1_dropShadow_721_1855"/>
    <feBlend mode="normal" in="SourceGraphic" in2="effect1_dropShadow_721_1855" result="shape"/>
    </filter>
    <filter id="filter4_bi_721_1855" x="6.62041" y="3.42266" width="14.6063" height="16.7455" filterUnits="userSpaceOnUse" color-interpolation-filters="sRGB">
    <feFlood flood-opacity="0" result="BackgroundImageFix"/>
    <feGaussianBlur in="BackgroundImageFix" stdDeviation="2.4"/>
    <feComposite in2="SourceAlpha" operator="in" result="effect1_backgroundBlur_721_1855"/>
    <feBlend mode="normal" in="SourceGraphic" in2="effect1_backgroundBlur_721_1855" result="shape"/>
    <feColorMatrix in="SourceAlpha" type="matrix" values="0 0 0 0 0 0 0 0 0 0 0 0 0 0 0 0 0 0 127 0" result="hardAlpha"/>
    <feOffset dy="0.1"/>
    <feGaussianBlur stdDeviation="0.1"/>
    <feComposite in2="hardAlpha" operator="arithmetic" k2="-1" k3="1"/>
    <feColorMatrix type="matrix" values="0 0 0 0 0 0 0 0 0 0 0 0 0 0 0 0 0 0 0.24 0"/>
    <feBlend mode="darken" in2="shape" result="effect2_innerShadow_721_1855"/>
    </filter>
    <filter id="filter5_bi_721_1855" x="7.44023" y="11.0521" width="13.0973" height="10.8822" filterUnits="userSpaceOnUse" color-interpolation-filters="sRGB">
    <feFlood flood-opacity="0" result="BackgroundImageFix"/>
    <feGaussianBlur in="BackgroundImageFix" stdDeviation="2.4"/>
    <feComposite in2="SourceAlpha" operator="in" result="effect1_backgroundBlur_721_1855"/>
    <feBlend mode="normal" in="SourceGraphic" in2="effect1_backgroundBlur_721_1855" result="shape"/>
    <feColorMatrix in="SourceAlpha" type="matrix" values="0 0 0 0 0 0 0 0 0 0 0 0 0 0 0 0 0 0 127 0" result="hardAlpha"/>
    <feOffset dy="0.1"/>
    <feGaussianBlur stdDeviation="0.1"/>
    <feComposite in2="hardAlpha" operator="arithmetic" k2="-1" k3="1"/>
    <feColorMatrix type="matrix" values="0 0 0 0 0 0 0 0 0 0 0 0 0 0 0 0 0 0 0.24 0"/>
    <feBlend mode="darken" in2="shape" result="effect2_innerShadow_721_1855"/>
    </filter>
    <linearGradient id="paint0_linear_721_1855" x1="14" y1="15.2002" x2="13.9999" y2="27.2002" gradientUnits="userSpaceOnUse">
    <stop stop-color="white"/>
    <stop offset="1" stop-color="white" stop-opacity="0"/>
    </linearGradient>
    <radialGradient id="paint1_radial_721_1855" cx="0" cy="0" r="1" gradientUnits="userSpaceOnUse" gradientTransform="translate(14 19.2002) rotate(90) scale(8)">
    <stop stop-color="white"/>
    <stop offset="1" stop-color="white" stop-opacity="0"/>
    </radialGradient>
    <linearGradient id="paint2_linear_721_1855" x1="14" y1="15.2002" x2="14" y2="27.2002" gradientUnits="userSpaceOnUse">
    <stop stop-color="white"/>
    <stop offset="1" stop-color="#999999"/>
    </linearGradient>
    <linearGradient id="paint3_linear_721_1855" x1="14" y1="1.17284" x2="14" y2="22.682" gradientUnits="userSpaceOnUse">
    <stop stop-color="white"/>
    <stop offset="1" stop-color="white" stop-opacity="0"/>
    </linearGradient>
    <radialGradient id="paint4_radial_721_1855" cx="0" cy="0" r="1" gradientUnits="userSpaceOnUse" gradientTransform="translate(14 7.351) rotate(90) scale(14.1869 10.7639)">
    <stop stop-color="white"/>
    <stop offset="1" stop-color="white" stop-opacity="0"/>
    </radialGradient>
    <linearGradient id="paint5_linear_721_1855" x1="14" y1="1.17284" x2="14" y2="22.682" gradientUnits="userSpaceOnUse">
    <stop stop-color="white"/>
    <stop offset="1" stop-color="white" stop-opacity="0"/>
    </linearGradient>
    <radialGradient id="paint6_radial_721_1855" cx="0" cy="0" r="1" gradientUnits="userSpaceOnUse" gradientTransform="translate(14 7.351) rotate(90) scale(14.1869 10.7639)">
    <stop stop-color="white"/>
    <stop offset="1" stop-color="white" stop-opacity="0"/>
    </radialGradient>
    <linearGradient id="paint7_linear_721_1855" x1="0" y1="-2" x2="0" y2="26" gradientUnits="userSpaceOnUse">
    <stop offset="0.135095" stop-color="white"/>
    <stop offset="0.877908" stop-color="white" stop-opacity="0.01"/>
    </linearGradient>
    <radialGradient id="paint8_radial_721_1855" cx="0" cy="0" r="1" gradientUnits="userSpaceOnUse" gradientTransform="translate(14 11.9998) rotate(90) scale(11.2)">
    <stop offset="0.075" stop-color="white" stop-opacity="0"/>
    <stop offset="0.34" stop-color="white"/>
    <stop offset="0.705" stop-color="white" stop-opacity="0.01"/>
    </radialGradient>
    <linearGradient id="paint9_linear_721_1855" x1="14" y1="2.3999" x2="14" y2="21.5999" gradientUnits="userSpaceOnUse">
    <stop stop-color="white"/>
    <stop offset="1" stop-color="#999999"/>
    </linearGradient>
    </defs>
    </svg>
    