<svg width="16" height="16" viewBox="0 0 16 16" fill="none" xmlns="http://www.w3.org/2000/svg">
    <path d="M2.69689 3.66079L3.66109 2.69659C4.57015 1.78753 5.02467 1.33301 5.58949 1.33301C6.1543 1.33301 6.60883 1.78753 7.51788 2.69659L5.91089 4.30358L2.69689 7.51758L2.69689 7.51757C1.78784 6.60852 1.33331 6.15399 1.33331 5.58918C1.33331 5.02437 1.78784 4.56984 2.69689 3.66079L2.69689 3.66079Z" fill="white"/>
    <path d="M13.3031 12.3386L12.3389 13.3028C11.4298 14.2118 10.9753 14.6663 10.4105 14.6663C9.84566 14.6663 9.39114 14.2118 8.48209 13.3028L8.48208 13.3028L11.6961 10.0888L13.3031 8.48177C14.2121 9.39083 14.6666 9.84535 14.6666 10.4102C14.6666 10.975 14.2121 11.4295 13.3031 12.3386Z" fill="white"/>
    <path d="M6.81076 12.8497C7.02288 12.6843 7.21529 12.4919 7.60005 12.1071L12.5306 7.17655C11.8596 6.89726 11.0648 6.43848 10.3131 5.6868C9.56128 4.93499 9.10248 4.14006 8.82319 3.46894L3.89253 8.39961L3.89251 8.39963C3.50775 8.78438 3.31536 8.97678 3.14991 9.1889C2.95474 9.43913 2.7874 9.70988 2.65087 9.99636C2.53514 10.2392 2.4491 10.4973 2.27702 11.0136L1.36961 13.7358C1.28493 13.9898 1.35105 14.2699 1.5404 14.4593C1.72975 14.6486 2.00983 14.7147 2.26387 14.63L4.9861 13.7226C5.50232 13.5506 5.76045 13.4645 6.0033 13.3488C6.28977 13.2122 6.56052 13.0449 6.81076 12.8497Z" fill="white"/>
    <path d="M13.8988 5.80838C14.9226 4.78458 14.9226 3.12466 13.8988 2.10086C12.875 1.07706 11.2151 1.07706 10.1913 2.10086L9.59992 2.69222C9.60801 2.71667 9.61641 2.74146 9.62513 2.76658C9.84188 3.39134 10.2508 4.21035 11.0202 4.97969C11.7895 5.74903 12.6085 6.158 13.2333 6.37475C13.2583 6.38343 13.283 6.39179 13.3073 6.39985L13.8988 5.80838Z" fill="white"/>
    </svg>
    