<svg width="16" height="16" viewBox="0 0 16 16" fill="none" xmlns="http://www.w3.org/2000/svg">
    <path fill-rule="evenodd" clip-rule="evenodd" d="M14.6666 8.00016C14.6666 11.6821 11.6819 14.6668 7.99998 14.6668C4.31808 14.6668 1.33331 11.6821 1.33331 8.00016C1.33331 4.31826 4.31808 1.3335 7.99998 1.3335C11.6819 1.3335 14.6666 4.31826 14.6666 8.00016ZM7.99998 5.16683C7.58577 5.16683 7.24998 5.50262 7.24998 5.91683C7.24998 6.19297 7.02612 6.41683 6.74998 6.41683C6.47384 6.41683 6.24998 6.19297 6.24998 5.91683C6.24998 4.95033 7.03348 4.16683 7.99998 4.16683C8.96648 4.16683 9.74998 4.95033 9.74998 5.91683C9.74998 6.39072 9.56096 6.82148 9.25528 7.13614C9.19377 7.19946 9.1351 7.25808 9.07913 7.314C8.93524 7.45777 8.80918 7.58372 8.69858 7.72583C8.55256 7.91345 8.49998 8.05134 8.49998 8.16683V8.66683C8.49998 8.94297 8.27612 9.16683 7.99998 9.16683C7.72384 9.16683 7.49998 8.94297 7.49998 8.66683V8.16683C7.49998 7.73004 7.70332 7.37645 7.90943 7.11163C8.06193 6.91569 8.25361 6.72439 8.40916 6.56914C8.45609 6.52231 8.49973 6.47875 8.53801 6.43934C8.6697 6.30379 8.74998 6.12019 8.74998 5.91683C8.74998 5.50262 8.41419 5.16683 7.99998 5.16683ZM7.99998 11.3335C8.36817 11.3335 8.66665 11.035 8.66665 10.6668C8.66665 10.2986 8.36817 10.0002 7.99998 10.0002C7.63179 10.0002 7.33331 10.2986 7.33331 10.6668C7.33331 11.035 7.63179 11.3335 7.99998 11.3335Z" fill="#584D74"/>
    </svg>
    