<svg width="26" height="26" viewBox="0 0 26 26" fill="none" xmlns="http://www.w3.org/2000/svg">
<g clip-path="url(#clip0_721_3162)">
<path d="M17.3333 3.25C18.7699 3.25 20.1477 3.82068 21.1635 4.8365C22.1793 5.85233 22.75 7.23008 22.75 8.66667V17.3333C22.75 18.7699 22.1793 20.1477 21.1635 21.1635C20.1477 22.1793 18.7699 22.75 17.3333 22.75H8.66667C7.23008 22.75 5.85233 22.1793 4.8365 21.1635C3.82068 20.1477 3.25 18.7699 3.25 17.3333V8.66667C3.25 7.23008 3.82068 5.85233 4.8365 4.8365C5.85233 3.82068 7.23008 3.25 8.66667 3.25H17.3333ZM13 8.66667C11.8507 8.66667 10.7485 9.12321 9.93587 9.93587C9.12321 10.7485 8.66667 11.8507 8.66667 13C8.66667 14.1493 9.12321 15.2515 9.93587 16.0641C10.7485 16.8768 11.8507 17.3333 13 17.3333C14.1493 17.3333 15.2515 16.8768 16.0641 16.0641C16.8768 15.2515 17.3333 14.1493 17.3333 13C17.3333 11.8507 16.8768 10.7485 16.0641 9.93587C15.2515 9.12321 14.1493 8.66667 13 8.66667ZM13 10.8333C13.5746 10.8333 14.1257 11.0616 14.5321 11.4679C14.9384 11.8743 15.1667 12.4254 15.1667 13C15.1667 13.5746 14.9384 14.1257 14.5321 14.5321C14.1257 14.9384 13.5746 15.1667 13 15.1667C12.4254 15.1667 11.8743 14.9384 11.4679 14.5321C11.0616 14.1257 10.8333 13.5746 10.8333 13C10.8333 12.4254 11.0616 11.8743 11.4679 11.4679C11.8743 11.0616 12.4254 10.8333 13 10.8333ZM17.875 7.04167C17.5877 7.04167 17.3121 7.1558 17.109 7.35897C16.9058 7.56213 16.7917 7.83768 16.7917 8.125C16.7917 8.41232 16.9058 8.68787 17.109 8.89103C17.3121 9.0942 17.5877 9.20833 17.875 9.20833C18.1623 9.20833 18.4379 9.0942 18.641 8.89103C18.8442 8.68787 18.9583 8.41232 18.9583 8.125C18.9583 7.83768 18.8442 7.56213 18.641 7.35897C18.4379 7.1558 18.1623 7.04167 17.875 7.04167Z" fill="white" fill-opacity="0.4"/>
</g>
<defs>
<clipPath id="clip0_721_3162">
<rect width="26" height="26" fill="white"/>
</clipPath>
</defs>
</svg>
