<svg width="20" height="21" viewBox="0 0 20 21" fill="none" xmlns="http://www.w3.org/2000/svg">
    <path fill-rule="evenodd" clip-rule="evenodd" d="M5.83334 6.9585C3.87733 6.9585 2.29167 8.54415 2.29167 10.5002C2.29167 12.4562 3.87733 14.0418 5.83334 14.0418C6.33075 14.0418 6.70414 13.9524 7.00564 13.8055C7.3077 13.6583 7.57169 13.4368 7.82753 13.1248C8.27756 12.5758 8.64687 11.8273 9.1335 10.841C9.23078 10.6438 9.33275 10.4371 9.44099 10.2207C9.53791 10.0268 9.63245 9.83461 9.72561 9.64522C10.2095 8.66158 10.6561 7.75362 11.2058 7.08309C11.5477 6.66599 11.9472 6.31457 12.4468 6.07112C12.947 5.82741 13.5135 5.7085 14.1667 5.7085C16.813 5.7085 18.9583 7.8538 18.9583 10.5002C18.9583 13.1465 16.813 15.2918 14.1667 15.2918C13.0885 15.2918 12.0921 14.9348 11.2913 14.3332C11.0153 14.1259 10.9596 13.7341 11.167 13.4581C11.3743 13.1821 11.7661 13.1265 12.0421 13.3338C12.634 13.7785 13.3687 14.0418 14.1667 14.0418C16.1227 14.0418 17.7083 12.4562 17.7083 10.5002C17.7083 8.54415 16.1227 6.9585 14.1667 6.9585C13.6693 6.9585 13.2959 7.04792 12.9944 7.19483C12.6923 7.34201 12.4283 7.5635 12.1725 7.87557C11.7225 8.42453 11.3531 9.17305 10.8665 10.1594C10.7692 10.3565 10.6673 10.5632 10.559 10.7797C10.4621 10.9735 10.3676 11.1657 10.2744 11.3551C9.79054 12.3387 9.34391 13.2467 8.79421 13.9172C8.45227 14.3343 8.0528 14.6858 7.55318 14.9292C7.05301 15.1729 6.48652 15.2918 5.83334 15.2918C3.18697 15.2918 1.04167 13.1465 1.04167 10.5002C1.04167 7.8538 3.18697 5.7085 5.83334 5.7085C6.91154 5.7085 7.90819 6.06535 8.70917 6.66715C8.98513 6.87449 9.04077 7.26628 8.83343 7.54225C8.62609 7.81822 8.23429 7.87385 7.95832 7.66651C7.3664 7.22179 6.63152 6.9585 5.83334 6.9585Z" fill="white"/>
    </svg>
    