<svg width="14" height="12" viewBox="0 0 14 12" fill="none" xmlns="http://www.w3.org/2000/svg">
<path d="M0.335307 5.81016C0.360198 4.58201 0.372644 3.96794 0.7806 3.44226C0.855061 3.34631 0.964311 3.2323 1.05588 3.155C1.55757 2.73145 2.21994 2.73145 3.54469 2.73145C4.01798 2.73145 4.25463 2.73145 4.48022 2.66952C4.52709 2.65665 4.57347 2.64181 4.61925 2.62504C4.83955 2.54433 5.03714 2.40542 5.43232 2.12758C6.99143 1.03142 7.77099 0.483347 8.4253 0.721441C8.55075 0.76709 8.67218 0.832983 8.78063 0.914252C9.34627 1.33813 9.38925 2.32434 9.4752 4.29675C9.50703 5.02708 9.52871 5.65216 9.52871 5.99984C9.52871 6.34752 9.50703 6.97259 9.4752 7.70292C9.38925 9.67533 9.34627 10.6615 8.78063 11.0854C8.67218 11.1667 8.55075 11.2326 8.4253 11.2782C7.77099 11.5163 6.99143 10.9682 5.43232 9.8721C5.03714 9.59426 4.83955 9.45534 4.61925 9.37463C4.57347 9.35786 4.52709 9.34303 4.48022 9.33016C4.25463 9.26823 4.01798 9.26823 3.54469 9.26823C2.21994 9.26823 1.55757 9.26823 1.05588 8.84468C0.964311 8.76737 0.855061 8.65337 0.7806 8.55742C0.372644 8.03174 0.360198 7.41766 0.335307 6.18952C0.333999 6.12501 0.333313 6.06169 0.333313 5.99984C0.333313 5.93798 0.333999 5.87466 0.335307 5.81016Z" fill="#584D74"/>
<path fill-rule="evenodd" clip-rule="evenodd" d="M11.993 1.7013C12.1881 1.52796 12.478 1.55606 12.6405 1.76407L12.2873 2.07792C12.6405 1.76407 12.6404 1.76385 12.6405 1.76407L12.6412 1.76497L12.642 1.76598L12.6438 1.76834L12.6485 1.7744C12.6519 1.77904 12.6563 1.78488 12.6614 1.79193C12.6716 1.80603 12.685 1.82499 12.701 1.84889C12.733 1.8967 12.7757 1.96428 12.8253 2.05243C12.9245 2.22881 13.0513 2.48712 13.1762 2.83342C13.4265 3.52722 13.6666 4.56741 13.6666 5.99999C13.6666 7.43257 13.4265 8.47277 13.1762 9.16656C13.0513 9.51287 12.9245 9.77118 12.8253 9.94755C12.7757 10.0357 12.733 10.1033 12.701 10.1511C12.685 10.175 12.6716 10.194 12.6614 10.2081C12.6563 10.2151 12.6519 10.2209 12.6485 10.2256L12.6438 10.2316L12.642 10.234L12.6412 10.235C12.6411 10.2352 12.6405 10.2359 12.2873 9.92206L12.6405 10.2359C12.478 10.4439 12.1881 10.472 11.993 10.2987C11.7989 10.1262 11.7718 9.81917 11.9318 9.6112C11.9322 9.6107 11.9329 9.60973 11.9339 9.6083C11.9372 9.60382 11.9436 9.59482 11.9527 9.58118C11.971 9.55392 12.0002 9.50814 12.0368 9.44308C12.1099 9.31304 12.213 9.10561 12.318 8.81458C12.5275 8.2337 12.7471 7.31286 12.7471 5.99999C12.7471 4.68712 12.5275 3.76629 12.318 3.18541C12.213 2.89438 12.1099 2.68694 12.0368 2.55691C12.0002 2.49185 11.971 2.44606 11.9527 2.4188C11.9436 2.40517 11.9372 2.39616 11.9339 2.39169C11.9329 2.39025 11.9322 2.38927 11.9318 2.38877C11.9318 2.38877 11.9318 2.38877 11.9318 2.38877" fill="#584D74"/>
<path fill-rule="evenodd" clip-rule="evenodd" d="M10.8381 3.61047C11.06 3.47898 11.34 3.56426 11.4633 3.80095L11.0614 4.03904C11.4633 3.80095 11.4632 3.80073 11.4633 3.80095L11.4637 3.8018L11.4642 3.80271L11.4652 3.80471L11.4676 3.80936L11.4735 3.82135C11.4779 3.83055 11.4834 3.84216 11.4896 3.85622C11.5022 3.88434 11.5181 3.92226 11.5361 3.97033C11.5722 4.06653 11.6167 4.20311 11.66 4.38301C11.7466 4.74315 11.8276 5.27441 11.8276 6.00007C11.8276 6.72573 11.7466 7.25699 11.66 7.61713C11.6167 7.79703 11.5722 7.93361 11.5361 8.02981C11.5181 8.07789 11.5022 8.1158 11.4896 8.14392C11.4834 8.15798 11.4779 8.16959 11.4735 8.17879L11.4676 8.19078L11.4652 8.19543L11.4642 8.19743L11.4637 8.19834C11.4636 8.19855 11.4633 8.19919 11.0614 7.9611L11.4633 8.19919C11.34 8.43588 11.06 8.52116 10.8381 8.38967C10.618 8.25929 10.5375 7.96476 10.6563 7.72906L10.6594 7.72237C10.6636 7.71296 10.6717 7.69418 10.6824 7.66565C10.7037 7.60865 10.7359 7.51235 10.7693 7.37359C10.8359 7.09639 10.9081 6.64713 10.9081 6.00007C10.9081 5.35301 10.8359 4.90375 10.7693 4.62655C10.7359 4.48779 10.7037 4.39149 10.6824 4.33449C10.6717 4.30596 10.6636 4.28718 10.6594 4.27777L10.6563 4.27108C10.5375 4.03538 10.618 3.74085 10.8381 3.61047Z" fill="#584D74"/>
</svg>
