<?xml version="1.0" encoding="UTF-8"?><svg id="a" xmlns="http://www.w3.org/2000/svg" xmlns:xlink="http://www.w3.org/1999/xlink" viewBox="0 0 523.89 342.21"><defs><style>.ae{fill:url(#v);}.ae,.af,.ag,.ah,.ai,.aj,.ak,.al,.am,.an,.ao,.ap,.aq,.ar,.as,.at,.au,.av,.aw,.ax,.ay,.az,.ba,.bb,.bc,.bd,.be,.bf,.bg,.bh,.bi,.bj,.bk,.bl,.bm,.bn,.bo,.bp,.bq,.br,.bs,.bt,.bu,.bv,.bw,.bx,.by,.bz,.ca,.cb,.cc,.cd,.ce,.cf,.cg,.ch,.ci,.cj,.ck,.cl,.cm,.cn,.co{stroke-width:0px;}.af{fill:url(#w);}.ag{fill:url(#c);}.ah{fill:url(#s);}.ai{fill:#f9bab0;}.aj{fill:url(#y);}.ak{fill:#f05123;}.al{fill:url(#ad);}.am{fill:#2c2040;}.an{fill:url(#e);}.ao{fill:#f05423;}.ap{fill:url(#g);}.aq{fill:url(#i);}.ar{fill:#f99c1c;}.as{fill:#f06f22;}.at{fill:url(#l);}.au{fill:url(#b);}.av{fill:#211230;}.aw{fill:#fdd013;}.ax{fill:#b2b7db;}.ay{fill:url(#q);}.az{fill:#fec365;}.ba{fill:url(#t);}.bb{fill:#fcb315;}.bc{fill:#fff1c0;}.bd{fill:#211636;}.be{fill:url(#u);}.bf{fill:#f89836;}.bg{fill:#fab317;}.bh{fill:url(#n);}.bi{fill:url(#z);}.bj{fill:#feeaa1;}.bk{fill:#fff7d7;}.bl{fill:url(#h);}.bm{fill:#171021;}.bn{fill:#fec871;}.bo{fill:url(#j);}.bp{fill:#f07b22;}.bq{fill:#ffda77;}.br{fill:#fef381;}.bs{fill:url(#d);}.bt{fill:#b81f3d;}.bu{fill:url(#f);}.bv{fill:url(#m);}.bw{fill:#f9a01b;}.bx{fill:url(#ab);}.by{fill:#fdb714;}.bz{fill:#fff;}.ca{fill:url(#r);}.cb{fill:#fff5d0;}.cc{fill:url(#aa);}.cd{fill:#ee4a23;}.ce{fill:#fff8df;}.cf{fill:#f47b20;}.cg{fill:#ffcc13;}.ch{fill:url(#k);}.ci{fill:url(#p);}.cj{fill:url(#ac);}.ck{fill:url(#x);}.cl{fill:url(#o);}.cm{fill:#ffcd63;}.cn{fill:#f78c1e;}.co{fill:#f26322;}</style><linearGradient id="b" x1="51.9" y1="-64.06" x2="51.9" y2="-41.17" gradientTransform="translate(102.23 -2.86) rotate(11.4) scale(1 -1)" gradientUnits="userSpaceOnUse"><stop offset=".78" stop-color="#171021"/><stop offset=".85" stop-color="#1a1225"/><stop offset=".92" stop-color="#241a31"/><stop offset=".99" stop-color="#342746"/><stop offset="1" stop-color="#37294a"/></linearGradient><linearGradient id="c" x1="220.19" y1="-564.41" x2="220.19" y2="-520.43" gradientTransform="translate(357.29 -507.08) rotate(35.2) scale(1 -1)" gradientUnits="userSpaceOnUse"><stop offset=".78" stop-color="#171021"/><stop offset=".85" stop-color="#1a1225"/><stop offset=".92" stop-color="#241a31"/><stop offset=".99" stop-color="#342746"/><stop offset="1" stop-color="#37294a"/></linearGradient><linearGradient id="d" x1="347.33" y1="626.04" x2="347.33" y2="666.48" gradientTransform="translate(26.08 766.12) rotate(-16.22) scale(1 -1)" gradientUnits="userSpaceOnUse"><stop offset=".78" stop-color="#171021"/><stop offset=".85" stop-color="#1a1225"/><stop offset=".92" stop-color="#241a31"/><stop offset=".99" stop-color="#342746"/><stop offset="1" stop-color="#37294a"/></linearGradient><linearGradient id="e" x1="88.76" y1="162.67" x2="88.76" y2="271.55" gradientTransform="translate(0 343.25) scale(1 -1)" gradientUnits="userSpaceOnUse"><stop offset=".87" stop-color="#211230"/><stop offset=".91" stop-color="#241333"/><stop offset=".93" stop-color="#2d163d"/><stop offset=".96" stop-color="#3d1d4e"/><stop offset=".99" stop-color="#532666"/><stop offset="1" stop-color="#652d79"/></linearGradient><linearGradient id="f" x1="139.35" y1="168.18" x2="139.35" y2="276.72" gradientTransform="translate(0 343.25) scale(1 -1)" gradientUnits="userSpaceOnUse"><stop offset=".87" stop-color="#211230"/><stop offset=".91" stop-color="#241333"/><stop offset=".93" stop-color="#2d163d"/><stop offset=".96" stop-color="#3d1d4e"/><stop offset=".99" stop-color="#532666"/><stop offset="1" stop-color="#652d79"/></linearGradient><linearGradient id="g" x1="189.46" y1="176.19" x2="189.46" y2="279.66" gradientTransform="translate(0 343.25) scale(1 -1)" gradientUnits="userSpaceOnUse"><stop offset=".87" stop-color="#211230"/><stop offset=".91" stop-color="#241333"/><stop offset=".93" stop-color="#2d163d"/><stop offset=".96" stop-color="#3d1d4e"/><stop offset=".99" stop-color="#532666"/><stop offset="1" stop-color="#652d79"/></linearGradient><linearGradient id="h" x1="96.44" y1="174.27" x2="82.07" y2="255.76" gradientTransform="translate(0 343.25) scale(1 -1)" gradientUnits="userSpaceOnUse"><stop offset=".08" stop-color="#f17523"/><stop offset=".1" stop-color="#f27d21"/><stop offset=".2" stop-color="#f5971d"/><stop offset=".3" stop-color="#f8a91a"/><stop offset=".41" stop-color="#f9b418"/><stop offset=".53" stop-color="#fab818"/><stop offset=".53" stop-color="#fbc113"/><stop offset=".53" stop-color="#fecd0e"/><stop offset=".54" stop-color="#ffd10d"/><stop offset=".96" stop-color="#f9ef5e"/></linearGradient><linearGradient id="i" x1="147.42" y1="181.93" x2="133.14" y2="262.95" gradientTransform="translate(0 343.25) scale(1 -1)" gradientUnits="userSpaceOnUse"><stop offset=".08" stop-color="#f17523"/><stop offset=".1" stop-color="#f27d21"/><stop offset=".2" stop-color="#f5971d"/><stop offset=".3" stop-color="#f8a91a"/><stop offset=".41" stop-color="#f9b418"/><stop offset=".53" stop-color="#fab818"/><stop offset=".53" stop-color="#fbc113"/><stop offset=".53" stop-color="#fecd0e"/><stop offset=".54" stop-color="#ffd10d"/><stop offset=".96" stop-color="#f9ef5e"/></linearGradient><linearGradient id="j" x1="194.14" y1="188.16" x2="179.95" y2="268.67" gradientTransform="translate(0 343.25) scale(1 -1)" gradientUnits="userSpaceOnUse"><stop offset=".08" stop-color="#f17523"/><stop offset=".1" stop-color="#f27d21"/><stop offset=".2" stop-color="#f5971d"/><stop offset=".3" stop-color="#f8a91a"/><stop offset=".41" stop-color="#f9b418"/><stop offset=".53" stop-color="#fab818"/><stop offset=".53" stop-color="#fbc113"/><stop offset=".53" stop-color="#fecd0e"/><stop offset=".54" stop-color="#ffd10d"/><stop offset=".96" stop-color="#f9ef5e"/></linearGradient><linearGradient id="k" x1="96.05" y1="10.93" x2="96.05" y2="158.44" gradientTransform="translate(0 343.25) scale(1 -1)" gradientUnits="userSpaceOnUse"><stop offset=".92" stop-color="#211230"/><stop offset=".94" stop-color="#241333"/><stop offset=".96" stop-color="#2d163d"/><stop offset=".97" stop-color="#3d1d4e"/><stop offset=".99" stop-color="#532666"/><stop offset="1" stop-color="#652d79"/></linearGradient><linearGradient id="l" x1="229.98" y1="45.91" x2="229.98" y2="164.84" gradientTransform="translate(0 343.25) scale(1 -1)" gradientUnits="userSpaceOnUse"><stop offset=".92" stop-color="#211230"/><stop offset=".94" stop-color="#241333"/><stop offset=".96" stop-color="#2d163d"/><stop offset=".97" stop-color="#3d1d4e"/><stop offset=".99" stop-color="#532666"/><stop offset="1" stop-color="#652d79"/></linearGradient><linearGradient id="m" x1="197.74" y1="56.92" x2="197.74" y2="64.99" gradientTransform="translate(0 343.25) scale(1 -1)" gradientUnits="userSpaceOnUse"><stop offset=".92" stop-color="#211230"/><stop offset=".94" stop-color="#241333"/><stop offset=".96" stop-color="#2d163d"/><stop offset=".97" stop-color="#3d1d4e"/><stop offset=".99" stop-color="#532666"/><stop offset="1" stop-color="#652d79"/></linearGradient><linearGradient id="n" x1="197.26" y1="66.06" x2="197.26" y2="74.14" gradientTransform="translate(0 343.25) scale(1 -1)" gradientUnits="userSpaceOnUse"><stop offset=".92" stop-color="#211230"/><stop offset=".94" stop-color="#241333"/><stop offset=".96" stop-color="#2d163d"/><stop offset=".97" stop-color="#3d1d4e"/><stop offset=".99" stop-color="#532666"/><stop offset="1" stop-color="#652d79"/></linearGradient><linearGradient id="o" x1="176.12" y1="43.49" x2="170.03" y2="159.61" gradientTransform="translate(0 343.25) scale(1 -1)" gradientUnits="userSpaceOnUse"><stop offset=".92" stop-color="#211230"/><stop offset=".94" stop-color="#241333"/><stop offset=".96" stop-color="#2d163d"/><stop offset=".97" stop-color="#3d1d4e"/><stop offset=".99" stop-color="#532666"/><stop offset="1" stop-color="#652d79"/></linearGradient><linearGradient id="p" x1="291.31" y1="32.81" x2="291.31" y2="165.13" gradientTransform="translate(0 343.25) scale(1 -1)" gradientUnits="userSpaceOnUse"><stop offset=".92" stop-color="#211230"/><stop offset=".94" stop-color="#241333"/><stop offset=".96" stop-color="#2d163d"/><stop offset=".97" stop-color="#3d1d4e"/><stop offset=".99" stop-color="#532666"/><stop offset="1" stop-color="#652d79"/></linearGradient><linearGradient id="q" x1="361.83" y1="42.66" x2="361.83" y2="168.95" gradientTransform="translate(0 343.25) scale(1 -1)" gradientUnits="userSpaceOnUse"><stop offset=".92" stop-color="#211230"/><stop offset=".94" stop-color="#241333"/><stop offset=".96" stop-color="#2d163d"/><stop offset=".97" stop-color="#3d1d4e"/><stop offset=".99" stop-color="#532666"/><stop offset="1" stop-color="#652d79"/></linearGradient><linearGradient id="r" x1="438.48" y1="23.63" x2="438.48" y2="171.19" gradientTransform="translate(0 343.25) scale(1 -1)" gradientUnits="userSpaceOnUse"><stop offset=".92" stop-color="#211230"/><stop offset=".94" stop-color="#241333"/><stop offset=".96" stop-color="#2d163d"/><stop offset=".97" stop-color="#3d1d4e"/><stop offset=".99" stop-color="#532666"/><stop offset="1" stop-color="#652d79"/></linearGradient><linearGradient id="s" x1="238.33" y1="157.11" x2="238.33" y2="206.94" gradientTransform="translate(0 343.25) scale(1 -1)" gradientUnits="userSpaceOnUse"><stop offset=".87" stop-color="#211230"/><stop offset=".91" stop-color="#241333"/><stop offset=".93" stop-color="#2d163d"/><stop offset=".96" stop-color="#3d1d4e"/><stop offset=".99" stop-color="#532666"/><stop offset="1" stop-color="#652d79"/></linearGradient><linearGradient id="t" x1="99.61" y1="21.4" x2="95.19" y2="147.84" gradientTransform="translate(0 343.25) scale(1 -1)" gradientUnits="userSpaceOnUse"><stop offset=".08" stop-color="#f27124"/><stop offset=".14" stop-color="#f37c21"/><stop offset=".42" stop-color="#f9a618"/><stop offset=".56" stop-color="#fcb715"/><stop offset=".71" stop-color="#fab818"/><stop offset=".71" stop-color="#fbc113"/><stop offset=".72" stop-color="#fecd0e"/><stop offset=".72" stop-color="#ffd10d"/><stop offset=".92" stop-color="#f9ef5e"/><stop offset=".96" stop-color="#f9ef5f"/><stop offset=".97" stop-color="#f9ef66"/><stop offset=".98" stop-color="#f9ef72"/><stop offset=".98" stop-color="#f9ef83"/><stop offset=".99" stop-color="#f9ef99"/><stop offset=".99" stop-color="#f9efb4"/><stop offset="1" stop-color="#f9efd4"/><stop offset="1" stop-color="#f9eff6"/></linearGradient><linearGradient id="u" x1="230.45" y1="55.03" x2="230.45" y2="155.65" gradientTransform="translate(0 343.25) scale(1 -1)" gradientUnits="userSpaceOnUse"><stop offset=".08" stop-color="#f27124"/><stop offset=".16" stop-color="#f48320"/><stop offset=".33" stop-color="#f7a01c"/><stop offset=".47" stop-color="#f9b119"/><stop offset=".57" stop-color="#fab818"/><stop offset=".57" stop-color="#fbc113"/><stop offset=".58" stop-color="#fecd0e"/><stop offset=".58" stop-color="#ffd10d"/><stop offset=".92" stop-color="#f9ef5e"/><stop offset=".94" stop-color="#f9ef62"/><stop offset=".95" stop-color="#f9ef70"/><stop offset=".96" stop-color="#f9ef86"/><stop offset=".97" stop-color="#f9efa5"/><stop offset=".99" stop-color="#f9efcd"/><stop offset="1" stop-color="#f9eff6"/></linearGradient><linearGradient id="v" x1="290.9" y1="41.96" x2="290.9" y2="155.9" gradientTransform="translate(0 343.25) scale(1 -1)" gradientUnits="userSpaceOnUse"><stop offset=".08" stop-color="#f27124"/><stop offset=".17" stop-color="#f48320"/><stop offset=".35" stop-color="#f7a01c"/><stop offset=".51" stop-color="#f9b119"/><stop offset=".62" stop-color="#fab818"/><stop offset=".62" stop-color="#fbc113"/><stop offset=".63" stop-color="#fecd0e"/><stop offset=".63" stop-color="#ffd10d"/><stop offset=".92" stop-color="#f9ef5e"/><stop offset=".95" stop-color="#f9ef60"/><stop offset=".96" stop-color="#f9ef68"/><stop offset=".97" stop-color="#f9ef76"/><stop offset=".98" stop-color="#f9ef8a"/><stop offset=".98" stop-color="#f9efa3"/><stop offset=".99" stop-color="#f9efc3"/><stop offset="1" stop-color="#f9efe8"/><stop offset="1" stop-color="#f9eff6"/></linearGradient><linearGradient id="w" x1="361.19" y1="51.82" x2="361.19" y2="159.81" gradientTransform="translate(0 343.25) scale(1 -1)" gradientUnits="userSpaceOnUse"><stop offset=".08" stop-color="#f27124"/><stop offset=".16" stop-color="#f48320"/><stop offset=".32" stop-color="#f7a01c"/><stop offset=".46" stop-color="#f9b119"/><stop offset=".56" stop-color="#fab818"/><stop offset=".56" stop-color="#fbc113"/><stop offset=".57" stop-color="#fecd0e"/><stop offset=".57" stop-color="#ffd10d"/><stop offset=".92" stop-color="#f9ef5e"/><stop offset=".95" stop-color="#f9ef60"/><stop offset=".96" stop-color="#f9ef67"/><stop offset=".97" stop-color="#f9ef75"/><stop offset=".98" stop-color="#f9ef88"/><stop offset=".98" stop-color="#f9efa0"/><stop offset=".99" stop-color="#f9efbe"/><stop offset="1" stop-color="#f9efe1"/><stop offset="1" stop-color="#f9eff6"/></linearGradient><linearGradient id="x" x1="436.4" y1="33.67" x2="438.63" y2="161.71" gradientTransform="translate(0 343.25) scale(1 -1)" gradientUnits="userSpaceOnUse"><stop offset=".08" stop-color="#f27124"/><stop offset=".17" stop-color="#f48320"/><stop offset=".35" stop-color="#f7a01c"/><stop offset=".5" stop-color="#f9b119"/><stop offset=".62" stop-color="#fab818"/><stop offset=".62" stop-color="#fbc113"/><stop offset=".62" stop-color="#fecd0e"/><stop offset=".63" stop-color="#ffd10d"/><stop offset=".92" stop-color="#f9ef5e"/><stop offset=".95" stop-color="#f9ef60"/><stop offset=".96" stop-color="#f9ef67"/><stop offset=".97" stop-color="#f9ef73"/><stop offset=".98" stop-color="#f9ef85"/><stop offset=".98" stop-color="#f9ef9c"/><stop offset=".99" stop-color="#f9efb8"/><stop offset=".99" stop-color="#f9efd9"/><stop offset=".99" stop-color="#f9eff6"/></linearGradient><linearGradient id="y" x1="173.81" y1="60.89" x2="172.21" y2="151.8" gradientTransform="translate(0 343.25) scale(1 -1)" gradientUnits="userSpaceOnUse"><stop offset=".08" stop-color="#f27124"/><stop offset=".16" stop-color="#f48320"/><stop offset=".32" stop-color="#f7a01c"/><stop offset=".46" stop-color="#f9b119"/><stop offset=".56" stop-color="#fab818"/><stop offset=".56" stop-color="#fbc113"/><stop offset=".57" stop-color="#fecd0e"/><stop offset=".57" stop-color="#ffd10d"/><stop offset=".92" stop-color="#f9ef5e"/><stop offset=".94" stop-color="#f9ef62"/><stop offset=".95" stop-color="#f9ef70"/><stop offset=".96" stop-color="#f9ef86"/><stop offset=".97" stop-color="#f9efa5"/><stop offset=".99" stop-color="#f9efcd"/><stop offset="1" stop-color="#f9eff6"/></linearGradient><linearGradient id="z" x1="197.53" y1="53.67" x2="197.53" y2="65" gradientTransform="translate(0 343.25) scale(1 -1)" gradientUnits="userSpaceOnUse"><stop offset=".08" stop-color="#f27124"/><stop offset=".16" stop-color="#f48320"/><stop offset=".32" stop-color="#f7a01c"/><stop offset=".46" stop-color="#f9b119"/><stop offset=".56" stop-color="#fab818"/><stop offset=".56" stop-color="#fbc113"/><stop offset=".57" stop-color="#fecd0e"/><stop offset=".57" stop-color="#ffd10d"/><stop offset=".92" stop-color="#f9ef5e"/></linearGradient><linearGradient id="aa" x1="238.38" y1="165.57" x2="238.38" y2="198.46" gradientTransform="translate(0 343.25) scale(1 -1)" gradientUnits="userSpaceOnUse"><stop offset=".08" stop-color="#f27124"/><stop offset=".15" stop-color="#f48320"/><stop offset=".29" stop-color="#f7a01c"/><stop offset=".42" stop-color="#f9b119"/><stop offset=".51" stop-color="#fab818"/><stop offset=".51" stop-color="#fbc113"/><stop offset=".53" stop-color="#fecd0e"/><stop offset=".55" stop-color="#ffd10d"/><stop offset=".92" stop-color="#f9ef5e"/><stop offset=".94" stop-color="#f9ef62"/><stop offset=".95" stop-color="#f9ef70"/><stop offset=".96" stop-color="#f9ef86"/><stop offset=".97" stop-color="#f9efa5"/><stop offset=".99" stop-color="#f9efcd"/><stop offset="1" stop-color="#f9eff6"/></linearGradient><linearGradient id="ab" x1="499.8" y1="109.1" x2="499.8" y2="149.28" gradientTransform="translate(292.22 -258.59) rotate(80.78) scale(1 -1)" gradientUnits="userSpaceOnUse"><stop offset=".1" stop-color="#b31e51"/><stop offset=".25" stop-color="#ee354e"/><stop offset=".49" stop-color="#ee354e"/><stop offset=".51" stop-color="#ee3c52"/><stop offset=".54" stop-color="#ef4759"/><stop offset=".71" stop-color="#ee354e"/><stop offset=".76" stop-color="#ee3750"/><stop offset=".8" stop-color="#ee4058"/><stop offset=".83" stop-color="#ef4f66"/><stop offset=".86" stop-color="#f06479"/><stop offset=".88" stop-color="#f28092"/><stop offset=".91" stop-color="#f4a2b0"/><stop offset=".93" stop-color="#f6c9d4"/><stop offset=".95" stop-color="#f9eff6"/></linearGradient><linearGradient id="ac" x1="499.8" y1="105.1" x2="499.8" y2="153.28" gradientTransform="translate(0 343.25) scale(1 -1)" gradientUnits="userSpaceOnUse"><stop offset=".91" stop-color="#211230"/><stop offset="1" stop-color="#652d79"/></linearGradient><linearGradient id="ad" x1="201.97" y1="-440.83" x2="201.97" y2="-411.29" gradientTransform="translate(267.47 -373.09) rotate(28) scale(1 -1)" gradientUnits="userSpaceOnUse"><stop offset=".78" stop-color="#171021"/><stop offset=".85" stop-color="#1a1225"/><stop offset=".92" stop-color="#241a31"/><stop offset=".99" stop-color="#342746"/><stop offset="1" stop-color="#37294a"/></linearGradient></defs><path class="av" d="M117.95,71.94c.59-1.71,1.77-4.91.21-6.1-4.3-2.15-14.6,3.37-18.93,5.4-16.48,8.64-32.41,19.17-46.29,31.55-2.3,2.23-10.03,9.28-8.23,12.32.47.5,1.64.75,2.73.83,2.27.15,4.67-.16,7.04-.47-2.22.93-4.49,1.75-6.99,2.09-1.41.15-2.79.2-4.14-.63-2.77-1.96-1.49-5.92-.29-8.32,9.98-17.63,35.7-34.17,54.27-41.65,5.68-2.09,11.78-4.3,18.05-3.85,5.79.58,5.46,4.87,2.57,8.82h0Z"/><path class="av" d="M119.93,66.54c-6.99-19.46-13.53-39.05-19.95-58.7h4.06c-4.16,14.86-10.31,35.68-14.7,50.61l-3.03-1.42-29.57-13.85,4.25-2.24-4.98,30.71-.51,3.16-3.06-.82c-15.29-4.12-32.67-8.79-47.9-13.08l2.42-3.38c6.09,9.65,12.11,19.36,18.08,29.09,5.96,9.74,11.88,19.51,17.64,29.38-13.48-18.44-26.54-37.17-39.45-56.02l-3.23-4.74c17.39,4.12,36.52,8.84,53.88,13.18l-3.57,2.34,4.75-30.75.61-3.98,3.63,1.74,29.45,14.09-3.97,1.75c2.54-8.2,8.76-27.34,11.34-35.26,1.33-4.07,4.71-14.35,6.02-18.35,6.26,22.08,12.25,44.27,17.77,66.55h.02Z"/><path class="au" d="M155.68,57.49c-1.66,3.13-4.75,4.63-7.48,6.58-2.67,1.91-5.23,3.99-7.95,6.09-.2-.4-.46-.96-.77-1.49-2.12-3.52-4.24-7.03-6.37-10.54-1.21-2-2.02-4.12-1.61-6.48.5-2.92,2.84-5.07,5.5-5.2,3.34-.16,5.91,1.6,6.81,4.67.07.25.18.49.31.83,1.54-2.3,3.7-3.27,6.36-3.05,2.3.19,5.17,2.44,5.34,5.19.02.35.23.7.35,1.05l-.47,2.35h-.02Z"/><path class="ag" d="M238.57,46.25c2.38,3.11,3.16,6.39,1.84,10.13-1.45,4.11-5.18,6.33-10.23,5.82-.91-.09-2.32-.74-1.85,1.26,7-.66,11.2,2.06,12.22,7.93.78,4.51-2.37,9.51-7.08,10.42-3.05.59-5.92-.24-8.48-2.61-2.58-2.39-2.92-5.3-3.11-9.14-3.89,4.3-3.85,9.27-5.17,13.69-.53,0-.5,0-1.03-.02-1.08-3.84-3.89-5.25-7.49-5.52-.1-.31-.1-.32-.2-.63,3.69-2.86,8.15-4.88,10.83-9.7-.9.35-1.31.48-1.7.67-5.21,2.47-11.32-1.12-12.64-6.07-.53-1.98.15-4.28.42-6.47.05-.41.21-.81.45-1.15l.44-.62c.29-.41.72-.66,1.16-.9.02,0,.04-.03.06-.05,5.19-5.83,14.76-1.19,15.42,4.67.05.46.27.93.54,1.31.17.24.57.32.87.48.16-.31.5-.66.44-.94-.1-.53-.41-1.04-.67-1.53-1.72-3.28-1.49-6.41.52-9.48,2.6-3.97,6.34-4.63,10.58-3.89.59.18,1.37.47,2.19.99.72.45,1.27.93,1.67,1.34h0Z"/><path class="bs" d="M173.65,29.08c4.32,3.15,8.62,6.33,12.98,9.44,2.79,1.99,6.17,3.42,8.39,5.89,4.04,4.5,2.23,10.65-3.59,13.09-2.94,1.23-5.73.8-8.84-.33,2.01,2.7,4.02,5.4,6.02,8.11.3.41.5.9.74,1.35l-.44.13c-3.23-.72-6.02.09-8.36,2.43l-.44.13c.24-3.88.48-7.76.69-11.22-2.04,1.44-3.87,3.2-6.06,4.16-3.59,1.58-7.19.75-9.58-2.26-2.37-2.98-2.98-6.2-.8-10.49,2.39-4.7,4.84-9.38,7.06-14.17.89-1.91,1.21-4.08,1.79-6.13.15-.04.29-.09.44-.13Z"/><path class="bm" d="M47.41,169.78s10.95,14.63,16.06,19.17,7.63,9.19,11.87,12.66,11.44,10.85,37.85,10.85,29.84-9.76,29.84-9.76c0,0,5.04,4.77,12.68,3.19s12.33-2.67,12.33-2.67c0,0,5.92-1.26,9.92-6.47s3.8-6.84,3.8-6.84c0,0,6.33,7.02,19.24,7.47s38.96-9.41,50.22-21.4c11.26-11.99,8.79-13.7,8.42-19.06s-1.55-15.96-3.86-21.66-9.38-11.08-9.38-11.08c0,0-.85-5.04-2.17-8.39s.08-3.96-8.93-13.76-23.81-26.21-23.81-26.21l-23.04-5.99-22.68,12.15-14.82-9.57-28.5,9.41-27.19-1.06-31.58,19.31-16.27,69.72h0Z"/><path class="an" d="M112.67,82.51c.48.04.96.11,1.42.19,1.76.32,3.31.97,4.66,1.94s2.42,2.34,3.23,4.09c.8,1.75,1.28,3.91,1.41,6.47.14,2.56-.17,5.6-.94,9.13-.51,2.33-1.23,4.55-2.2,6.66s-2.14,4.04-3.51,5.79c-1.38,1.75-2.94,3.28-4.69,4.59-.31.23-.62.46-.94.67-1.48,1-1.83,3.22-.61,3.84.58.3,1.13.63,1.65,1,1.68,1.17,3.05,2.68,4.13,4.51,1.07,1.84,1.83,3.96,2.29,6.36.46,2.41.56,5.02.32,7.82-.3,3.48-1.06,6.51-2.3,9.09-1.25,2.58-2.8,4.8-4.7,6.63-1.89,1.83-4.03,3.33-6.43,4.47s-4.88,2.01-7.46,2.59-5.17.92-7.78,1.03c-1.56.06-3.06.07-4.51.04-.97-.02-1.91-.06-2.82-.12-2.24-.14-4.57-.4-6.98-.77s-4.83-.89-7.23-1.53c-2.41-.64-4.78-1.43-7.11-2.33-.83-.32-1.65-.66-2.44-1.02-2.5-1.12-4.21-3.48-4.12-5.84,2.67-19.85,8.14-37.56,15.79-56,1.2-2.43,4.16-5.23,7.12-6.89.82-.46,1.65-.91,2.49-1.37,2.58-1.39,5.12-2.7,7.61-3.9s4.88-2.28,7.17-3.21c2.29-.94,4.42-1.71,6.4-2.32,2.3-.7,4.52-1.2,6.66-1.49,1.58-.21,3.05-.26,4.42-.14M86.7,122.33c.15,0,.31,0,.48-.04.31-.07.63-.15.97-.23,1.25-.31,2.51-.8,3.77-1.48,1.26-.68,2.42-1.59,3.48-2.75,1.06-1.16,1.84-2.65,2.37-4.48.33-1.15.42-2.1.24-2.84-.17-.74-.48-1.31-.92-1.72-.44-.4-.98-.66-1.61-.76-.19-.03-.38-.05-.57-.07-.42-.03-.83,0-1.21.07-.7.13-1.41.37-2.15.73-.27.13-.55.27-.82.41-.83.42-1.58,1.25-1.89,2.1-1.34,3.68-1.97,5.52-3.12,9.21-.32,1.03.13,1.81.98,1.86M82.64,147.44h.5c.76-.02,1.6-.13,2.53-.33s1.82-.58,2.68-1.14,1.6-1.31,2.24-2.24c.64-.94,1.06-2.16,1.28-3.67s.15-2.72-.21-3.64c-.36-.91-.87-1.6-1.53-2.07-.66-.47-1.42-.75-2.29-.86-.33-.04-.65-.06-.96-.08-.51-.02-1.01-.02-1.48.02-.46.04-.91.1-1.36.18-.98.17-1.89,1.11-2.1,2.13-.8,3.86-1.14,5.79-1.68,9.64-.14.98.44,1.81,1.34,1.96.35.06.69.09,1.03.1M116.94,71.82c-1.91-.19-3.97-.14-6.15.15-2.58.34-5.32.95-8.19,1.82-2.28.69-4.78,1.6-7.45,2.69-2.47,1.01-5.15,2.2-7.95,3.54-2.63,1.26-5.43,2.67-8.32,4.22-.91.48-1.81.97-2.7,1.46-6.42,3.52-12.54,9.32-15.57,15.13-8.43,19.3-14.35,37.67-17.07,58.64-.16,6.45,3.94,12.12,10.13,14.77.97.42,1.97.81,2.96,1.18,2.76,1.02,5.53,1.89,8.24,2.58,2.83.72,5.64,1.28,8.36,1.67,2.74.39,5.41.66,7.93.8,1.07.06,2.17.09,3.26.11,1.67.02,3.4-.01,5.13-.1,3.32-.16,6.62-.63,9.84-1.39,3.44-.82,6.8-2.03,10.01-3.61,3.7-1.81,7.06-4.21,10.02-7.15,3.04-3,5.55-6.58,7.48-10.65,1.89-3.97,3.03-8.48,3.43-13.41.31-3.78.14-7.38-.5-10.7-.66-3.41-1.78-6.5-3.33-9.18-.47-.82-.98-1.6-1.53-2.33.03-.04.06-.08.09-.12,2.06-2.68,3.79-5.65,5.15-8.8,1.29-2.98,2.25-6.13,2.85-9.36.85-4.53,1.11-8.6.82-12.12-.31-3.72-1.13-6.96-2.41-9.65-1.36-2.87-3.16-5.15-5.37-6.79-2.09-1.55-4.46-2.59-7.11-3.11-.66-.13-1.35-.23-2.05-.3h0Z"/><path class="bu" d="M153.98,76.92c1.85.18,3.22,1.63,2.97,4.57-2.87,24.9-7.19,49.57-10.69,74.38-.37,3-2.6,5.65-5.22,6.17-5.22,1.02-6.74,1.34-11.94,2.15-.28.04-.55.06-.82.05-2.61-.07-4.65-2.43-4.54-5.53,1.16-24.62,3.58-49.01,6.61-73.46.68-3.13,2.83-5.13,5.03-5.58,5.76-1.19,12.15-2,17.57-2.73.36-.05.7-.06,1.03-.02M156.03,66.6h0c-.9-.1-1.83-.08-2.78.04-.61.08-.92.12-1.53.2-4.86.64-10.47,1.39-15.73,2.48-6.94,1.44-13.51,8.1-15.63,16.34-.03.12-.05.18-.08.3-.02.12-.04.18-.06.3-2.36,12.34-4.21,24.45-5.6,36.94-1.09,12.35-1.87,24.6-2.35,36.99-.24,8.55,5.95,14.74,14.12,14.88.98.02,1.98-.06,2.97-.22,5.04-.82,6.87-1.2,11.29-2.1.43-.09.65-.13,1.08-.22,8.28-1.69,14.92-8.87,15.93-17.22.87-7.19,1.89-14.68,2.9-21.93,2.41-17.36,4.51-34.66,5.86-52.13v-.28c.28-7.87-4.1-13.7-10.39-14.38h0Z"/><path class="ap" d="M186.79,73.79c.52.05,1.05.13,1.59.22,1.14.2,2.39.48,3.75.85,1.36.37,2.75.82,4.17,1.36,1.43.54,2.87,1.18,4.33,1.91.95.47,1.87.98,2.77,1.51.86.51,1.61,1.39,1.87,2.21,1.69,5.26,2.43,7.94,3.65,13.38.26,1.14-.48,1.96-1.57,1.87-.14,0-.28-.04-.42-.08-1.02-.28-2.04-.5-3.05-.66-1.08-.17-2.14-.3-3.17-.38-.75-.06-1.48-.1-2.21-.11-2.42-.05-4.6.34-6.58,1.21-1.98.87-3.66,2.17-5.08,3.91s-2.52,3.89-3.31,6.44c-.8,2.54-1.15,5.42-1.04,8.57.07,1.98.36,3.86.88,5.64s1.28,3.3,2.29,4.56,2.26,2.19,3.76,2.79c.78.31,1.63.49,2.55.54.83.04,1.71-.02,2.64-.19,1.33-.24,2.69-.67,4.08-1.28,1.03-.45,1.94-1.01,2.73-1.68.49-.41.78-1.01.78-1.61,0-.52,0-.78-.02-1.29,0-.91-.69-1.59-1.54-1.65-.11,0-.23,0-.34,0-2.93.4-4.41.59-7.38.97-.18.02-.35.03-.51.02-1.43-.08-2.53-1.3-2.55-2.91-.04-4.14-.11-6.21-.33-10.32-.09-1.67.95-3.07,2.4-3.21,3.9-.37,7.76-.7,11.6-.98,3.39-.25,6.76-.49,10.12-.73.2,0,.4,0,.6,0,1.9.14,3.75,1.56,4.22,3.38,2.19,8.45,2.95,12.69,3.76,21.15.35,3.74-1.74,7.92-5.53,11.28-.03.03-.04.04-.07.06-2.44,2.16-5.12,4.2-8,6.09s-5.87,3.58-8.92,5.04-5.95,2.6-8.68,3.41c-3.65,1.08-7.07,1.58-10.26,1.48-1.42-.05-2.8-.21-4.13-.5-4.31-.94-7.98-2.98-11-6.06s-5.3-7.08-6.82-11.9c-1.51-4.83-2.05-10.24-1.7-16.13.27-4.49.96-8.92,1.98-13.26,1.02-4.34,2.31-8.43,3.79-12.22,1.48-3.8,3.14-7.24,4.93-10.3s3.7-5.6,5.75-7.6,4.24-3.41,6.68-4.22c2-.67,4.17-.86,6.57-.61M186.67,63.75c-3.28-.38-6.32-.09-9.14.88-3.44,1.18-6.66,3.29-9.71,6.3-2.75,2.71-5.39,6.15-7.88,10.24-2.26,3.72-4.41,7.92-6.34,12.49-1.87,4.45-3.53,9.24-4.86,14.21-1.34,5.05-2.28,10.22-2.7,15.34-.59,7.1,0,13.69,1.79,19.55,1.87,6.11,4.86,11.21,8.79,15.16,4.32,4.34,9.65,7.16,15.77,8.43,1.99.41,4.07.65,6.19.7,4.51.11,9.35-.61,14.38-2.1,3.39-1.01,7.03-2.43,10.81-4.22,3.53-1.67,7.1-3.66,10.6-5.91,3.35-2.16,6.57-4.55,9.54-7.12.03-.02.04-.03.06-.06,6.63-5.74,9.87-12.89,9-19.72-1.11-8.73-2.11-13.26-4.78-21.97-1.45-4.71-5.18-8.54-9.53-10.39-.08-.63-.2-1.26-.38-1.9-1.55-5.6-2.51-8.46-4.59-13.87-1.39-3.63-4.26-6.93-7.49-8.87-1.12-.67-2.27-1.31-3.41-1.89-1.74-.89-3.45-1.66-5.08-2.31-1.66-.65-3.26-1.21-4.79-1.64-1.52-.44-2.95-.78-4.25-1.03-.68-.13-1.35-.23-2-.31h0Z"/><path class="cd" d="M119.15,148.72c-.27,3.43-.96,6.43-2.12,8.97-1.16,2.54-2.63,4.72-4.41,6.52s-3.79,3.27-6.06,4.39c-2.27,1.12-4.61,1.96-7.06,2.53-2.44.57-4.9.89-7.38.99-2.48.09-4.8.05-6.96-.09-2.13-.15-4.35-.41-6.64-.78-2.3-.37-4.6-.89-6.89-1.53-2.3-.64-4.56-1.42-6.79-2.32-.8-.32-1.57-.66-2.34-1.01-2.39-1.11-4.17-3.56-4.01-5.76,1.37-19.26,6.76-37.36,14.37-55.26.99-2.34,3.93-5.17,6.76-6.8.78-.45,1.58-.9,2.37-1.35,2.46-1.38,4.89-2.67,7.27-3.85,2.38-1.19,4.68-2.25,6.87-3.18,2.2-.93,4.24-1.69,6.15-2.29,2.22-.69,4.35-1.19,6.41-1.47s3.93-.26,5.63.06c1.7.32,3.19.97,4.5,1.93,1.31.96,2.34,2.32,3.12,4.06.78,1.74,1.23,3.88,1.36,6.42.13,2.53-.16,5.55-.89,9.05-.48,2.3-1.18,4.5-2.1,6.59-.93,2.09-2.04,4-3.35,5.72-1.31,1.73-2.8,3.24-4.47,4.53-.3.23-.59.45-.9.66-1.41.98-1.73,3.18-.56,3.8.55.29,1.08.62,1.59.99,1.61,1.16,2.93,2.65,3.97,4.47,1.03,1.82,1.77,3.91,2.22,6.29.45,2.38.56,4.96.35,7.73h-.01ZM87.12,136.65c-.43.04-.87.09-1.29.17-.93.17-1.79,1.09-1.98,2.1-.73,3.81-1.03,5.72-1.49,9.51-.12.97.44,1.79,1.3,1.94h0c.49.08.98.12,1.46.11.72-.02,1.53-.12,2.41-.32.88-.2,1.72-.57,2.54-1.12.81-.55,1.51-1.29,2.11-2.21.6-.92.99-2.13,1.18-3.62.2-1.49.12-2.69-.23-3.59-.36-.9-.85-1.59-1.48-2.05-.63-.47-1.36-.75-2.19-.85s-1.6-.12-2.32-.06h-.02ZM98.77,116.83c.31-1.14.38-2.08.22-2.81-.17-.73-.46-1.3-.89-1.7s-.94-.65-1.55-.76c-.61-.1-1.18-.1-1.71,0-.67.13-1.35.37-2.06.72-.26.13-.52.26-.78.4-.79.42-1.51,1.24-1.79,2.08-1.25,3.64-1.84,5.46-2.91,9.1-.35,1.2.31,2.05,1.41,1.8.29-.07.6-.14.92-.23,1.19-.3,2.39-.79,3.59-1.46,1.2-.67,2.3-1.57,3.31-2.71,1.01-1.14,1.75-2.62,2.24-4.42h0Z"/><path class="cd" d="M155.77,85.32c-2.98,24.62-7.21,49.05-10.48,73.63-.34,2.96-2.44,5.57-4.94,6.07-4.96,1-6.4,1.31-11.34,2.09-2.84.45-5.23-2.04-5.15-5.41.93-24.36,3.2-48.48,6.15-72.67.66-3.11,2.74-5.09,4.88-5.54,5.58-1.18,11.78-1.98,17.04-2.7,2.29-.31,4.15,1.07,3.84,4.52h0Z"/><path class="cd" d="M218,132.74c.27,3.7-1.81,7.84-5.48,11.16-.03.03-.04.04-.07.06-2.36,2.13-4.95,4.15-7.72,6.01-2.77,1.86-5.63,3.53-8.55,4.97-2.92,1.43-5.69,2.56-8.3,3.35-5.04,1.53-9.6,1.87-13.71.93s-7.6-2.96-10.48-6c-2.88-3.05-5.06-7-6.5-11.78-1.44-4.77-1.94-10.13-1.58-15.95.28-4.44.96-8.83,1.97-13.13s2.29-8.35,3.75-12.12c1.47-3.76,3.1-7.18,4.88-10.22,1.78-3.03,3.66-5.56,5.69-7.55s4.19-3.39,6.58-4.19,5-.91,7.98-.39c1.11.2,2.32.48,3.64.84,1.32.37,2.66.82,4.04,1.36,1.38.54,2.77,1.18,4.18,1.9.91.47,1.8.97,2.66,1.51.82.51,1.53,1.38,1.76,2.2,1.49,5.23,2.14,7.9,3.18,13.3.25,1.27-.71,2.14-1.98,1.78-.98-.28-1.96-.5-2.94-.66-1.8-.29-3.53-.46-5.2-.49-2.35-.05-4.46.34-6.4,1.2-1.93.86-3.58,2.15-4.98,3.88-1.4,1.73-2.49,3.86-3.29,6.38-.8,2.52-1.18,5.37-1.1,8.49.05,1.96.3,3.83.78,5.59s1.19,3.27,2.15,4.52c.96,1.25,2.15,2.17,3.58,2.77,1.43.6,3.09.71,4.96.36,1.27-.24,2.58-.66,3.92-1.26.99-.45,1.87-1,2.64-1.66.47-.41.76-1,.77-1.6v-1.28c0-1.02-.81-1.75-1.79-1.62-2.83.39-4.25.58-7.1.96-1.61.21-2.91-1.09-2.9-2.87,0-4.11-.02-6.15-.18-10.22-.06-1.65.96-3.04,2.37-3.18,3.77-.37,7.5-.68,11.21-.96,3.28-.24,6.55-.48,9.8-.72,2.04-.15,4.13,1.37,4.58,3.35,1.91,8.38,2.55,12.59,3.17,20.97h0Z"/><path class="bl" d="M118.68,145.9c-.3,3.48-1.05,6.51-2.29,9.09-1.24,2.58-2.8,4.8-4.69,6.63-1.89,1.83-4.02,3.33-6.42,4.47s-4.88,2.01-7.46,2.59c-2.58.59-5.17.93-7.78,1.03s-5.05.07-7.32-.07c-2.24-.14-4.57-.4-6.98-.77s-4.83-.88-7.23-1.53c-2.41-.64-4.78-1.42-7.11-2.33-.83-.32-1.65-.66-2.45-1.02-2.5-1.12-4.33-3.6-4.14-5.84,1.72-19.6,7.59-37.93,15.71-56.01,1.06-2.37,4.16-5.24,7.12-6.89.82-.46,1.65-.92,2.49-1.37,2.58-1.4,5.12-2.7,7.61-3.9s4.89-2.28,7.18-3.22,4.42-1.71,6.41-2.32c2.31-.7,4.52-1.21,6.66-1.49,2.14-.29,4.08-.27,5.84.05,1.77.32,3.31.97,4.67,1.94s2.42,2.34,3.23,4.09,1.28,3.91,1.41,6.47c.14,2.56-.17,5.61-.94,9.14-.51,2.33-1.24,4.55-2.21,6.66s-2.14,4.04-3.51,5.79-2.94,3.28-4.69,4.59c-.31.23-.62.46-.94.67-1.48,1-1.82,3.22-.6,3.84.58.3,1.13.63,1.66,1,1.68,1.17,3.06,2.68,4.13,4.51,1.07,1.84,1.84,3.96,2.3,6.36.46,2.41.57,5.02.32,7.82l.02.02ZM85.17,133.77c-.46.04-.91.1-1.36.18-.98.17-1.89,1.11-2.1,2.13-.8,3.86-1.14,5.79-1.67,9.64-.14.98.44,1.81,1.35,1.96h0c.51.08,1.03.12,1.53.1.76-.02,1.6-.13,2.53-.33s1.82-.58,2.67-1.14c.86-.56,1.6-1.31,2.24-2.25s1.06-2.16,1.27-3.67c.22-1.51.15-2.72-.21-3.64-.37-.91-.87-1.6-1.54-2.07-.66-.47-1.42-.75-2.29-.85s-1.68-.12-2.44-.06h.02ZM97.52,113.68c.33-1.15.41-2.1.24-2.84-.17-.74-.48-1.31-.92-1.72-.44-.4-.98-.66-1.62-.76-.63-.1-1.23-.1-1.78,0-.7.13-1.41.37-2.16.73-.27.13-.55.27-.82.41-.83.43-1.58,1.26-1.89,2.1-1.34,3.68-1.96,5.52-3.11,9.21-.38,1.21.31,2.07,1.46,1.81.31-.07.63-.15.97-.23,1.25-.31,2.51-.8,3.77-1.48,1.26-.68,2.42-1.59,3.48-2.75,1.06-1.16,1.84-2.65,2.37-4.48h.01Z"/><path class="aq" d="M156.78,81.8c-2.89,24.9-7.22,49.58-10.71,74.4-.37,3-2.59,5.65-5.22,6.17-5.22,1.03-6.74,1.35-11.94,2.15-2.99.46-5.48-2.05-5.37-5.47,1.14-24.63,3.55-49.02,6.6-73.48.68-3.13,2.84-5.13,5.04-5.58,5.77-1.19,12.17-2,17.6-2.74,2.36-.32,4.3,1.08,4,4.55h0Z"/><path class="bo" d="M222.04,129.54c.35,3.74-1.75,7.92-5.55,11.28-.03.03-.04.04-.07.06-2.44,2.16-5.13,4.2-8.01,6.09-2.89,1.89-5.87,3.58-8.92,5.04-3.05,1.46-5.95,2.6-8.69,3.41-5.29,1.56-10.08,1.92-14.39.98s-7.98-2.97-11-6.05c-3.02-3.08-5.31-7.07-6.82-11.9-1.51-4.83-2.05-10.24-1.69-16.13.27-4.49.96-8.92,1.99-13.26s2.32-8.43,3.81-12.23c1.49-3.8,3.15-7.25,4.95-10.3,1.8-3.06,3.71-5.6,5.77-7.61s4.26-3.41,6.7-4.22,5.12-.92,8.18-.39c1.14.2,2.39.48,3.75.85,1.36.37,2.75.82,4.18,1.36s2.87,1.18,4.33,1.91c.95.47,1.87.98,2.77,1.51.86.51,1.61,1.39,1.87,2.22,1.68,5.26,2.42,7.94,3.63,13.39.28,1.28-.68,2.16-2.01,1.79-1.02-.28-2.04-.5-3.06-.66-1.86-.29-3.66-.46-5.39-.49-2.43-.05-4.61.34-6.59,1.21-1.98.87-3.67,2.17-5.09,3.92-1.42,1.74-2.53,3.89-3.33,6.44s-1.16,5.42-1.05,8.57c.07,1.98.35,3.86.87,5.64.52,1.78,1.27,3.3,2.28,4.56s2.26,2.19,3.76,2.79c1.5.6,3.23.71,5.19.35,1.33-.24,2.69-.67,4.08-1.28,1.03-.45,1.94-1.01,2.73-1.68.49-.41.78-1.01.78-1.61,0-.52,0-.78,0-1.29-.02-1.03-.87-1.77-1.88-1.63-2.94.4-4.42.59-7.39.97-1.67.21-3.04-1.1-3.06-2.89-.04-4.15-.1-6.21-.32-10.32-.09-1.67.95-3.07,2.41-3.21,3.9-.37,7.77-.7,11.61-.98,3.39-.25,6.77-.49,10.14-.73,2.11-.15,4.3,1.37,4.82,3.38,2.17,8.45,2.93,12.7,3.73,21.16v-.02Z"/><path class="bd" d="M71.91,187.93c11.77,2.84,24.18,2.55,35.92-.19,3.98-.84,7.79-2.17,11.69-3.38-14.18,8.02-32.49,10.24-47.61,3.57h0Z"/><path class="bd" d="M136.07,187.29c10.84-2.19,21.12-6.1,31.73-9.14-8.42,5.24-21.77,9.97-31.73,9.14h0Z"/><path class="bd" d="M182.04,179.35c8.32,3.32,17.77,2.37,26.06-.51,11.34-3.84,30.49-16.76,35.77-27.64.68-1.46,1.26-3.02,1.27-4.65.32,3.34-1.36,6.51-2.98,9.32-5.51,8.33-13.73,14.42-22.14,19.58-11.13,6.57-25.97,10.32-37.97,3.9h0Z"/><path class="bm" d="M53.91,331.12h0c.12.04,22.63,8.17,29.9,10.55s19.1-3.44,22.95-11.09c3.85-7.65,5.09-10.26,10.47-10.76,5.37-.51,16.78-4.17,22.19-10.06s9.43-12.22,9.45-12.26h0s5.02,7.3,11.55,7.51,9.8-.39,13.34,1.19c3.54,1.57,7.57,1.98,13.35.77s6.13-1.8,6.13-1.8c0,0,4.89,12.8,17.65,7.02,9.41-4.26,9.32-9.78,8.63-12.39-.02-.07.04-.12.1-.11l3.92.49c2.34.28,3.7.26,3.72.26h0s.95,10.82,11.42,11.95,14.28-7.6,14.95-12.05c.65-4.38.67-11.78.67-12.01h0c.13.19,3.7,5.44,9.28,8.66,5.68,3.29,9.94,3.67,14.85,3.39,4.92-.28,8.43,2.04,10.16,2.53s3.95.67,3.95.67h0s-1.13,14.5,11.18,18.99,16.72-6.14,16.72-6.14c0,0,3.36.46,6.83-1.04s3.71-2.69,3.71-2.69c0,0,3.19,2.45,7.99,2.45s6.96-2.23,8.95-4.22,5.3-6.9,5.3-6.9c0,0,5.92,6.74,14.04,6.74s9.66-5.09,9.66-5.09c0,0,1.1.08,1.76,0s1.38-.18,1.38-.18c0,0-.09,9.28,6.18,13.28s9.21,3.92,13.13,3.45c3.46-.41,4.7-1.56,4.94-1.83.03-.04.07-.05.12-.04.66.09,5.66.71,8.87-.13,3.45-.9,14.16-7.48,14.16-7.48,0,0,2.11,1.26,3.83,1.75s4.38.91,4.38.91c0,0,2.32,1.49,4.35,2.02s4.8.61,4.81.61h0s1.26,7.61,7.73,10.9c6.48,3.29,7.81,2.37,10.36,2.18s31.63-12.01,31.79-12.07h0l-15.76-57.48h0l-38.19-27.29h0l-30.59-48.56h0l-90.86-2.46h0l-3.33,12.25h0l-21.17-2.01h0l-32.55-6.84h0l-2.23-38.05h0l-11.99-9.37h0l-23.73,3.73h0l-6.29,17.19h0l-1.68,2.41h0l-1.27,11.04h0s.79,14.3,2.35,21.76c.67,3.23-18.43,3.34-40.77,8.19-29.37,6.38-64.05,17.25-64.05,17.25l-47.2,9.88s8.27-33.22,8.27-33.21l-19.71,133.67-.05-.03Z"/><path class="ch" d="M136.52,193.96c1.68,0,2.7,1.82,2.28,4.15-1.34,7.46-2,11.19-3.32,18.65-.05.22-.1.44-.2.63h.1c-2.39,13.53-4.77,27.06-7.13,40.6-2.9,18.74-14.31,37.54-34.98,39.26-1.74.07-5.68.51-9.61,3.28-.82.58-1.65,1.26-2.47,2.07-1.19,1.17-3.78,3.84-5.95,7.87-.71,1.32-1.43,2.98-3.58,5.9-2.48,3.36-3.72,4.23-4.52,4.78-1.99,1.36-4.16,2.05-5.57,2.05-.14,0-.28,0-.4-.02-4.02-.44-1.18-7.49-2.36-16.37-.63-4.77-1.65-8.69-2.52-11.57-4.06-11.75.25-24.58,3.96-35.82.21-.76.32-1.14.53-1.91.59-2.19,2.42-4.08,4.26-4.43,7.81-1.47,11.7-2.21,19.43-3.68.28-.05.56-.08.83-.08,1.77,0,3.15,1.15,3.6,3.16.33,1.46.04,3.27-.72,4.93-1.46,3.18-3.36,8.87-2.39,12.66.46,1.79,2.04,3.68,4.5,3.68.23,0,.47-.02.71-.05,8.09-1.15,10.67-6,12.37-14.1,2.12-10.18,4.26-20.35,6.42-30.52.5-2.33-.53-4.15-2.28-4.15h-.26c-1,.13-2.51.46-4.29.92-2.5.64-3.25,1.14-4.83,1.58-1.02.28-1.8.38-2.46.38-1.57,0-2.44-.56-4.09-.56-.49,0-1.06.05-1.73.18-4,.77-4.33,2.9-7.8,3.28-.28.03-.54.04-.78.04-2.38,0-3.23-1.33-4.94-1.33-.46,0-.98.1-1.6.34-1.54.59-3.88,2.13-4.91,4.31-1.16,2.47.29,3.68-1.11,6.57-.19.39-1.27,2.58-2.91,3.15-.25.09-.52.13-.78.13-.59,0-1.14-.24-1.45-.75-.38-.63-.24-1.44-.19-1.76.1-.65.36-1.22,1.38-3,.89-1.55,1.08-1.78,1.39-2.34.97-1.76.9-2.83,1.47-5.64.22-1.07.58-2.68,1.19-4.68,2.72-9.73,4.09-14.59,6.84-24.32.67-2.39,2.65-4.39,4.43-4.48,18.78-.98,37.56-1.97,56.34-2.97h.12M138.49,184.82c-.17,0-.33,0-.5.01-5.86.31-8.8.47-14.68.79-13.61.73-27.22,1.46-40.83,2.18-6.24.32-13.1,6.57-15.27,13.92-2.87,9.69-4.29,14.53-7.14,24.21-.59,1.9-1.09,3.76-1.47,5.52-.19.89-.32,1.62-.43,2.2-.03.19-.07.39-.11.58-.24.38-.57.92-1.06,1.76-1.3,2.21-2.41,4.25-2.86,6.8-.45,2.6-.15,4.82.92,6.6.2.33.43.65.67.94-1.91,2.18-3.39,4.76-4.17,7.5-.13.44-.19.65-.32,1.09-.07.26-.11.39-.19.64-.23.72-.34,1.07-.57,1.79-4.2,12.23-8.22,25.91-3.88,38.68.99,3.44,1.68,6.75,2.09,10.12.34,2.81.18,5.53.05,7.93-.28,4.91-.71,13.14,8.7,14.16.5.05,1.03.08,1.56.08,4.16,0,8.95-1.63,13.09-4.46,2.03-1.39,4.38-3.31,7.7-7.87,2.31-3.16,3.38-5.31,4.1-6.74.1-.2.19-.39.29-.56,1.38-2.64,3.04-4.27,3.59-4.81.24-.24.48-.44.74-.62,1.07-.75,2.39-.88,2.91-.9.18,0,.36-.02.55-.03,13.03-1.09,25.06-7.56,33.08-17.9,7.32-9.03,9.92-19.79,12.38-30.82,1.31-8.16,1.96-12.25,3.28-20.41,1.3-8.05,1.96-12.08,3.28-20.13.02-.15.05-.3.06-.45,0-.06.02-.12.03-.18.61-3.71.91-5.56,1.52-9.27.62-3.75.93-5.63,1.55-9.38,1.21-7.28-2.6-12.98-8.67-12.98h0ZM93.22,236.93c1.58,0,3.22-.24,5.02-.74.48-.13.91-.27,1.3-.4-.79,3.51-1.18,5.26-1.97,8.77-.13.6-.2.9-.34,1.51-1.7-3.7-5.13-5.91-9.44-5.91-.84,0-1.71.09-2.58.25-3.24.63-4.87.94-8.12,1.56.33-.74.59-1.45.8-2.11.24.01.48.02.74.02.57,0,1.16-.03,1.76-.1,4.35-.47,7.22-2.36,8.76-3.38.11.02.24.05.34.08.82.18,2.06.46,3.73.46h0Z"/><path class="at" d="M243.65,187.56c.79,0,1.52.36,2.06,1.03.63.77.93,1.86.83,2.97-1.09,11.57-2.08,23.12-2.94,34.71-.8,13.77-1.4,27.52-1.85,41.31.01.27,0,.57,0,.9-.04,1.15-.06,1.72-.11,2.87-.3,6.24-.69,13.29-1.48,14.52-.31.48-1.09,1.71-2.53,2.16-.17.05-.66.19-1.24.19-.43,0-.9-.08-1.33-.32-1.47-.84-2.1-2.3-1.77-3.57.61-2.35.94-2.4,2.36-5.32,1.05-2.17-.85-4.9-1.93-5.43-.62-.3-.97-.4-1.3-.4-.52,0-.95.25-2.22.32-.19.01-.34.02-.49.02-.86,0-1.14-.18-3.29-.4-.29-.03-.55-.04-.8-.04-2.32,0-2.9,1.15-4.51,1.15-.3,0-.63-.04-1.02-.13-1.39-.34-3.1-1.67-3.66-2.95-2.4-3.25-2.24-10.26-1.88-16.8.88-15.3,2.19-30.27,4.79-45.38,1.15-5.57,2.41-11.27,3.79-16.84.57-2.27,2.35-3.91,4.34-3.98,6.43-.22,9.64-.33,16.06-.55h.09M244.01,178.42h-.35c-4.38.15-6.57.23-10.96.38-1.94.07-2.91.1-4.84.17-5.75.2-10.91,4.88-12.61,11.36-1.37,5.22-2.72,10.89-4.13,17.33-2.87,15.43-4.47,30.72-5.59,46.36,0,.21-.02.31-.04.52-.56,8.28-.79,16.17,2.78,21.65,1.77,3.21,5.27,5.87,9.01,6.76,1.09.26,2.18.39,3.24.39,1.36,0,2.54-.21,3.52-.48-1.2,5.06,1.07,10.21,5.84,12.92,1.8,1.02,3.92,1.56,6.13,1.56,1.42,0,2.9-.22,4.28-.65,3.29-1.01,5.97-3.11,7.95-6.22,1.82-2.85,2.25-5.88,2.71-19.04v-.1c.03-1.15.04-1.72.07-2.87v-1.22c.2-13.57.56-27.14,1.27-40.69.6-11.47,1.53-22.92,2.45-34.36.3-3.66-.78-7.28-2.92-9.91-2.01-2.46-4.83-3.87-7.78-3.87h-.03Z"/><path class="bv" d="M199.56,280.93c-.19-.41-1.28-2.67-2.01-2.67-.04,0-.07,0-.11.01-.73.23.29,2.79-1.36,5.56-.52.88-1.06,1.37-1.41,1.88,1.26.41,2.63.62,4.06.62.48,0,.97-.03,1.45-.08h.06c.14-.02.28-.03.42-.06.52-1.91-.39-3.79-1.1-5.26h0Z"/><path class="bh" d="M203.37,271.36c-.1-.33-.17-.67-.21-1.01-1.26-.74-2.81-1.24-4.69-1.24-1.08,0-2.15.18-3.2.53-.93.31-2.76,1.07-4.4,2.71.09-.06.19-.13.29-.19.46-.3.86-.56,1.21-.79.02-.01.03-.02.04-.02,1.51-.99,2.21-1.34,3.26-1.5.26-.05.74-.12,1.22-.12.62,0,1.25.11,1.53.53.75,1.14-2.31,3.35-1.69,5.27.33,1.02,1.61,1.66,2.89,1.66.13,0,.27-.01.4-.03,1.69-.19,2.84-1.51,3.31-2.54.63-1.42.17-2.8.04-3.26h0Z"/><path class="cl" d="M217.1,191.96c-.54-5.93-4.76-10.23-10.09-10.23-.2,0-.4,0-.61.01-6.64.38-9.97.57-16.63.95-3.06.18-6.16,1.78-8.53,4.38-1.52,1.67-2.68,3.69-3.37,5.83-.26-2.05-.99-3.92-2.14-5.42,0-.01-.03-.03-.04-.05-1.77-2.27-4.32-3.52-7.22-3.52-.19,0-.39.01-.58.02-6.81.38-10.23.57-17.06.95-5.67.33-11.14,5.12-13.02,11.39-4.65,16.55-8.24,32.88-10.59,49.91-.99,8.48.27,16.56,3.82,23.37.08.17.11.25.19.42,1.5,3.3,2.62,5.69,2.83,7.14.07.46.12.82.15,1.14.19,1.52.46,3.81,2.32,6.09,3.61,4.43,9.37,4.43,11.53,4.43.89,0,1.79-.03,2.66-.06.87-.03,1.76-.06,2.65-.06,1.65,0,3.03.11,4.34.36.82.15.89.19,1.26.38,1.32.7,2.99,1.48,6.02,1.89,1.38.18,2.77.27,4.14.27,6.83,0,12.28-2.2,15.55-3.98-.22,4.56,2.26,8.57,6.43,10.28,1.41.58,2.93.87,4.53.87,2.15,0,4.31-.53,6.43-1.56,2.13-1.03,5.03-3.07,6.9-6.9,0-.02.02-.05.03-.07,1.67-3.5,1.53-6.73.89-9.28.82-.99,1.49-2.09,2.01-3.27,1.27-2.95,1.42-6.04.5-9.24.1-.72.61-2.49,1.03-3.93.35-1.2.75-2.56,1.16-4.13,1.07-4.06,1.91-8.15,2.6-12.5.41-2.06.68-4.15.81-6.19.83-16.71.37-33.02-.9-49.69h0ZM172.19,243.44c1.21-13.37,2.73-26.59,4.56-39.9-.81,13.3-1.87,26.59-3.4,39.83-.09.78-.2,1.37-.29,1.8-.15.02-.31.03-.49.04h-.44c0-.43,0-1.01.06-1.78h0ZM200.66,286.19c-.14.03-.28.04-.42.06h-.06c-.48.05-.97.08-1.45.08-1.43,0-2.8-.21-4.06-.62.35-.51.89-1,1.41-1.88,1.65-2.77.63-5.33,1.36-5.56.04-.01.07-.01.11-.01.73,0,1.82,2.26,2.01,2.67.71,1.47,1.62,3.35,1.1,5.26h0ZM203.33,274.62c-.47,1.03-1.62,2.35-3.31,2.54-.13.02-.27.03-.4.03-1.28,0-2.56-.64-2.89-1.66-.62-1.92,2.44-4.13,1.69-5.27-.28-.42-.91-.53-1.53-.53-.48,0-.96.07-1.22.12-1.05.16-1.75.51-3.26,1.5,0,0-.02.01-.04.02-.35.23-.75.49-1.21.79-.1.06-.2.13-.29.19-1.24.81-2.14,1.39-2.83,1.84-1.5.98-1.96,1.29-2.77,1.96-1.74,1.41-1.58,1.57-2.74,2.48,0,0-4.81,3.77-12.13,3.77-.9,0-1.84-.05-2.82-.18-3.42-.46-2.6-1.43-6.72-2.2-2.18-.41-4.18-.52-6.01-.52-1.96,0-3.72.13-5.24.13-2.28,0-4.03-.28-5.15-1.65-.76-.93-.64-1.64-.99-3.77-.43-2.66-1.79-5.43-3.79-9.78,0-.01,0-.02,0-.03-2.89-5.4-4.12-11.94-3.36-19.14,2.03-16.4,5.29-32.13,9.55-48.09.5-1.73,2.03-3.07,3.61-3.16,6.94-.38,10.41-.57,17.33-.95h.16c.81,0,1.54.35,2.03.98.51.67.72,1.6.55,2.57-2.58,15.77-4.71,31.53-6.34,47.43-.69,7.35,1.42,10.33,7.47,10.33.34,0,.68-.01,1.04-.03,6.83-.34,9.79-3.49,10.58-11.21,1.6-15.79,2.47-31.62,3.23-47.46.04-.95.44-1.91,1.1-2.63.66-.73,1.51-1.17,2.38-1.22,6.78-.38,10.16-.57,16.91-.94.06-.01.12-.01.18-.01,1.49,0,2.65,1.19,2.78,2.83,1.02,16.12,1.25,31.88.24,48-.13,1.76-.39,3.49-.76,5.19-.84,4.97-1.8,8.91-2.59,11.77-1.61,5.8-2.98,8.86-2.6,11.69.04.34.11.68.21,1.01.13.46.59,1.84-.04,3.26h0Z"/><path class="ci" d="M286.17,187.29c12.89.17,24.83,7.21,31.91,17.88.21.32.38.66.49,1.02,1.92,4.13,2.11,6.1,2.92,8.36,2.19,6.13,2.77,8.72,2.81,11.5,0,.72.44,2.17-.22,3.44-.11.21-.89,1.7-2.36,1.7h-.18c-1.38-.11-2.38-1.46-2.75-2.46-.45-1.21-.14-2.27-.04-2.58.3-.94.84-1.33,1.18-1.77,1.34-1.73,1.01-5.93-1.26-8.03-1.2-1.11-2.65-1.36-3.77-1.36-.78,0-1.4.13-1.65.18-2.18.45-2.99,1.79-4.83,3.09-1.25.88-4.8,2.16-7.29,2.16-.74,0-1.38-.11-1.84-.38-.03,0-.06-.02-.09-.04-.62-.27-1.18-.73-1.58-1.36-.91-1.44-2.94-4.07-6.16-5.46-1.4-.6-2.85-.91-4.36-.91-.61,0-1.23.05-1.85.15-7.86,1.27-11.87,9.02-10.29,20.22.89,6.34,3.36,11.34,6.97,14.06,2.05,1.55,4.41,2.33,7,2.33.68,0,1.38-.05,2.1-.16,4.75-.72,8.38-4.03,9.91-9.04.38-1.24,1.41-2.11,2.65-2.27,1.53-.19,3.08-.29,4.64-.29,1.91,0,3.84.14,5.75.43,3.53.52,7.05,1.54,10.46,3,1.29.55,2.2,1.8,2.34,3.15v.06c2.38,9.58,2.71,16.1,2.59,21.78-.09,4.54-.55,7.89.38,13.66,1.23,7.6,3.56,11.18,1.98,12.87-.51.55-1.35.81-2.29.81-1.39,0-3-.57-4.11-1.63-1.54-1.47-1.74-3.62-1.81-4.28-.25-2.64.85-4.15,1.4-5.84,1.82-5.6-1.57-15.58-5.01-16.62-.24-.07-.49-.11-.74-.11-2.41,0-4.94,3.27-6.08,5.87-2.25,5.13-1.45,13.11,2.38,17.88,1.27,1.59,2.67,2.46,3.26,4.76.53,2.08.36,5.37-1.4,7.19-.7.73-1.55,1.05-2.44,1.05-1.97,0-4.12-1.57-5.38-3.72-1.41-2.41-1.59-5.29-1.77-7.99-.29-4.39.92-4.87-.11-7.69-.37-1.01-.99-2.75-2.43-3.64-.61-.38-1.15-.48-1.93-.48-.88,0-2.06.13-3.97.13h-.81c-1.05-.02-1.58,0-2.09-.08-2.42-.41-4.16-1.88-8.55-2.96-2.6-.64-4.78-.8-6.63-.8-1.75,0-3.21.14-4.45.14-.41,0-.8-.02-1.17-.06-10.36-1.66-15.91-11.55-20.36-19.98-2.99-5.25-4.85-11.26-5.52-17.72-1.93-20.14,9.77-45.13,31.56-48.79,1.6-.25,3.23-.37,4.87-.37M285.88,178.15c-1.99,0-3.97.15-5.89.46-12.59,2.09-23,10.56-29.6,21.22-7.02,11.22-10.52,24.63-9.43,37.85.7,7.69,2.81,14.81,6.38,21.16.01.02.03.05.04.07.46.8.92,1.62,1.39,2.45,5.44,10.45,13.39,20.28,25.87,21.87.71.08,1.46.12,2.28.12s1.58-.04,2.32-.07c.74-.04,1.45-.07,2.18-.07,1.56,0,2.91.16,4.37.52,1.56.38,2.58.82,3.75,1.32,1.46.63,3.29,1.4,5.62,1.79,1.15.19,2.08.2,2.9.2h.13c-.03.76-.03,1.63.02,2.61.17,3.24.38,7.68,2.86,11.99,3.07,5.34,8.77,8.8,14.43,8.8,3.6,0,6.9-1.35,9.27-3.81,1.35-1.4,2.28-3.01,2.9-4.68.86.14,1.72.21,2.58.21,3.64,0,6.85-1.27,8.98-3.57,4.08-4.39,2.49-9.72,1.36-13.62-.51-1.76-1.09-3.76-1.53-6.27-.64-3.65-.57-5.94-.49-9.11.02-.94.05-1.9.06-2.92.04-5.79-.35-13.13-3.07-23.73-.52-2.94-2.01-5.67-4.11-7.75.15-.25.3-.51.44-.78,1.72-3.33,1.28-6.7,1.1-8.03-.15-4.04-1.08-7.62-3.59-14.42-.14-.38-.28-.85-.45-1.45-.5-1.71-1.18-4.01-2.73-7.36-.38-.98-.88-1.94-1.49-2.86-8.2-13.17-23.5-21.7-38.86-22.17h0v.03ZM288.63,239.88c-.74,0-1.15-.2-1.54-.5-1.23-.93-2.78-3.51-3.47-7.96-.53-3.45-.81-9.32,3.18-9.96.21-.03.41-.05.6-.05.41,0,.76.07,1.13.23,1.1.47,1.86,1.62,2,1.85,1.32,2.11,3.17,3.75,5.37,4.78.05.02.09.04.14.07.92.45,1.9.78,2.95.98-3.03,1.31-5.4,3.94-6.48,7.34-.59,1.87-1.64,2.94-3.11,3.16-.27.04-.53.06-.76.06h-.01ZM309.1,228.15c.26-.09.52-.19.77-.28,0,.11.02.21.03.32-.27-.01-.53-.02-.8-.03h0Z"/><path class="ay" d="M350.93,183.44c7.77,0,15.69.26,23.55.78,2.13.14,4.15,2.2,4.62,4.68.66,3.56.99,5.34,1.65,8.9h0c.53,2.35.91,4.36,1.18,5.95.17,1,.32,1.93.02,2.9-.07.23-.48,1.64-1.63,2.08-.19.07-.37.1-.55.1-1.28,0-2.44-1.56-4.36-1.56h-.03c-3.18.03-4.61,2.15-6.64,2.15-.37,0-.76-.07-1.18-.24-1.2-.47-1.38-1.2-3.3-2.02-1.38-.59-2.56-.63-3.4-.69h0c-3.76-.02-5.63-.02-9.39-.04h0c-.63,0-1.11.55-1.15,1.34-.05.97-.02,1.97.1,2.96.14,1.18.58,3.34.87,4.25.23.75.88,1.3,1.5,1.3h.13c3.89-.46,8-.62,12.01-.62h.19c4.07,0,8.23.25,12.35.69,2.2.23,4.2,2.24,4.63,4.66.97,5.36,1.45,8.04,2.42,13.4.44,2.45-.89,4.44-3.12,4.65-3.54.33-7.12.52-10.74.54-.27.08-.54.18-.82.31-1.76.82-1.71,1.55-2.81,2.02-.39.17-.78.24-1.17.24-2.14,0-4.32-2.13-7.68-2.15h-.03c-1.56,0-2.34.91-3.23,1.34,0,.71,0,1.16.15,2.22.19,1.32.45,2.66.8,3.97.22.84.93,1.47,1.65,1.47,9.7.04,19.4.07,29.1.11,2.44.01,4.8,2.12,5.27,4.68.97,5.18,1.34,7.2,2.74,14.68.61,2.46,1.23,6.14.48,8.98-.18.7-.54,2.1-1.49,2.68-.27.17-.52.23-.78.23-.64,0-1.29-.39-2.16-.58-.33-.08-.66-.11-.99-.11-1.58,0-3.04.82-4.12,1.79-2.68,2.4-2.37,4.3-4.25,4.76-.22.05-.44.08-.66.08-1.34,0-2.71-.95-4.51-2.22-3.52-2.48-6.01-6.08-8.38-6.77-.9-.26-1.8-.36-1.8-.36-.29-.03-.55-.04-.79-.04-.5,0-.93.05-1.32.09-.73.07-2.37.21-3.25.33-1.03.15-1.9.19-2.64.19-1.38,0-2.34-.16-3.18-.16-.76,0-1.42.13-2.22.64-.77.49-2.99,1.92-3.02,4.54-.02,2.49,2.02,4.31,1.63,6.76-.05.32-.21,1.24-.92,1.74-.37.26-.83.39-1.32.39-.65,0-1.35-.23-1.92-.64-.53-.38-.86-.87-.99-1.08-1.47-2.47.36-5.7-.29-8.84-.42-1.98-1.99-4.67-6.75-7.11-1.99-.56-3.7-2.86-4.15-5.52-2.44-14.19-4.66-28.43-5.91-42.78-.92-12.42-1.58-24.77-1.99-37.21-.05-2.3,1.36-4.09,3.33-4.2,6.8-.41,13.71-.61,20.55-.61h.12M349.64,174.3h-.12c-6.91,0-13.85.21-20.65.62-5.85.35-10.2,5.75-10.14,12.55.25,12.67.75,25.23,1.52,37.88,1.3,14.59,3.12,29.06,5.42,43.53.93,5.98,4.9,11.09,10.12,13.17.21.12.38.23.53.32-.02.17-.05.33-.07.48-.35,2.41-.98,6.44,1.52,10.71.69,1.18,1.94,2.88,3.98,4.34,2.43,1.73,5.38,2.69,8.27,2.69,2.47,0,4.75-.68,6.59-1.97,1.58-1.11,3.57-3.21,4.11-6.95.27-1.87.07-3.57-.29-5.02.9-.04,1.81-.13,2.74-.26.42-.06,1.44-.15,2.05-.21.06,0,.13-.01.19-.02.15.15.31.29.45.43,1.39,1.34,3.12,3,5.33,4.55,2.43,1.71,6.14,4.3,10.95,4.3.99,0,1.97-.11,2.9-.34,4.29-1.03,5.98-3.9,6.78-5.28.13-.22.23-.39.33-.54.69.13,1.48.23,2.33.23,1.93,0,3.77-.5,5.3-1.44,3.38-2.08,4.27-5.59,4.61-6.91,1.12-4.42.31-9.42-.58-12.94-.98-4.89-1.47-7.33-2.45-12.22-.18-.88-.26-1.32-.44-2.2-.96-4.85-4.26-9.15-8.39-11.62,1.02-2.22,1.32-4.89.75-7.78-1.04-5.36-1.56-8.04-2.6-13.39-.42-2.21-1.3-4.31-2.51-6.17.88-1.05,1.57-2.34,2.02-3.82.91-2.96.4-5.66.13-7.12-.4-2.14-.86-4.32-1.38-6.49v-.03c-.36-1.79-.53-2.69-.89-4.48-.32-1.6-.48-2.39-.79-3.99-1.46-7.33-7.6-13.4-13.96-13.82-7.89-.53-15.84-.79-23.66-.79h0Z"/><path class="ca" d="M416.3,181.2c9.29-.11,21.02,2.68,28.25,8.77,8.28,6.98,14.51,16.68,17.98,26.91.51,1.64,2.35,6.81,2.44,12.35.16,9.19-4.37,14.46-8.21,17.25-.18.13-.25.44-.18.8.08.44.33.89.65,1.13,6.15,4.68,11.96,10.71,16.77,17.44,3.46,4.84,6.39,9.98,8.69,15.34.36.58.75,1.3,1.12,2.1.22.48.62,1.42.96,2.62.36,1.29.44,2.19.57,3.45.56,5.56.98,7.39,1.63,9.34.06.19.13.37.21.56,1.38,3.48,2.78,4.32,3.18,6.97.08.55.34,2.79-.76,3.76-.14.12-.58.46-1.28.46-.35,0-.75-.08-1.22-.32-.76-.39-1.43-1.06-1.82-1.57-2.27-2.91-.63-6.74-2.61-10.61-1.59-3.11-4.92-5.11-7.21-5.42-.23-.03-.45-.05-.66-.05-2.7,0-3.97,2.36-6.06,2.36-.49,0-1.03-.13-1.64-.45-.58-.31-.76-.54-1.24-.88,0,0-.43-.28-.8-.49-1.24-.72-3.56-1.19-3.85-1.25-.19.02-.43.04-.72.04-.55,0-1.27-.07-2.09-.33-.41-.13-1.48-.48-2.42-1.25-1.48-1.22-1.99-2.89-2.08-3.5-.74-4.79-2.32-9.69-4.56-14.32-3.65-8.08-11.32-16.46-18.99-20.89-.16-.1-.24-.15-.4-.25-.84-.53-1.4-.89-2.32-.89-.33.02-.5.03-.83.05-1.05,0-1.55,1.17-1.21,2.6,3.23,11.82,6.47,23.63,9.72,35.44.04.15.07.3.09.45.06,0,.09-.01.15-.02.43,1.13,1.14,3.41.41,5.37-1.38,3.67-6.67,3.66-7.51,3.69h-.41c-2.17,0-3.34-.69-5.02-.69-.57,0-1.21.08-1.96.29-2.61.74-3.1,2.06-5.16,2.35-.29.04-.58.06-.85.06-1.96,0-3.52-.97-4.5-1.98-.28-.3-.48-.68-.6-1.13-8.49-36.61-16.88-73.24-25.17-109.89-.51-2.22.48-4.1,2.19-4.19,9.79-.54,19.58-1.08,29.37-1.63M429.46,226.45c.52,0,.95-.28,1.15-.82,1.61-4.82,2.39-7.23,3.9-12.05.23-.7.02-1.64-.55-2.38-2.18-1.72-3.27-2.58-5.43-4.29-.55-.54-1.12-.98-1.69-.98-.05,0-.1,0-.15.01-3.4.59-5.11.88-8.53,1.47-.6.08-.84.75-1.06,1.29-.75,2.2-1.13,3.31-1.91,5.51-.07.87.37,1.87,1.1,2.45,4.74,3.74,7.14,5.61,12,9.36.39.3.8.45,1.17.45M414.01,172.06c-.13,0-.26,0-.38.01-9.64.54-19.27,1.09-28.91,1.63-5.97.32-9.6,6.44-8.05,13.66,7.78,36.63,15.68,73.24,23.67,109.83,0,.05.02.09.03.14.51,2.18,1.63,4.25,3.25,5.97.05.05.1.1.14.15,3.53,3.64,8.34,5.72,13.16,5.72.76,0,1.52-.05,2.26-.16,2.96-.41,4.75-1.56,5.81-2.25.1-.06.18-.11.24-.16,1.11.24,2.77.55,4.84.55.26,0,.53,0,.81-.02h.04c10-.29,13.36-5.27,14.44-8.21.99-2.69.96-5.88-.06-9.29.89,2.04,2.43,4.52,5.15,6.76,2,1.65,4.35,2.9,6.98,3.72,1.55.48,3.11.77,4.65.85.5.35,1.12.74,1.85,1.12,2.42,1.27,4.98,1.94,7.39,1.94.97,0,1.84-.1,2.62-.27.28,2.41,1.01,5.4,3.44,8.55,1.02,1.33,3.24,3.81,6.65,5.54,2.31,1.17,4.75,1.78,7.06,1.78,2.62,0,4.99-.81,6.66-2.27,3.26-2.86,3.07-7.34,2.68-9.75-.56-3.38-1.99-5.73-2.93-7.29-.43-.71-.66-1.09-.94-1.78-.33-.96-.7-2.04-1.3-7.35,0-.06-.01-.1-.02-.16-.16-1.38-.32-2.8-.9-4.8-.41-1.41-.95-2.82-1.59-4.19-.42-.89-.88-1.77-1.37-2.61-2.68-5.9-6.04-11.62-9.94-17-3.6-4.97-7.68-9.63-12.02-13.79,2.85-3.93,4.96-9.36,4.75-16.73-.19-6.4-2.13-12.14-2.95-14.59-.06-.17-.09-.26-.14-.43-4.15-12.8-12.84-25.02-23.03-33.64-9.7-7.69-21.48-10.77-33.63-11.17-.14,0-.27-.01-.41-.01h0ZM444.42,287.18c-1.23-4.23-2.45-8.46-3.67-12.69,1.71,3.65,2.9,7.55,3.42,11.28.05.35.15.92.35,1.64-.03-.08-.07-.16-.1-.23h0Z"/><path class="ah" d="M241.31,144.79c2.42,0,5.01.07,8.21.19,2.11.08,4.1,1.97,4.37,4.19,1.07,9.03,1.26,13.64,1.14,22.99-.03,2.3-2.03,4.42-4.42,4.65-6.5.63-10.87.87-16.01.87-2.55,0-5.29-.06-8.58-.16-2.44-.08-4.4-1.99-4.31-4.23.36-9.13.92-13.78,2.36-23.2.36-2.32,2.32-4.41,4.36-4.61,5.21-.49,8.8-.69,12.88-.69M244.36,158.76h.14c1.59-.08,2.86-1.5,2.84-3.17-.02-1.62-1.23-2.88-2.74-2.88h-.14c-1.57.08-2.85,1.5-2.85,3.17s1.21,2.88,2.74,2.88M233.75,158.99h.14c1.59-.08,2.89-1.5,2.91-3.17.02-1.62-1.17-2.88-2.68-2.88h-.14c-1.57.08-2.88,1.5-2.91,3.17-.03,1.62,1.16,2.88,2.68,2.88M232.71,169.63h.14c1.62-.08,2.95-1.5,2.96-3.17.02-1.62-1.2-2.88-2.74-2.88h-.14c-1.6.08-2.93,1.5-2.97,3.17-.03,1.62,1.18,2.88,2.74,2.88M243.56,169.97h.14c1.62-.08,2.92-1.5,2.9-3.17-.02-1.62-1.26-2.88-2.8-2.88h-.14c-1.6.08-2.91,1.5-2.91,3.17s1.24,2.88,2.8,2.88M241.78,136.32c-4.22,0-7.98.2-13.43.73-6.07.59-11.5,5.95-12.61,12.48-1.62,9.54-2.32,14.63-2.85,24.16-.37,6.67,4.97,12.06,12.15,12.28,3.76.12,6.54.17,9.01.17,5.5,0,10.17-.25,17.16-.92,7.09-.68,12.59-6.47,12.57-13.2-.03-9.47-.3-14.54-1.59-24.13-.84-6.26-6-11.15-12.04-11.38-3.6-.14-6.1-.2-8.38-.2h.01Z"/><path class="cd" d="M96.75,299.92c-1.71.06-5.57.5-9.4,3.22-.8.57-1.61,1.24-2.41,2.03-1.16,1.15-3.69,3.77-5.79,7.73-.69,1.29-1.38,2.93-3.48,5.8-2.41,3.3-3.63,4.16-4.4,4.69-2.14,1.47-4.49,2.14-5.84,2-3.94-.43-1.19-7.36-2.4-16.08-.65-4.69-1.67-8.53-2.53-11.36-4.04-11.51.09-24.13,3.66-35.19.2-.75.3-1.12.5-1.87.57-2.15,2.35-4.01,4.15-4.36,7.66-1.45,11.47-2.17,19.04-3.62,2.11-.4,3.84.76,4.36,3.02.33,1.43.06,3.21-.68,4.85-1.41,3.13-3.25,8.72-2.28,12.44.5,1.92,2.33,3.96,5.13,3.56,7.93-1.13,10.44-5.9,12.06-13.85,2.03-10,4.08-20,6.14-29.99.49-2.37-.62-4.21-2.45-4.07h-.06c-.98.13-2.46.45-4.21.9-2.45.63-3.19,1.12-4.73,1.55-4.07,1.14-4.33-.74-8.13,0-3.92.76-4.24,2.85-7.64,3.23-3.65.4-4.04-2.14-7.2-.93-1.51.58-3.79,2.09-4.79,4.24-1.13,2.42.31,3.62-1.05,6.45-.18.38-1.23,2.53-2.84,3.09-.82.28-1.75.12-2.19-.61-.37-.62-.25-1.41-.2-1.73.1-.64.34-1.2,1.33-2.94.87-1.53,1.05-1.75,1.35-2.3.94-1.73.87-2.78,1.41-5.54.2-1.06.55-2.63,1.13-4.6,2.61-9.56,3.92-14.34,6.55-23.9.64-2.34,2.58-4.32,4.32-4.4,18.46-.97,36.92-1.94,55.37-2.91,1.73-.09,2.8,1.73,2.39,4.07-1.28,7.33-1.92,10.99-3.18,18.32-.04.22-.1.43-.19.62h.09c-2.29,13.29-4.56,26.59-6.82,39.89-2.76,18.36-13.85,36.88-34.12,38.57l.03-.02Z"/><path class="cd" d="M244.02,230.19c-.88,13.42-1.35,27.03-1.78,40.58.01.26,0,.56,0,.88-.04,1.13-.06,1.69-.1,2.82-.29,6.13-.67,13.06-1.44,14.26-.3.47-1.07,1.68-2.47,2.12-.29.09-1.52.44-2.52-.13-1.44-.82-2.06-2.26-1.74-3.51.59-2.3.92-2.35,2.31-5.23,1.03-2.14-.84-4.82-1.9-5.34-1.57-.77-1.43-.2-3.45-.08-1.27.07-1.24-.13-3.7-.37-3.44-.34-3.56,1.6-6.2.96-1.36-.33-3.04-1.64-3.6-2.89-2.36-3.19-2.19-10.1-1.87-16.51.74-14.97,1.91-30.05,4.63-44.58,1.01-5.4,2.35-11.07,3.7-16.55.55-2.23,2.31-3.85,4.27-3.91,6.32-.22,9.48-.32,15.8-.54.81-.03,1.56.33,2.12,1.01.62.76.92,1.83.82,2.91-1.07,11.35-2.12,22.8-2.86,34.1h-.02Z"/><path class="cd" d="M330.46,294.98c-1.23,1.33-4.44.95-6.27-.81-1.5-1.44-1.7-3.55-1.76-4.2-.25-2.59.84-4.08,1.38-5.74,1.79-5.5-1.51-15.31-4.89-16.33-2.57-.78-5.46,2.85-6.7,5.66-2.22,5.04-1.44,12.88,2.31,17.56,1.25,1.56,2.61,2.42,3.19,4.68.52,2.05.34,5.28-1.38,7.07-2.23,2.31-5.88.44-7.65-2.62-1.38-2.37-1.55-5.19-1.72-7.85-.28-4.31.91-4.78-.09-7.55-.36-.99-.97-2.71-2.37-3.57-1.37-.85-2.42-.27-6.59-.35-1.03-.02-1.55,0-2.05-.08-2.37-.4-4.08-1.84-8.38-2.91-5.76-1.43-9.51-.36-12.01-.71-9.97-1.37-15.61-11.36-19.97-19.63-2.94-5.16-4.79-11.08-5.43-17.41-1.98-19.71,10.05-44.96,31.01-47.93,13.38-1.89,28.71,5.46,36.14,17.2.2.31.38.65.48,1,1.88,4.06,2.06,6,2.85,8.21,2.14,6.02,2.71,8.57,2.74,11.3,0,.7.43,2.13-.23,3.38-.11.21-.94,1.79-2.5,1.67-1.36-.11-2.33-1.44-2.69-2.41-.44-1.18-.13-2.23-.03-2.53.3-.92.83-1.3,1.16-1.74,1.32-1.7,1-5.83-1.23-7.89-2-1.85-4.74-1.29-5.32-1.17-2.14.44-2.95,1.76-4.75,3.03-1.59,1.13-6.99,2.89-8.97,1.75-.03,0-.06-.02-.08-.04-.61-.26-1.16-.72-1.55-1.33-.89-1.41-2.88-4-6.05-5.37-1.93-.83-3.97-1.09-6.1-.75-7.72,1.25-11.67,8.86-10.12,19.86.88,6.23,3.29,11.14,6.84,13.81,2.55,1.92,5.57,2.64,8.93,2.13,4.66-.71,8.23-3.96,9.74-8.88.37-1.22,1.38-2.07,2.6-2.23,3.36-.42,6.79-.37,10.2.14,3.47.51,6.92,1.52,10.26,2.94,1.27.54,2.15,1.77,2.29,3.09v.06c2.32,9.41,2.63,15.81,2.5,21.4-.1,4.46-.55,7.75.35,13.42,1.19,7.46,3.47,10.98,1.92,12.65v.02Z"/><path class="cd" d="M392.6,280.48c-.18.69-.54,2.06-1.47,2.64-.91.56-1.69-.08-2.88-.35-1.91-.44-3.73.5-5.01,1.65-2.63,2.36-2.34,4.23-4.18,4.67-1.53.37-3.01-.65-5.06-2.1-3.44-2.44-5.87-5.97-8.19-6.65-.88-.26-1.77-.35-1.77-.35-.87-.09-1.5-.01-2.07.05-.72.07-2.32.21-3.19.33-4.61.65-5.78-.69-7.89.66-.75.48-2.94,1.88-2.97,4.46-.03,2.45,1.97,4.23,1.59,6.64-.05.31-.21,1.22-.9,1.71-.86.61-2.2.46-3.18-.24-.52-.37-.84-.85-.97-1.07-1.44-2.43.37-5.6-.27-8.69-.4-1.95-1.94-4.59-6.61-6.99-1.95-.55-3.62-2.82-4.06-5.42-2.34-13.92-4.61-28.02-5.72-42.03-.95-12.12-1.57-24.39-1.88-36.56-.06-2.25,1.34-4.01,3.28-4.13,6.69-.4,13.49-.6,20.21-.6h.12c7.65,0,15.43.26,23.16.77,2.1.14,4.08,2.16,4.52,4.6.63,3.5.95,5.24,1.58,8.74h0c.51,2.31.87,4.28,1.14,5.85.17.99.31,1.9,0,2.84-.07.22-.48,1.62-1.61,2.04-1.5.56-2.67-1.45-4.85-1.43-3.7.03-5,2.94-7.69,1.88-1.18-.46-1.35-1.18-3.23-1.98-1.35-.58-2.51-.62-3.33-.68h0c-3.69-.02-5.54-.02-9.23-.04h0c-.62,0-1.09.54-1.14,1.31-.05.95-.02,1.94.09,2.9.14,1.16.56,3.28.84,4.18.24.79.94,1.34,1.6,1.27,3.88-.46,7.99-.61,11.99-.61s8.09.25,12.13.68c2.16.23,4.12,2.2,4.53,4.58.93,5.27,1.4,7.9,2.33,13.16.43,2.4-.9,4.37-3.08,4.57-3.47.33-6.99.51-10.55.53-.26.08-.53.18-.81.3-1.73.8-1.68,1.52-2.76,1.98-2.5,1.06-4.78-1.86-8.68-1.88-1.55-.01-2.32.89-3.2,1.31,0,.7,0,1.14.14,2.18.18,1.29.44,2.61.77,3.9.21.82.91,1.44,1.61,1.44l28.56.11c2.39,0,4.71,2.08,5.16,4.6.93,5.09,1.29,7.07,2.63,14.43.59,2.42,1.18,6.03.44,8.82v.02Z"/><path class="cd" d="M480.46,288.79c-.32-1.18-.71-2.11-.92-2.58-.35-.79-.74-1.49-1.08-2.06-2.22-5.26-5.06-10.31-8.42-15.07-4.67-6.61-10.34-12.54-16.35-17.14-.31-.24-.56-.68-.63-1.11-.06-.35,0-.66.18-.78,3.79-2.75,8.27-7.92,8.17-16.95-.06-5.44-1.81-10.55-2.32-12.13-3.16-9.95-9.39-19.59-17.49-26.44-7.08-5.99-18.81-8.91-27.73-8.61-9.43.32-19.28,1.08-28.9,1.6-1.68.09-2.66,1.94-2.17,4.12,8.02,35.97,15.86,72.33,24.25,107.96.1.44.3.82.58,1.11,1.08,1.13,2.92,2.22,5.24,1.89,2.01-.29,2.5-1.58,5.06-2.3,3.05-.86,4.08.5,7.24.38.82-.03,6.01-.02,7.38-3.63.73-1.92-.03-5.07-.37-5.27-.02-.01-.14.03-.15.02-.03-.03-.05-.3-.08-.45-2.89-11.46-6.5-23.35-9.36-34.82-.34-1.37.17-2.55,1.2-2.55.33-.02.5-.04.82-.05.88-.03,1.45.35,2.27.87.15.1.23.15.39.25,7.27,4.41,14.94,12.74,18.52,20.52,2.08,4.51,3.7,9.36,4.4,14.06.09.6.58,2.24,2.02,3.43.92.76,1.97,1.1,2.37,1.23,1.24.39,2.31.27,2.76.28.24,0,2.56.52,3.77,1.22.36.21.78.49.78.49.46.33.64.57,1.21.87,3.33,1.77,4.43-2.34,8.21-1.83,2.24.3,5.5,2.27,7.03,5.33,1.91,3.8.29,7.56,2.49,10.42.39.5,1.04,1.16,1.78,1.54,1.36.7,2.24.04,2.45-.14,1.09-.96.85-3.16.77-3.7-.38-2.61-1.75-3.43-3.07-6.85-.07-.18-.14-.36-.2-.55-.62-1.92-1.03-3.71-1.54-9.18-.12-1.24-.19-2.12-.53-3.39h-.03ZM431.59,217.72c-1.51,4.74-2.29,7.1-3.9,11.84-.34.91-1.37,1.08-2.28.37-4.75-3.68-7.1-5.51-11.74-9.19-.72-.57-1.15-1.55-1.07-2.4.77-2.17,1.15-3.25,1.9-5.41.22-.53.46-1.19,1.05-1.27,3.37-.58,5.05-.87,8.4-1.44.6-.09,1.22.37,1.8.95,2.11,1.69,3.18,2.53,5.31,4.22.55.73.76,1.65.53,2.33h0Z"/><path class="cd" d="M210.18,245.36c-.12,1.71-.38,3.43-.74,5.1-.82,4.89-1.75,8.75-2.52,11.57-1.75,6.37-3.2,9.4-2.32,12.48.13.45.58,1.81-.04,3.2-.45,1.01-1.59,2.32-3.24,2.5-1.37.15-2.87-.5-3.23-1.61-.61-1.88,2.38-4.05,1.65-5.17-.49-.75-2.12-.51-2.7-.41-1.02.16-1.71.51-3.2,1.48,0,0-.02,0-.03.02-.34.23-.74.48-1.19.78-1.36.89-2.33,1.52-3.05,1.99-1.48.96-1.92,1.27-2.71,1.92-1.69,1.39-1.55,1.55-2.69,2.44,0,0-5.96,4.68-14.65,3.52-3.35-.45-2.56-1.4-6.6-2.16-7.84-1.47-13.56,1.08-16.08-2-.75-.91-.64-1.62-.99-3.71-.43-2.6-1.78-5.34-3.75-9.6,0,0,0-.02,0-.03-2.86-5.31-4.14-11.81-3.37-18.8,1.76-15.98,4.94-31.75,9.17-47.25.46-1.69,1.98-3.01,3.53-3.1,6.83-.37,10.24-.56,17.04-.93.86-.05,1.64.3,2.15.96.51.65.71,1.57.55,2.52-2.52,15.45-4.59,31.04-6.06,46.61-.72,7.58,1.66,10.45,8.38,10.11,6.71-.33,9.6-3.43,10.35-11.02,1.53-15.51,2.34-31.06,3.04-46.62.04-.93.43-1.87,1.07-2.58.65-.72,1.49-1.15,2.34-1.2,6.66-.37,9.98-.56,16.62-.93,1.55-.1,2.8,1.11,2.92,2.78,1.15,15.71,1.41,31.44.33,47.15h.03Z"/><path class="cd" d="M200.88,283.9c.79,1.64,1.85,3.81.81,5.92-.15.3-.74,1.47-2.04,2.11-.35.17-1.5.74-2.57.29-1.04-.43-1.46-1.59-1.4-2.5.09-1.18.95-1.55,1.79-2.97,1.61-2.73.62-5.24,1.33-5.46.71-.23,1.88,2.19,2.08,2.61Z"/><path class="cd" d="M255.33,152.43c-.26-2.18-2.22-4.04-4.31-4.12-8.46-.32-12.6-.28-20.78.49-2.01.19-3.94,2.25-4.29,4.52-1.41,9.25-1.95,13.82-2.28,22.79-.08,2.21,1.85,4.08,4.25,4.16,9.75.3,14.62.23,24.19-.7,2.35-.23,4.32-2.31,4.34-4.57.12-9.18-.08-13.71-1.14-22.58h.02ZM234.73,171.12c-1.59.08-2.86-1.19-2.83-2.83.03-1.64,1.33-3.03,2.91-3.11,1.58-.08,2.84,1.19,2.83,2.83-.01,1.64-1.31,3.03-2.91,3.11ZM235.73,160.66c-1.56.08-2.8-1.19-2.77-2.83.03-1.64,1.31-3.03,2.86-3.11,1.54-.08,2.78,1.19,2.77,2.83-.01,1.64-1.29,3.03-2.85,3.11h0ZM245.38,171.45c-1.59.08-2.89-1.19-2.89-2.83s1.27-3.03,2.85-3.11c1.57-.08,2.86,1.19,2.88,2.83.02,1.64-1.25,3.03-2.85,3.11h.01ZM246.16,160.44c-1.56.08-2.83-1.19-2.83-2.83s1.25-3.03,2.79-3.11,2.81,1.19,2.82,2.83c.02,1.64-1.23,3.03-2.79,3.11h0Z"/><path class="ba" d="M93.27,297.23c-1.74.07-5.68.51-9.61,3.28-.82.58-1.65,1.26-2.47,2.07-1.19,1.17-3.78,3.84-5.95,7.87-.71,1.32-1.43,2.98-3.58,5.9-2.48,3.36-3.72,4.23-4.52,4.78-2.19,1.5-4.6,2.18-5.97,2.03-4.02-.44-1.18-7.49-2.36-16.37-.63-4.77-1.65-8.69-2.52-11.57-4.06-11.75.25-24.58,3.96-35.82.21-.76.32-1.14.53-1.91.59-2.19,2.42-4.08,4.26-4.43,7.81-1.47,11.7-2.21,19.43-3.68,2.16-.41,3.91.77,4.43,3.08.33,1.46.04,3.27-.72,4.93-1.46,3.18-3.36,8.87-2.39,12.66.5,1.96,2.35,4.03,5.21,3.63,8.09-1.15,10.67-6,12.37-14.1,2.12-10.18,4.26-20.35,6.42-30.52.52-2.42-.61-4.28-2.47-4.14h-.06c-1,.13-2.51.46-4.29.92-2.5.64-3.25,1.14-4.83,1.58-4.15,1.16-4.4-.75-8.28,0-4,.77-4.33,2.9-7.8,3.28-3.72.41-4.1-2.18-7.32-.95-1.54.59-3.88,2.13-4.91,4.31-1.16,2.47.29,3.68-1.11,6.57-.19.39-1.27,2.58-2.91,3.15-.84.29-1.78.12-2.22-.62-.38-.63-.24-1.44-.19-1.76.1-.65.36-1.22,1.38-3,.89-1.55,1.08-1.78,1.39-2.34.97-1.76.9-2.83,1.47-5.64.22-1.07.58-2.68,1.19-4.68,2.72-9.73,4.09-14.59,6.84-24.32.67-2.39,2.65-4.39,4.43-4.48,18.78-.98,37.56-1.97,56.34-2.97,1.76-.09,2.83,1.76,2.41,4.14-1.34,7.46-2,11.19-3.32,18.65-.05.22-.1.44-.2.63h.1c-2.39,13.53-4.77,27.06-7.13,40.6-2.9,18.74-14.31,37.54-34.98,39.26l-.05-.02Z"/><path class="be" d="M243.6,226.27c-.9,13.66-1.4,27.52-1.85,41.31.01.27,0,.57,0,.9-.04,1.15-.06,1.72-.11,2.87-.3,6.24-.69,13.29-1.48,14.52-.31.48-1.09,1.71-2.53,2.16-.29.09-1.56.45-2.57-.13-1.47-.84-2.1-2.3-1.77-3.57.61-2.35.94-2.4,2.36-5.32,1.05-2.17-.85-4.9-1.93-5.43-1.6-.78-1.45-.2-3.52-.08-1.3.08-1.27-.13-3.77-.38-3.51-.35-3.63,1.63-6.32.98-1.39-.34-3.1-1.67-3.66-2.95-2.4-3.25-2.25-10.28-1.88-16.8.86-15.28,1.99-30.56,4.79-45.38,1.04-5.5,2.41-11.27,3.79-16.84.57-2.27,2.35-3.91,4.34-3.98,6.43-.22,9.64-.33,16.06-.55.82-.03,1.59.34,2.15,1.03.63.77.93,1.86.83,2.97-1.1,11.55-2.18,23.21-2.94,34.71v-.04Z"/><path class="ae" d="M331.75,292.21c-1.26,1.35-4.53.97-6.4-.82-1.54-1.47-1.74-3.62-1.81-4.28-.25-2.64.85-4.15,1.4-5.84,1.82-5.6-1.57-15.58-5.01-16.62-2.62-.79-5.57,2.9-6.82,5.76-2.25,5.13-1.45,13.11,2.38,17.88,1.27,1.59,2.67,2.46,3.26,4.76.53,2.08.36,5.37-1.4,7.19-2.27,2.35-6,.45-7.81-2.67-1.41-2.41-1.59-5.29-1.77-7.99-.29-4.39.92-4.87-.11-7.69-.37-1.01-.99-2.75-2.43-3.64-1.4-.86-2.47-.27-6.72-.35-1.05-.02-1.58,0-2.09-.08-2.42-.41-4.16-1.88-8.55-2.96-5.88-1.46-9.69-.37-12.25-.72-10.16-1.39-15.91-11.55-20.36-19.98-2.99-5.25-4.88-11.28-5.52-17.72-2-20.05,10.24-45.77,31.56-48.79,13.62-1.93,29.21,5.58,36.78,17.5.2.32.38.66.49,1.02,1.92,4.13,2.11,6.1,2.92,8.36,2.19,6.13,2.77,8.72,2.81,11.5,0,.72.44,2.17-.22,3.44-.11.22-.96,1.83-2.54,1.7-1.38-.11-2.38-1.46-2.75-2.46-.45-1.21-.14-2.27-.04-2.58.3-.94.84-1.33,1.18-1.77,1.34-1.73,1.01-5.93-1.26-8.03-2.04-1.88-4.83-1.31-5.41-1.19-2.18.45-2.99,1.79-4.83,3.09-1.62,1.15-7.12,2.95-9.13,1.78-.03,0-.06-.02-.09-.04-.62-.27-1.18-.73-1.58-1.36-.91-1.44-2.94-4.07-6.16-5.46-1.96-.85-4.05-1.11-6.2-.76-7.86,1.27-11.87,9.02-10.29,20.22.89,6.34,3.36,11.34,6.97,14.06,2.6,1.96,5.67,2.69,9.1,2.17,4.75-.72,8.38-4.03,9.91-9.04.38-1.24,1.41-2.11,2.65-2.27,3.42-.43,6.92-.37,10.39.14,3.53.52,7.05,1.54,10.46,3,1.29.55,2.2,1.8,2.34,3.15v.06c2.38,9.58,2.71,16.1,2.59,21.78-.09,4.54-.55,7.89.38,13.66,1.23,7.6,3.56,11.18,1.98,12.87v.02Z"/><path class="af" d="M395.09,277.45c-.18.7-.54,2.1-1.49,2.68-.93.57-1.72-.08-2.94-.35-1.95-.44-3.8.51-5.1,1.68-2.68,2.4-2.37,4.3-4.25,4.76-1.56.38-3.07-.66-5.17-2.14-3.52-2.48-6.01-6.08-8.38-6.77-.9-.26-1.8-.36-1.8-.36-.88-.09-1.53-.01-2.11.05-.73.07-2.37.21-3.25.33-4.7.66-5.89-.71-8.04.67-.77.49-2.99,1.92-3.02,4.54-.02,2.49,2.02,4.31,1.63,6.76-.05.32-.21,1.24-.92,1.74-.87.62-2.24.47-3.24-.25-.53-.38-.86-.87-.99-1.08-1.47-2.47.36-5.7-.29-8.84-.42-1.98-1.99-4.67-6.75-7.11-1.99-.56-3.7-2.87-4.15-5.52-2.42-14.17-4.76-28.52-5.91-42.78-1-12.33-1.65-24.83-1.99-37.21-.06-2.29,1.36-4.09,3.33-4.2,6.8-.41,13.71-.61,20.55-.61h.12c7.77,0,15.69.26,23.55.78,2.13.14,4.15,2.2,4.62,4.68.66,3.56.99,5.34,1.65,8.9h0c.53,2.35.91,4.36,1.18,5.95.17,1,.32,1.93.02,2.9-.07.23-.48,1.64-1.63,2.08-1.52.57-2.72-1.48-4.94-1.46-3.76.03-5.07,2.99-7.82,1.92-1.2-.47-1.38-1.2-3.3-2.02-1.38-.59-2.56-.63-3.4-.69h0c-3.76-.02-5.63-.02-9.39-.04h0c-.63,0-1.11.55-1.15,1.34-.05.97-.02,1.97.1,2.96.14,1.18.58,3.34.87,4.25.25.8.97,1.37,1.63,1.29,3.95-.47,8.13-.62,12.2-.62s8.23.25,12.35.69c2.2.23,4.2,2.24,4.63,4.66.97,5.36,1.45,8.04,2.42,13.4.44,2.45-.89,4.44-3.12,4.65-3.54.33-7.12.52-10.74.54-.27.08-.54.18-.82.31-1.76.82-1.71,1.55-2.81,2.02-2.54,1.08-4.88-1.89-8.85-1.92-1.58-.01-2.36.91-3.26,1.34,0,.71,0,1.16.15,2.22.19,1.32.45,2.66.8,3.97.22.84.93,1.47,1.65,1.47,9.7.04,19.4.07,29.1.11,2.44.01,4.8,2.12,5.27,4.68.97,5.18,1.34,7.2,2.74,14.68.61,2.46,1.23,6.14.48,8.98h-.02Z"/><path class="ck" d="M484.76,285.91c-.33-1.2-.74-2.14-.96-2.62-.37-.8-.76-1.52-1.12-2.1-2.3-5.35-5.23-10.5-8.69-15.34-4.81-6.73-10.62-12.76-16.77-17.44-.31-.24-.57-.69-.65-1.13-.06-.36,0-.67.18-.8,3.84-2.8,8.38-8.06,8.21-17.25-.1-5.54-1.92-10.74-2.44-12.35-3.29-10.14-9.7-19.94-17.98-26.91-7.22-6.08-19.17-9.07-28.25-8.77-9.59.32-19.59,1.1-29.37,1.63-1.71.09-2.69,1.98-2.19,4.19,8.32,36.61,16.47,73.62,25.17,109.89.11.45.31.83.6,1.13,1.1,1.15,2.99,2.26,5.35,1.92,2.05-.29,2.55-1.61,5.16-2.35,3.11-.88,4.17.51,7.39.39.83-.03,6.13-.02,7.51-3.69.74-1.96-.05-5.16-.41-5.37-.02-.01-.2-.29-.24-.43-3.01-11.67-6.74-23.77-9.72-35.44-.36-1.4.16-2.6,1.21-2.6.33-.02.51-.04.83-.05.9-.03,1.48.36,2.32.89.16.1.24.15.4.25,7.44,4.48,15.29,12.96,18.99,20.89,2.15,4.6,3.83,9.53,4.56,14.32.09.61.6,2.28,2.08,3.5.94.78,2.01,1.12,2.42,1.25,1.27.4,2.36.27,2.81.29.25,0,2.61.53,3.85,1.25.37.21.8.49.8.49.47.34.66.58,1.24.88,3.41,1.8,4.5-2.38,8.36-1.86,2.28.31,5.62,2.31,7.21,5.42,1.97,3.87.34,7.69,2.61,10.61.4.51,1.07,1.18,1.82,1.57,1.39.71,2.29.04,2.5-.14,1.1-.97.84-3.21.76-3.76-.4-2.66-1.8-3.49-3.18-6.97-.07-.19-.14-.37-.21-.56-.65-1.95-1.07-3.78-1.63-9.34-.13-1.27-.21-2.16-.57-3.45l.04-.04ZM434.51,213.57c-1.51,4.82-2.29,7.23-3.9,12.05-.34.93-1.39,1.1-2.32.38-4.86-3.74-7.26-5.61-12-9.36-.73-.58-1.17-1.58-1.1-2.45.77-2.2,1.15-3.31,1.91-5.51.22-.54.46-1.21,1.06-1.29,3.42-.59,5.13-.88,8.53-1.47.61-.09,1.25.38,1.84.97,2.16,1.72,3.25,2.58,5.43,4.29.57.74.78,1.68.55,2.38h0Z"/><path class="aj" d="M209.11,241.7c-.12,1.75-.4,3.49-.76,5.19-.84,4.97-1.8,8.91-2.59,11.77-1.79,6.49-3.28,9.56-2.39,12.7.13.46.58,1.84-.05,3.26-.46,1.03-1.62,2.36-3.31,2.55-1.4.15-2.93-.51-3.29-1.64-.62-1.92,2.44-4.13,1.69-5.26-.5-.76-2.16-.51-2.75-.42-1.04.17-1.74.52-3.26,1.51,0,0-.02.01-.03.02-.35.23-.75.49-1.21.79-1.39.91-2.38,1.55-3.12,2.03-1.51.98-1.96,1.3-2.77,1.96-1.73,1.42-1.59,1.58-2.75,2.49,0,0-6.1,4.77-14.95,3.58-3.42-.46-2.6-1.42-6.72-2.2-7.99-1.5-13.84,1.1-16.4-2.04-.76-.93-.64-1.65-.99-3.77-.43-2.65-1.79-5.43-3.79-9.78,0,0,0-.02,0-.03-2.89-5.4-4.18-12.02-3.36-19.14,1.86-16.27,5.18-32.33,9.55-48.1.48-1.72,2.03-3.07,3.61-3.16,6.95-.38,10.41-.57,17.34-.95.87-.05,1.67.31,2.19.98.51.66.71,1.6.55,2.57-2.62,15.73-4.78,31.59-6.34,47.44-.76,7.71,1.66,10.63,8.5,10.29s9.79-3.49,10.58-11.21c1.61-15.78,2.47-31.61,3.23-47.46.05-.95.45-1.91,1.1-2.63.66-.73,1.52-1.17,2.39-1.22,6.77-.38,10.16-.57,16.91-.95,1.58-.1,2.84,1.13,2.96,2.83,1.13,15.99,1.36,32,.24,48h0Z"/><path class="bi" d="M199.56,280.93c.8,1.67,1.88,3.88.81,6.03-.15.31-.76,1.49-2.09,2.15-.36.18-1.53.75-2.62.3-1.06-.44-1.49-1.62-1.42-2.55.09-1.2.97-1.58,1.83-3.03,1.65-2.77.64-5.33,1.37-5.56s1.91,2.23,2.12,2.66Z"/><path class="cc" d="M253.89,149.17c-.26-2.22-2.25-4.11-4.37-4.19-8.59-.32-12.79-.28-21.09.5-2.04.19-4.01,2.29-4.36,4.61-1.45,9.42-2.01,14.07-2.36,23.2-.09,2.25,1.87,4.16,4.31,4.23,9.91.31,14.86.23,24.59-.71,2.39-.23,4.39-2.35,4.42-4.65.12-9.35-.07-13.95-1.14-22.99h0ZM232.85,169.63c-1.62.08-2.91-1.21-2.88-2.88s1.36-3.09,2.97-3.17c1.6-.08,2.89,1.21,2.87,2.88-.02,1.67-1.34,3.09-2.96,3.17ZM233.88,158.98c-1.59.08-2.85-1.21-2.82-2.88s1.34-3.09,2.91-3.17c1.57-.08,2.83,1.21,2.81,2.88s-1.32,3.09-2.91,3.17h.01ZM243.7,169.97c-1.62.08-2.94-1.21-2.94-2.88s1.3-3.09,2.91-3.17c1.6-.08,2.92,1.21,2.93,2.88.02,1.67-1.28,3.09-2.9,3.17ZM244.5,158.76c-1.59.08-2.88-1.21-2.87-2.88,0-1.67,1.28-3.09,2.85-3.17,1.57-.08,2.85,1.21,2.87,2.88s-1.26,3.09-2.84,3.17h-.01Z"/><path class="bq" d="M59.36,279.11c.32-5.91,1.8-11.52,3.61-17.08l.35-1.02c.42-1.46,1.36-2.79,2.67-3.56.64-.39,1.36-.65,2.1-.77,3.8-.64,7.55-1.11,11.48-.97-2.61,1.5-5.31,2.61-8.04,3.6-.85.31-1.72.6-2.58.87-.8.2-1.47.83-1.71,1.61-1.97,6.07-4.3,11.97-7.89,17.33h.01Z"/><path class="bk" d="M75.33,223.47c.49-4.2,1.38-8.27,2.36-12.31.77-3.52,1.75-7.25,5.28-8.97,1.11-.61,2.49-.95,3.72-1.03,4.13-.33,8.28-.53,12.43-.57,4.16-.02,8.32.07,12.52.57-8.09,2.24-16.33,3.27-24.64,3.98-4.26.21-5.03,3.69-6.34,6.99-1.59,3.84-3.26,7.66-5.34,11.34h0Z"/><path class="bk" d="M143.28,226.34c.35-6.8,1.87-13.31,3.71-19.8.99-2.64,1.17-6.21,3.9-7.7.67-.37,1.42-.59,2.18-.62,3.68-.17,7.34-.21,11.08.22-3.56,1.39-7.15,2.3-10.81,3.09-.6.17-1.1.69-1.21,1.29-.4,1.62-.84,3.23-1.31,4.84-1.94,6.45-4.18,12.76-7.55,18.67h.01Z"/><path class="bk" d="M188.28,225.1c-.83-6.8-.45-13.54.26-20.29.19-1.67.41-3.34.66-5.01.04-.26.16-1.23.54-1.85.67-1.26,2.02-2.06,3.43-2.11l1.26-.08c3.37-.18,6.77-.25,10.22.09-3.61,1.47-7.27,2.45-10.99,3.31-.29.04-.58.15-.65.47-.64,8.61-1.84,17.25-4.73,25.46h0Z"/><path class="bk" d="M221.15,230.64c-.61-9.43,1.12-18.78,3.92-27.74.66-1.89,1.01-3.91,2.19-5.6,1.95-2.89,5.34-3.58,8.49-3.15.94.06,1.88.13,2.83.25-1.35.47-2.7.87-4.07,1.22-2.96.58-4.86,2.62-5.2,5.58-.55,2.71-1.2,5.4-1.91,8.07-1.92,7.2-3.62,14.33-6.25,21.37h0Z"/><path class="bk" d="M257.44,216.9c.96-13.7,13.82-27.66,28.27-24.93-3.3,1.03-6.35,2.11-9.1,3.7-8.59,4.77-14.14,12.93-19.18,21.23h.01Z"/><path class="bk" d="M334.72,211.52c-1.78-5.71-2.53-11.63-2.98-17.56-.02-.51-.11-1.14-.06-1.65.57-3.86,4.32-4.07,7.34-3.19,1.64.54,1.67.58.35,1.72-1.1.92-2.41,1.61-3.78,1.86.03.01.07,0,.07-.05,0,0,0-.02,0,.06.28,6.28.25,12.59-.93,18.8h-.01Z"/><path class="bk" d="M398.6,213.35c-2.79-6.12-4.53-12.54-5.99-19.05l-.14-.65c-.72-2.21.65-4.93,2.98-5.47,2.5-.4,5.07-.39,7.6-.5,3.55-.07,7.1-.02,10.7.43-5.62,1.95-11.38,2.99-17.18,3.81-.18.05-.33.26-.29.43,1.36,6.92,2.44,13.88,2.31,20.99h0Z"/><path class="bj" d="M437.14,212.53c1.24,5.44.08,11.4-3.96,15.41.48-2.68,1.52-5.05,2.07-7.66.65-2.56.88-5.24,1.9-7.75h-.01Z"/><path class="az" d="M237.23,278.9c-.42,2.16-1.78,4.44-2.69,6.52-.27-2.47.86-4.88,2.69-6.52h0Z"/><path class="bz" d="M197.63,282.04l-.02-1.72c0-.2.15-.36.35-.36.17,0,.31.11.35.26l.45,1.66-1.11-1.31.7-.1-.71,1.57h0Z"/><path class="cb" d="M225.97,157.9c-.03-1.69.24-3.3.57-4.88.38-1.73.73-3.72,2.3-4.78,1.48-1.17,3.44-1.05,5.16-1.04,1.62.03,3.24.1,4.88.32-1.58.48-3.17.79-4.77,1.08-1.16.21-3.2.31-4.08,1.18-1.15.92-1.2,2.49-1.82,3.75-.61,1.5-1.28,2.98-2.25,4.37h0Z"/><path class="az" d="M309.91,284.54c.34,3.79.26,7.28,1.08,11.02-2.14-3.21-2.13-7.42-1.08-11.02h0Z"/><path class="az" d="M326.66,288.71c-2.43-2.67-.34-6.17.78-8.92.32,1.56-.46,3.08-.74,4.55-.36,1.43-.43,2.84-.04,4.37h0Z"/><path class="az" d="M347.38,281.78c.38,1.95.05,3.73-.73,5.54-.6-1.85-.24-3.85.73-5.54h0Z"/><path class="cm" d="M293.89,251.23c4.78-2.22,8.53-6.05,10.83-10.77-.95,5.31-5.48,9.9-10.83,10.77h0Z"/><path class="bj" d="M319.86,227.58c-.61-.94-.16-2.21.95-2.48.02,1.13-.15,1.67-.95,2.48h0Z"/><path class="bn" d="M485.26,302.44c.37,1.86.23,3.4.98,5.12-1.92-.78-2.06-3.6-.98-5.12h0Z"/><path class="bf" d="M60.45,301.53c1.44,3.82,2.04,7.98,1.43,12.03-.78-4.02-1.34-7.93-1.43-12.03h0Z"/><path class="cf" d="M124.37,258.57c-3.05,14.63-11.97,30.2-26.81,35.24-2.11.67-4.28,1.05-6.45,1.19,2.1-.58,4.16-1.21,6.1-2.11,13.87-6.41,21.65-20.71,27.16-34.33h0Z"/><path class="co" d="M204.71,241.61c-.09,6-.35,12.31-3.17,17.78-2.18,3.15-5.57,4.92-8.63,6.91-4.15,2.41-8,4.91-11.57,8.12-3.69,2.97-8.79,5.42-13.54,3.85,6.12.85,11.09-3.5,15.14-7.49,2.72-2.42,5.89-4.29,8.93-6.18,2.88-1.83,6.12-3.49,8.2-6.14,2.87-5.07,3.57-11.15,4.65-16.84h0Z"/><path class="as" d="M239.15,248.51c.52,5.12.4,10.23.16,15.34.06,3.57-2.21,5.6-5.68,5.38-2.56.07-5.12.07-7.69-.12,2.51-.63,5.03-1.07,7.56-1.43,1.19-.18,2.18-.19,2.96-1.05.51-.53.79-1.19.81-1.93.28-5.43.75-10.85,1.87-16.19h.01Z"/><path class="bp" d="M305.25,275.09c2.24-2.79,4.19-5.56,5.33-8.87l.47-.93c4.08-7.24,14.01-5.82,15.67,2.3-3.25-6-10.18-7.25-14.06-1.33l-.45.76c-1.41,3.34-3.99,6.14-6.96,8.07h0Z"/><path class="as" d="M388.11,256.79c1.14,3.86,2.09,7.75,2.97,11.66.22.99.44,1.92.65,2.96.32,1.65-.74,3.46-2.36,3.98l-.71.24c-1.83.63-3.56,1.35-5.13,2.48-1.7,1.01-3.58.36-5.2-.04-5.77-1.7-11.06-4.83-17.15-5.12,7-1.22,13.61,2.98,20.34,3.73.4,0,.74-.09.87-.2,1.66-1.26,3.7-2.05,5.65-2.69l.72-.23c.8-.23,1.35-1.05,1.24-1.9l-.45-2.94c-.59-3.96-1.11-7.94-1.44-11.95h0v.02Z"/><path class="ar" d="M379.4,225.55c.56,1.75,1.01,3.71,1.41,5.51.8,2.45-1.14,4.83-3.78,4.59-2.23.07-5.08-.18-7.1.37-1.46.51-2.35,2.61-4.36,2.13-1.02-.11-1.97-.9-2.71-1.38-.99-.66-2.18-1.02-3.41-1.33,1.83-.31,3.9.41,5.54,1.16,1.25.33,1.58.02,2.45-.99,1.35-1.74,3.84-1.88,5.84-1.91,1.54-.03,3.06.06,4.59.1,1.25-.17,1.87-1.24,1.66-2.55-.1-1.84-.18-3.85-.12-5.68h0v-.02Z"/><path class="aw" d="M374.9,191.22c1.56,3.32,3.27,6.74,3.34,10.55-.03,1.21-1.36,2.05-2.44,1.97-2.26-.26-4.07.14-6.22.63-2.2.49-4.78-.45-6.65-1.02-2.39-.39-5.71-.34-8.48-.79,2.45-.39,5.08-.66,7.56-.81,1.84-.08,3.77.8,5.33.82,1.36.11,2.65-.3,3.97-.62,1.38-.33,3.19-.26,4.51-.09.29.01.4,0,.5-.06.18-.17.1.05.18-.26.11-3.4-1.05-6.87-1.61-10.32h.01Z"/><path class="co" d="M251.8,161.65c.53,2.98.65,5.93.69,8.93.02.57.02,1.21-.18,1.77-.64,1.85-2.63,2.79-4.47,2.72-2.99.09-5.95.1-8.95-.3,2.91-.83,5.84-1.24,8.81-1.58,1.31-.06,2.66-.57,2.85-1.94.21-3.23.5-6.42,1.25-9.6h0Z"/><path class="as" d="M428.02,279.19c1.44,3.23,2.48,6.54,3.45,9.91.68,1.64-.39,3.65-2.19,3.88-2.28,0-4.67-.31-6.91.04-2.13.36-4.26,1.29-6.35,2.35,2.34-2.65,6-4.42,9.63-4.39,1.02-.04,2.1,0,3.12.04.5.05.97-.32.98-.83.01-.14-.09-.48-.11-.63-.72-3.43-1.37-6.84-1.62-10.37h0Z"/><path class="as" d="M470.98,269.21c2.34,2.42,4.52,4.95,6.04,8.02.65,1.53,1.24,3.09,1.87,4.63.06.14.98,2.6,1,2.63.4.96.24,2.18-.43,2.99-.52.7-1.56,1.11-2.37,1.09-.99.05-2.08.08-3.03.14-2.44.13-4.61,2.15-7.21,1.66-.87-.09-1.77-.27-2.59-.68-1.62-.81-2.3-2.43-3.88-3.22,1.61.29,2.78,1.85,4.27,2.32,2.35.74,4.49.05,6.56-1.2,1.6-.8,3.45-.84,5.17-.94.93-.03,1.61-.06,1.75-.98.03-.26-.12-.56-.2-.83l-.81-2.32c-.51-1.56-1.05-3.1-1.52-4.68-1.15-3-3-5.81-4.61-8.63h-.01Z"/><path class="bw" d="M456.41,214.84c4.92,7.17,5.93,17.86.45,25-.37.46-.75.9-1.13,1.33.3-.79.65-1.62,1-2.39.81-2.35,1.49-4.84,1.68-7.31.54-5.62-.51-11.19-2-16.63h0Z"/><path class="cg" d="M310.61,202.37c2.81.68,5.62,3.08,6.18,6.19.28,1.36.43,3.28-.98,4.16-.85.5-1.56.45-2.16.49-2.27-.09-4.14-.01-5.83,1.5-1.64,1.83-4.06,2.82-6.5,2.43,1.12-.32,2.23-.63,3.12-1.22.92-.55,1.47-1.37,2.28-2.31.81-.97,2-1.7,3.25-2.07,1.63-.55,3.46-.08,4.82-.48.12-.07.25-.24.3-.73.31-3.32-1.7-6.03-4.48-7.96h0Z"/><path class="co" d="M196.63,288.48c1.38-1.17,2-2.44,3.11-3.78.32,1.78-1.18,4.01-3.11,3.78h0Z"/><path class="ak" d="M237.38,286.75c.81-.71,1.07-1.69,1.49-2.63.38-.89.79-2.08,1.32-2.91.31,1.92-.52,5.32-2.8,5.54h-.01Z"/><path class="ak" d="M316.96,294.23c1.29,1.66.65,4.73-1.57,5.21,1.17-1.62,1.35-3.2,1.57-5.21h0Z"/><path class="ak" d="M328.92,291.45c2.03-.69,1.46-1.81,1.45-3.53,1.86,1.41,1.09,4.6-1.45,3.53h0Z"/><path class="ao" d="M348.13,290.13c1.23-.2,1.28-1.24,1.49-2.25.08-.37.15-.75.32-1.16.48.72.63,1.57.42,2.46-.2.95-1.43,1.73-2.23.95h0Z"/><path class="ak" d="M489.29,305.77c1.29,1.32.58,4.77-1.63,3.38,1.75-.34,1.17-1.95,1.63-3.38h0Z"/><path class="by" d="M323.56,227.28c.78,1.16-.42,3.69-1.88,2.59,1.18-.55,1.01-1.61,1.88-2.59h0Z"/><path class="bk" d="M64.88,127.58c2.17-7.25,4.87-14.25,7.74-21.22.49-1.15,1.07-2.67,1.79-3.68,1.56-2.42,4.09-4.01,6.73-5.04,3.43-1.53,6.89-2.96,10.4-4.31,4.69-1.77,9.43-3.42,14.37-4.64-7.84,5.32-16.24,9.47-24.83,13.34-2.5,1.05-4.2,3.37-5.24,5.81-3.39,6.73-6.91,13.34-10.97,19.73h0Z"/><path class="bk" d="M131.38,112.72c-.17-8.11.88-16.1,2.27-24.05.32-2.18,2.08-4.25,4.26-4.83,1.22-.31,2.29-.38,3.5-.56,3.55-.43,7.13-.74,10.82-.56-3.3,1.65-6.7,2.81-10.12,3.85-1.68.61-4.24.57-4.52,2.81-1.45,7.93-3.23,15.8-6.2,23.35h0Z"/><path class="bk" d="M164.01,108.33c1.24-9.56,6.41-24.04,15.41-28.81,1.54-.78,3.37-1.06,5.08-.82,3.47.38,7,.89,10.19,2.38-2.97-.03-5.84.19-8.77.41l-1.45.12c-3.9.07-6.61,3.74-8.82,6.74-4.37,6.27-7.7,13.3-11.65,19.99h0Z"/><path class="br" d="M193.28,119.42c-.26-1.92-.31-3.83-.28-5.73-.12-1.69,1.03-3.59,2.7-4.17,2.34-.64,4.8-.77,7.22-1.03,1.89-.16,3.79-.26,5.72-.17-3.59,1.35-7.29,2.15-11.04,2.81-1.09.1-2.2.52-2.69,1.58-.63,2.13-.82,4.54-1.63,6.7h0Z"/><path class="cn" d="M84.96,150.57c5.09-.73,7.85-5.12,9.92-9.36,1.1-2.32,1.15-2.31.94.29-.47,5.1-5.28,11.12-10.86,9.08h0Z"/><path class="bb" d="M90.66,124.19c4.43-2.81,7.75-6.27,10.11-10.9-.1,5.39-4.8,10.29-10.11,10.9h0Z"/><path class="co" d="M216.63,118.95c1.18,5.52,3.22,11.79-.53,16.79-1.7,2.39-4.29,3.83-6.6,5.51-2.3,1.58-4.64,3.11-7.1,4.47,1.95-2.03,4.03-3.9,6.15-5.71,1.96-1.82,4.39-3.23,5.93-5.43,3.44-4.49,1.65-10.39,2.16-15.63h0Z"/><path class="co" d="M145.12,134.27c-.43,6.96-1.56,13.97-2.83,20.82-.22,1.77-1.7,3.08-3.45,3.21-2.33.37-4.64.67-7.01.71,1.24-.57,2.49-1.05,3.76-1.48.95-.33,1.91-.62,2.87-.91,1.02-.18,1.8-.84,1.89-1.89,1.25-6.86,2.7-13.8,4.78-20.46h0Z"/><path class="co" d="M91.21,165.1c8.5-.73,15.84-6.02,20.04-13.26,1.07-1.6,1.94-3.48,2.92-5.16-1.71,10.74-11.57,20.61-22.97,18.42h.01Z"/><path class="cg" d="M203.84,86.1c1.17,1.99,1.99,4.07,2.74,6.23.06.18.1.38.1.57,0,.72-.52,1.37-1.22,1.55-.49.15-1.33-.05-1.81-.07-1.55-.16-3.1-.41-4.64-.73-5.59-1.25-5.61-1.54.17-1.55,1.95.02,3.92.18,5.85.43.08,0,.02,0,0,0-.15,0-.27.14-.25.29-.41-1.85-.92-4.51-.95-6.74h0v.02Z"/><path class="cm" d="M177,256.54c3.07-2.19,5.57-4.71,7.47-7.95-.55,3.8-3.77,7.06-7.47,7.95h0Z"/><path class="bc" d="M377.4,218.95c-8.16-.14-16.21-.63-24.35.23,7.89-2.23,16.37-1.74,24.35-.23h0Z"/><path class="cm" d="M383.79,251.45c-8.04,1.21-16.3,1.53-24.35.23,7.2-.08,17.24-.39,24.35-.23h0Z"/><path class="cm" d="M96.14,275.96c3.29-1.85,6.05-4.08,8.29-7.09-.96,3.72-4.52,6.61-8.29,7.09h0Z"/><path class="bd" d="M82.81,334.07c2.96-.35,5.95-.99,8.45-2.46,2.5-1.45,3.99-4.2,5.54-6.57,1.09-1.82,2.16-3.95,3.07-5.89,1.39-3.97,5.36-6.19,9.26-6.93,11.8-1.29,23.14-6.83,29.73-17.05-1.29,2.71-3.05,5.21-5.08,7.47-6.19,6.83-15.24,10.44-24.23,11.53-3.61.68-6.73,2.41-8.04,5.76-2.06,4.07-4.44,8.09-7.8,11.24-3.03,2.42-7.16,2.93-10.91,2.87h0v.03Z"/><path class="bd" d="M256.93,282.11c4.64,4.42,9.66,8.93,16.39,8.83,3.26.09,6.83-.29,10.01.9,1.61.58,3.11,1.33,4.57,2.11,1.47.76,2.88,1.58,4.47,2.07-1.66-.14-3.27-.74-4.81-1.31-1.56-.56-3.08-1.17-4.63-1.54-3.04-.9-6.24-.17-9.66-.27-7.11.25-12.95-5.02-16.34-10.79h0Z"/><path class="bd" d="M470.58,326.44c-4.46-.48-8.75-3.1-10.55-7.36-.36-.79-.65-1.71-.7-2.66,0-.08,0,.05.02.06.03.08.08.13.13.15-1.58-.47-3.39-1.16-4.99-1.96-1.47-.77-3.07-1.94-3.45-3.76,0-.03.03-.01.06-.02,0,0,.03,0-.02,0-.26-.02-.7-.07-.96-.1-2.15-.32-4.38-.8-6.2-2.02,2.32.68,4.69.74,7.07.7.8-.09,1.43.54,1.6,1.27,1.36,2.39,4.68,2.93,7.11,3.9.57.14,1.26.49,1.47,1.14.54,5.26,4.64,8.69,9.4,10.67h.01Z"/><path class="bd" d="M152.57,295.6c2.94,1.21,5.94,1.98,8.98,1.83,2.75-.02,5.53-.48,8.32-.3.18,0,.54.06.71.1,1.91.46,3.02,2.04,4.74,2.63,1.29.54,2.74.64,4.26.59,3.12-.12,6.25-.29,9.41-.52-3,1.05-6.13,1.67-9.28,2.08-1.6.24-3.37.19-5.05-.37-1.92-.6-3.11-2.07-4.51-2.47-.11-.03-.34-.06-.46-.07-2.71-.2-5.44.15-8.19-.11-3.28-.15-6.44-1.46-8.93-3.39h0Z"/><path class="bd" d="M196.6,303.52c2.63,1.44,5.38,2.6,8.28,2.18.97-.13,1.68-.43,2.62-.86,2.03-.72,3.36-1.51,4.84-2.97,1.38-1.33,2.44-2.98,2.99-5,.51,3.76-2.27,7.61-5.62,9.21-.91.37-1.96.86-2.93,1.2-3.75,1.13-7.93-.8-10.18-3.76h0Z"/><path class="bd" d="M230.42,301.29c8.53,7.43,14.89,2.74,19.77-5.7-.39,2.2-1.27,4.31-2.52,6.22-4.18,6.94-13.55,6.59-17.25-.52h0Z"/><path class="bd" d="M297.28,305.62c1.01,6.96,7.56,10.9,14.11,11.12,2.13.03,4.34-.49,6.23-1.86-2.83,4.19-9.06,4.13-13.29,2.26-4.5-1.7-8.06-6.66-7.06-11.52h.01Z"/><path class="bd" d="M335.53,307.23c4.02,2.11,7.69.87,11.39-.87,1.96-.97,1.99-.92.58.79-2.88,3.46-9.55,4.62-11.97.07h0Z"/><path class="bd" d="M359.98,299.99c4.08,3.21,8.73,2.66,13.5,2.54-3.98,3.13-11.66,2.86-13.5-2.54h0Z"/><path class="bd" d="M387.04,298.4c-.82,4.24-.17,9.15,3.17,12.06,3.74,2.91,9.53,4.79,13.92,2.43.91-.59,2.12-.84,3.21-.5,2.45.96,5.26,1.5,7.79.73,4.26-1.33,8.2-3.61,12.17-5.65-3.63,2.82-7.35,5.45-11.7,7.14-2.32.88-4.87.72-7.17.15-.97-.19-2-.93-2.98-.36-4.68,2.95-10.68,1.22-14.93-1.62-4.56-3.17-5.48-9.52-3.48-14.38h0Z"/><path class="av" d="M468.26,257.3l-.12-11,29.96-.34-3.74-25.2,10.88-1.61,4.66,31.44c.23,1.57-.22,3.17-1.26,4.38-1.03,1.21-2.53,1.91-4.12,1.93l-36.26.41h0Z"/><circle class="bx" cx="499.8" cy="214.06" r="20.09" transform="translate(208.44 673.12) rotate(-80.78)"/><path class="cj" d="M499.8,238.15c-13.29,0-24.09-10.81-24.09-24.09s10.81-24.09,24.09-24.09,24.09,10.81,24.09,24.09-10.81,24.09-24.09,24.09ZM499.8,197.96c-8.88,0-16.09,7.22-16.09,16.09s7.22,16.09,16.09,16.09,16.09-7.22,16.09-16.09-7.22-16.09-16.09-16.09Z"/><path class="ai" d="M490.48,221.03c-3.78-3.77-3.96-10.47-.58-14.7,3.25-4.38,10.01-5.61,14.43-2.61-10.56-1.13-16.94,7.36-13.85,17.31h0Z"/><path class="bt" d="M509.23,207.14c5.39,6.31,1.91,16.99-6.45,18.43-2.56.49-5.23.09-7.4-1.12,10.75,1.98,17.8-7.35,13.85-17.31h0Z"/><path class="aw" d="M339.88,191.17c3.55,2.53,5.97,2.92,9.25-.21.39-.38.77-.76,1.23-1.12-1.46,5.66-7.91,6.9-10.48,1.33h0Z"/><path class="bk" d="M339.87,189.69c3.27,2.92,6.3,3.27,9.36-.12.36-.41.71-.82,1.11-1.21-.21.51-.47,1.01-.72,1.51-2.45,4.29-7.43,4.07-9.75-.18h0Z"/><path class="av" d="M341.48,190.39c-5.36-12.43-11.14-24.39-18.98-35.4l-.86-1.24c-.4-6.81,4.94-12.24,11.85-10.43l1.81.49,1.02,1.59c8.5,12.99,13.61,28.72,12.05,44.34-3.15-6.88-5.91-13.72-9.37-20.32-3.29-6.45-7.04-12.53-11.03-18.58l2.83,2.07c.19.05.1.03.13.04,0,0,.02.01.07,0,.16-.02.55-.26.58-.44,0-.05-.02.08-.03,0l-.79-2.92c7.6,12.07,12.15,26.45,10.72,40.78h0v.02Z"/><path class="av" d="M341.14,190.45c-3.24-6.2-5.4-12.42-7.88-18.79-1.14-3.1-1.81-6.44-2.85-9.72-1.03-3.28-2.69-6.29-4.76-9l-.19-.25v-.45c-.16-3.84,3.45-7.04,7.31-6.31l.51.08.77.86c9.08,10.09,14.98,23.28,14.99,36.97.02,1.94-.05,3.88-.32,5.83l-.69.11c-6.07-13.22-11.48-27.13-17.77-40.44l1.29.94c-.98-.67-2.53-.42-3.2.67-.27.39-.47.9-.54,1.39l-.19-.7c3.11,6.31,8.65,11.24,11.48,17.72,2.6,6.64,3.8,13.83,2.73,20.95l-.69.12h0v.02Z"/><path class="bz" d="M326.62,152.12c.01-.25.1-2.31,1.85-3.57,1.57-1.14,3.37-.7,3.67-.61,8.84,13.55,13.56,25.66,16.22,41.62-.17.25-1.35,1.89-3.44,1.98-1.94.08-3.23-1.11-3.45-1.32-2.44-14.62-6.75-25.67-14.85-38.09h0Z"/><path class="ax" d="M332.14,147.93c-.61-.8-2.33-.47-3.83.72-1.5,1.19-2.25,2.74-1.69,3.47s2.25.43,3.8-.7c1.55-1.12,2.33-2.69,1.73-3.49h-.01Z"/><path class="bg" d="M336.41,154.91c-.46.76-1.16,1.74-2.26,2.72s-2.2,1.64-3,2.03c-.51-.87-.95-1.77-1.5-2.62.77-.42,1.75-1.07,2.8-2.07,1.08-1.03,1.83-2.15,2.26-2.93.61.92,1.13,1.94,1.7,2.88h0Z"/><path class="bg" d="M340.04,161.91c-.53.71-1.3,1.57-2.49,2.43s-2.35,1.41-3.18,1.72c-.42-.91-.84-1.85-1.3-2.74.81-.34,1.91-.89,3.05-1.79,1.17-.92,1.94-1.88,2.44-2.61.52.97,1,2,1.48,2.99h0Z"/><path class="bg" d="M343.07,169.16c-.59.65-1.45,1.49-2.71,2.24-1.27.75-2.44,1.15-3.3,1.38-.33-.95-.69-1.89-1.06-2.83.84-.26,1.98-.7,3.21-1.48,1.26-.8,2.1-1.66,2.67-2.35.42,1.02.81,2.01,1.19,3.04h0Z"/><path class="bg" d="M345.54,176.62c-.65.59-1.64,1.34-2.96,1.96-1.33.62-2.5.9-3.38,1.05-.24-.98-.56-1.98-.84-2.95.86-.18,2.07-.48,3.36-1.14,1.33-.68,2.23-1.42,2.86-2.05.32,1.05.68,2.05.96,3.12h0Z"/><path class="bg" d="M347.38,184.3c-.71.53-1.82,1.22-3.21,1.71-1.39.49-2.46.65-3.35.71-.16-.93-.44-1.99-.63-2.99.87-.1,2.06-.3,3.4-.84,1.39-.55,2.42-1.25,3.11-1.82.22,1.08.49,2.13.66,3.22h.02Z"/><path class="bz" d="M415.03,202.98l.4.74c1.1,2.01,3.43,3.01,5.64,2.43l.81-.21c.11-.03.18.13.07.18l-.74.4c-2.01,1.1-3.01,3.43-2.43,5.64l.21.81c.03.11-.13.18-.18.07l-.4-.74c-1.1-2.01-3.43-3.01-5.64-2.43l-.81.21c-.11.03-.18-.13-.07-.18l.74-.4c2.01-1.1,3.01-3.43,2.43-5.64l-.21-.81c-.03-.11.13-.18.18-.07Z"/><path class="al" d="M252.71,84.87l-.51,2.28c-1.31,5.86.56,11.98,4.92,16.1l1.7,1.6-2.28-.51c-5.86-1.31-11.98.56-16.1,4.92l-1.6,1.7.51-2.28c1.31-5.86-.56-11.98-4.92-16.1l-1.7-1.6,2.28.51c5.86,1.31,11.98-.56,16.1-4.92l1.6-1.7Z"/><path class="am" d="M167.2,52.59c.86-5.81,3.42-11.44,7.37-15.8-2.16,5.43-4.56,10.67-7.37,15.8h0Z"/><path class="am" d="M132.95,53.67c.15-3.8,4.46-7.13,7.78-4.33-3.75-.34-5.51,1.74-7.78,4.33h0Z"/><path class="am" d="M145.03,55.45c.76-3.73,5.56-6.31,8.38-3.01-1.62-.28-3.05-.44-4.49.25-1.43.65-2.56,1.79-3.89,2.75h0Z"/><path class="am" d="M226.64,49.96c.76-3.73,5.56-6.31,8.38-3.01-1.62-.28-3.05-.44-4.49.25-1.43.65-2.56,1.79-3.89,2.75h0Z"/><path class="am" d="M207.44,57.54c.76-3.73,5.56-6.31,8.38-3.01-1.62-.28-3.05-.44-4.49.25-1.43.65-2.56,1.79-3.89,2.75h0Z"/><path class="am" d="M226.6,69c1.62-3.45,6.89-4.83,8.85-.95-1.5-.66-2.87-1.14-4.43-.81-1.54.29-2.91,1.13-4.42,1.76h0Z"/><path class="am" d="M250.38,90.36c-2.49,4.03-8.68,7.16-12.72,3.5,4.71,1.44,8.78-1.25,12.72-3.5h0Z"/><path class="ce" d="M454.24,145.29c1.25-4.92,5.58-8.98,10.6-9.8-2.63,4.22-6.18,7.52-10.6,9.8h0Z"/></svg>