<svg width="25" height="24" viewBox="0 0 25 24" fill="none" xmlns="http://www.w3.org/2000/svg">
  <path fill-rule="evenodd" clip-rule="evenodd"
    d="M9.815 7.584C12.695 3.883 17.195 1.5 22.25 1.5C22.4489 1.5 22.6397 1.57902 22.7803 1.71967C22.921 1.86032 23 2.05109 23 2.25C23 7.306 20.617 11.805 16.916 14.686C17.0699 15.6502 17.0128 16.6364 16.7486 17.5764C16.4844 18.5164 16.0194 19.388 15.3857 20.1308C14.7519 20.8737 13.9646 21.4702 13.0779 21.8792C12.1913 22.2883 11.2264 22.5001 10.25 22.5C10.0511 22.5 9.86032 22.421 9.71967 22.2803C9.57902 22.1397 9.5 21.9489 9.5 21.75V17.619C8.52793 16.8514 7.64925 15.9724 6.882 15H2.75C2.55109 15 2.36032 14.921 2.21967 14.7803C2.07902 14.6397 2 14.4489 2 14.25C1.99992 13.2735 2.21173 12.3085 2.62082 11.4218C3.02991 10.5351 3.62653 9.74765 4.36951 9.11391C5.11249 8.48017 5.98413 8.01519 6.92427 7.75105C7.86442 7.48692 8.85068 7.42992 9.815 7.584ZM15.5 6.75C14.9033 6.75 14.331 6.98705 13.909 7.40901C13.4871 7.83097 13.25 8.40326 13.25 9C13.25 9.59674 13.4871 10.169 13.909 10.591C14.331 11.0129 14.9033 11.25 15.5 11.25C16.0967 11.25 16.669 11.0129 17.091 10.591C17.5129 10.169 17.75 9.59674 17.75 9C17.75 8.40326 17.5129 7.83097 17.091 7.40901C16.669 6.98705 16.0967 6.75 15.5 6.75Z"
    fill="#584D74" />
  <path
    d="M5.76004 17.2424C5.83903 17.1835 5.90564 17.1097 5.95608 17.025C6.00652 16.9404 6.03979 16.8466 6.054 16.7491C6.06821 16.6516 6.06307 16.5523 6.03888 16.4568C6.0147 16.3612 5.97193 16.2714 5.91304 16.1924C5.85414 16.1134 5.78026 16.0468 5.69562 15.9964C5.61097 15.9459 5.51723 15.9127 5.41972 15.8985C5.32222 15.8843 5.22288 15.8894 5.12736 15.9136C5.03184 15.9378 4.94203 15.9805 4.86304 16.0394C4.09593 16.61 3.49945 17.3796 3.13812 18.2647C2.77679 19.1499 2.66438 20.117 2.81304 21.0614C2.83721 21.2187 2.9108 21.3643 3.02316 21.477C3.13551 21.5897 3.28081 21.6637 3.43804 21.6884C4.38257 21.837 5.34974 21.7244 6.23491 21.3629C7.12008 21.0014 7.88954 20.4047 8.46004 19.6374C8.52083 19.5586 8.56534 19.4686 8.59097 19.3724C8.61661 19.2763 8.62285 19.176 8.60933 19.0774C8.59582 18.9788 8.56282 18.8839 8.51226 18.7982C8.4617 18.7124 8.39459 18.6377 8.31484 18.5781C8.23509 18.5186 8.14429 18.4756 8.04774 18.4515C7.95118 18.4274 7.8508 18.4228 7.75244 18.4379C7.65409 18.453 7.55972 18.4875 7.47483 18.5395C7.38995 18.5914 7.31626 18.6597 7.25804 18.7404C6.9093 19.2094 6.45561 19.5903 5.93328 19.8525C5.41095 20.1147 4.83449 20.251 4.25004 20.2504C4.25004 19.0204 4.84204 17.9274 5.76004 17.2424Z"
    fill="#584D74" />
</svg>