<svg width="20" height="20" viewBox="0 0 20 20" fill="none" xmlns="http://www.w3.org/2000/svg">
  <path
    d="M4.81849 3.48493C5.35835 3.06933 5.62829 2.86153 5.93986 2.72769C6.08114 2.66701 6.22802 2.61798 6.37879 2.58117C6.71129 2.5 7.06388 2.5 7.76904 2.5H12.2309C12.936 2.5 13.2886 2.5 13.6211 2.58117C13.7719 2.61798 13.9188 2.66701 14.06 2.72769C14.3716 2.86153 14.6415 3.06933 15.1815 3.48493C16.9703 4.86207 17.8648 5.55064 18.1714 6.44232C18.3078 6.83894 18.3587 7.25607 18.3215 7.67051C18.2376 8.60225 17.5315 9.455 16.1194 11.1604L12.7915 15.1794C11.5105 16.7265 10.87 17.5 9.99996 17.5C9.12996 17.5 8.48946 16.7265 7.20844 15.1794L3.88055 11.1604C2.46836 9.455 1.76226 8.60225 1.67846 7.67051C1.64119 7.25607 1.69216 6.83894 1.82854 6.44232C2.13516 5.55064 3.0296 4.86207 4.81849 3.48493Z"
    fill="#D9D9D9" />
  <path
    d="M4.81849 3.48493C5.35835 3.06933 5.62829 2.86153 5.93986 2.72769C6.08114 2.66701 6.22802 2.61798 6.37879 2.58117C6.71129 2.5 7.06388 2.5 7.76904 2.5H12.2309C12.936 2.5 13.2886 2.5 13.6211 2.58117C13.7719 2.61798 13.9188 2.66701 14.06 2.72769C14.3716 2.86153 14.6415 3.06933 15.1815 3.48493C16.9703 4.86207 17.8648 5.55064 18.1714 6.44232C18.3078 6.83894 18.3587 7.25607 18.3215 7.67051C18.2376 8.60225 17.5315 9.455 16.1194 11.1604L12.7915 15.1794C11.5105 16.7265 10.87 17.5 9.99996 17.5C9.12996 17.5 8.48946 16.7265 7.20844 15.1794L3.88055 11.1604C2.46836 9.455 1.76226 8.60225 1.67846 7.67051C1.64119 7.25607 1.69216 6.83894 1.82854 6.44232C2.13516 5.55064 3.0296 4.86207 4.81849 3.48493Z"
    fill="url(#paint0_linear_194_514)" />
  <path d="M8.33337 7.08337H11.6667" stroke="#491F2B" stroke-width="1.5" stroke-linecap="round"
    stroke-linejoin="round" />
  <defs>
    <linearGradient id="paint0_linear_194_514" x1="9.99996" y1="2.5" x2="9.99996" y2="17.5"
      gradientUnits="userSpaceOnUse">
      <stop stop-color="#FFA016" />
      <stop offset="1" stop-color="#FD5F19" />
    </linearGradient>
  </defs>
</svg>