<svg width="25" height="24" viewBox="0 0 25 24" fill="none" xmlns="http://www.w3.org/2000/svg">
  <path fill-rule="evenodd" clip-rule="evenodd"
    d="M13.5867 21.3877L14.1288 20.4718C14.5492 19.7614 14.7595 19.4062 15.0972 19.2098C15.4349 19.0134 15.86 19.0061 16.7104 18.9915C17.9658 18.9698 18.7531 18.8929 19.4134 18.6194C20.6386 18.1119 21.6119 17.1386 22.1194 15.9134C22.5 14.9946 22.5 13.8297 22.5 11.5V10.5C22.5 7.22657 22.5 5.58985 21.7632 4.38751C21.3509 3.71473 20.7853 3.14908 20.1125 2.7368C18.9101 2 17.2734 2 14 2H11C7.72657 2 6.08985 2 4.88751 2.7368C4.21473 3.14908 3.64908 3.71473 3.2368 4.38751C2.5 5.58985 2.5 7.22657 2.5 10.5V11.5C2.5 13.8297 2.5 14.9946 2.8806 15.9134C3.38807 17.1386 4.36144 18.1119 5.58658 18.6194C6.24689 18.8929 7.03422 18.9698 8.28958 18.9915C9.13992 19.0061 9.56509 19.0134 9.90279 19.2098C10.2405 19.4063 10.4507 19.7614 10.8712 20.4718L11.4133 21.3877C11.8965 22.204 13.1035 22.204 13.5867 21.3877ZM12.5 6.25C12.9142 6.25 13.25 6.58579 13.25 7V15C13.25 15.4142 12.9142 15.75 12.5 15.75C12.0858 15.75 11.75 15.4142 11.75 15V7C11.75 6.58579 12.0858 6.25 12.5 6.25ZM9.25 9C9.25 8.58579 8.91421 8.25 8.5 8.25C8.08579 8.25 7.75 8.58579 7.75 9V13C7.75 13.4142 8.08579 13.75 8.5 13.75C8.91421 13.75 9.25 13.4142 9.25 13V9ZM16.5 8.25C16.9142 8.25 17.25 8.58579 17.25 9V13C17.25 13.4142 16.9142 13.75 16.5 13.75C16.0858 13.75 15.75 13.4142 15.75 13V9C15.75 8.58579 16.0858 8.25 16.5 8.25Z"
    fill="#584D74" />
</svg>